<svg width="130" height="119" viewBox="0 0 130 119" fill="none" xmlns="http://www.w3.org/2000/svg">
<path fill-rule="evenodd" clip-rule="evenodd" d="M65.3416 113.261C95.4446 113.261 119.849 88.8943 119.849 58.8373C119.849 28.7797 95.4446 4.41357 65.3416 4.41357C35.238 4.41357 10.834 28.7797 10.834 58.8373C10.834 88.8943 35.238 113.261 65.3416 113.261Z" fill="white" stroke="#979797" stroke-width="0.786962"/>
<path fill-rule="evenodd" clip-rule="evenodd" d="M65.0007 110.983C93.5861 110.983 116.76 87.845 116.76 59.3034C116.76 30.7612 93.5861 7.62354 65.0007 7.62354C36.4149 7.62354 13.2412 30.7612 13.2412 59.3034C13.2412 87.845 36.4149 110.983 65.0007 110.983Z" stroke="#4385F4" stroke-width="1.57392" stroke-dasharray="2.36 2.36"/>
<mask id="mask0_209_786" style="mask-type:alpha" maskUnits="userSpaceOnUse" x="9" y="3" width="112" height="113">
<path d="M9.17676 59.2456C9.17676 90.0595 34.1941 115.039 65.0552 115.039C95.9162 115.039 120.934 90.0595 120.934 59.2456C120.934 28.4318 95.9162 3.45215 65.0552 3.45215C34.1941 3.45215 9.17676 28.4318 9.17676 59.2456Z" fill="white"/>
</mask>
<g mask="url(#mask0_209_786)">
<path fill-rule="evenodd" clip-rule="evenodd" d="M65.0547 115.039C95.9158 115.039 120.933 90.06 120.933 59.2461C120.933 28.4323 95.9158 3.45264 65.0547 3.45264C34.1937 3.45264 9.17578 28.4323 9.17578 59.2461C9.17578 90.06 34.1937 115.039 65.0547 115.039V115.039Z" stroke="#4385F4" stroke-width="9.75754"/>
</g>
<path fill-rule="evenodd" clip-rule="evenodd" d="M69.1275 59.77H62.7891L63.8696 57.4683L64.8059 55.311H67.1112L68.047 57.4683L69.1275 59.77Z" fill="#FF7058"/>
<path fill-rule="evenodd" clip-rule="evenodd" d="M73.1617 59.77H58.756C57.9639 59.77 57.3154 60.4169 57.3154 61.2078V65.8828H74.5307V61.2078C74.6023 60.4169 73.9544 59.77 73.1617 59.77Z" fill="#FFD15C"/>
<path fill-rule="evenodd" clip-rule="evenodd" d="M68.0465 57.4685C67.4702 57.7565 66.8944 58.0439 66.3181 58.2599L65.9576 58.3319L65.5981 58.1879C65.0212 57.9719 64.4449 57.6845 63.8691 57.3965L64.8055 55.2393H67.0381L68.0465 57.4685Z" fill="#F1543F"/>
<path fill-rule="evenodd" clip-rule="evenodd" d="M80.3635 38.2663C80.3635 41.7179 79.1393 44.8831 77.0504 47.4002C74.3856 50.5644 70.4235 52.6501 65.9577 52.6501C61.4925 52.6501 57.5304 50.6363 54.8656 47.4002C52.8488 44.955 51.552 41.7179 51.552 38.2663V38.1943H80.2914V38.2663H80.3635ZM48.6709 35.3177V38.2663C48.6709 45.4585 53.1367 51.6432 59.4035 54.2324C61.4198 55.0953 63.653 55.5267 65.9577 55.5267C68.263 55.5267 70.4956 55.0953 72.5125 54.2324C78.7788 51.6432 83.2451 45.4585 83.2451 38.2663V35.3177H48.6709ZM77.1943 31.3618H54.7212C54.2169 31.3618 53.857 31.7933 53.857 32.2252C53.857 32.7287 54.2169 33.1601 54.7212 33.1601H77.1943C77.6985 33.1601 78.0591 32.7287 78.0591 32.2967C78.0591 31.7933 77.6985 31.3618 77.1943 31.3618Z" fill="#F8B64C"/>
<path fill-rule="evenodd" clip-rule="evenodd" d="M77.1953 33.1602V40.9272C77.1953 48.1193 72.7295 54.6641 65.9584 57.2533C59.1879 54.5921 54.7227 48.1193 54.7227 40.8557V33.1602H77.1953Z" fill="#FFD15C"/>
<path fill-rule="evenodd" clip-rule="evenodd" d="M54.7217 34.239H77.1233V33.1602H54.7217V34.239Z" fill="#FFC952"/>
<path fill-rule="evenodd" clip-rule="evenodd" d="M71.5707 37.2466H63.2847C60.2884 37.9578 60.2246 40.4376 60.2246 40.4376V48.8155H63.4122V41.1876C63.4122 40.5389 64.0491 40.4243 64.0491 40.4243H71.5707V37.2466ZM64.9744 41.3459C64.9744 41.3459 64.3291 41.2822 64.3291 41.8524V44.3847H68.5866V45.1446C68.5866 45.1446 68.5993 45.5238 68.1996 45.5238H64.3291V48.8155H68.9735C68.9735 48.8155 71.7869 48.386 71.8124 45.5238V41.3459H64.9744Z" fill="white"/>
<g opacity="0.5">
<path fill-rule="evenodd" clip-rule="evenodd" d="M24.2105 40.4664C24.2142 40.457 24.2163 40.4512 24.2163 40.4512C24.2147 40.4517 24.2131 40.4575 24.2105 40.4664ZM21.5789 47.2976C21.581 47.2881 21.5821 47.2823 21.5826 47.2828C21.581 47.2828 21.5799 47.2886 21.5789 47.2976ZM20.5278 53.6292C20.5294 53.6013 20.5299 53.5866 20.5283 53.5892C20.5257 53.5898 20.5257 53.6034 20.5278 53.6292ZM19.4761 60.4451C19.475 60.4277 19.4745 60.4188 19.4745 60.4209C19.4729 60.4214 19.4735 60.4298 19.4761 60.4451ZM20.0012 67.7884C20.0002 67.781 20.0002 67.7768 20.0007 67.7779C19.9996 67.7784 19.9996 67.7821 20.0012 67.7884ZM21.0529 74.6131C21.0529 74.6115 21.0524 74.6089 21.0535 74.6094C21.0524 74.61 21.0524 74.611 21.0529 74.6131ZM27.9167 87.7766C27.902 87.7571 27.8941 87.7471 27.8952 87.7471C27.8925 87.7492 27.901 87.7598 27.9167 87.7766ZM33.1901 94.0827C33.169 94.0638 33.1575 94.0533 33.158 94.0533C33.1564 94.0564 33.1675 94.0664 33.1901 94.0827ZM38.9908 99.3357C38.9618 99.3184 38.9466 99.3084 38.9476 99.3084C38.945 99.3121 38.9602 99.3215 38.9908 99.3357Z" fill="#4385F4"/>
<path fill-rule="evenodd" clip-rule="evenodd" d="M64.2105 101.235C60.1168 101.422 56.1482 100.905 52.4365 99.8368C53.8025 98.0717 51.5433 96.3175 49.3807 94.6266C47.1146 92.9434 44.846 91.2596 44.8449 91.2542C44.7953 91.294 47.5151 93.993 47.2534 96.3442C47.1632 96.9479 47.188 97.4768 47.2977 97.9385C46.6783 97.6563 46.0679 97.36 45.4696 97.0478C47.0603 95.5294 45.258 93.3577 43.5291 91.2967C41.6993 89.2162 39.8533 87.1744 39.8522 87.1695C39.7994 87.1973 41.8819 90.3416 41.2013 92.658C41.0061 93.2447 40.9322 93.7785 40.9512 94.2588C40.4136 93.8734 39.8886 93.4772 39.3784 93.0678C41.167 91.8114 39.8617 89.3319 38.5902 87.0063C37.23 84.6419 35.8256 82.3479 35.8245 82.3436C35.7723 82.3594 37.1942 85.7951 36.1179 88.0051C35.8219 88.5634 35.6541 89.0874 35.586 89.572C35.1418 89.1032 34.7107 88.6251 34.2939 88.1382C36.2075 87.1569 35.461 84.5022 34.648 81.9937C33.7458 79.4416 32.776 77.0439 32.7861 77.0079C32.7359 77.0133 33.5099 80.5976 32.0706 82.6361C31.686 83.1453 31.4301 83.6404 31.2776 84.1108C30.9326 83.583 30.6002 83.0493 30.2815 82.5089C32.3197 81.8021 32.058 79.0797 31.6966 76.5047C31.2571 73.8728 30.7147 71.396 30.7147 71.3676C30.6683 71.3644 30.8297 74.9753 29.0712 76.7836C28.6085 77.2327 28.2745 77.6847 28.0445 78.1273C27.8841 77.7611 27.729 77.3938 27.5802 77.0248C27.4647 76.7393 27.3539 76.4528 27.2452 76.1657C29.2965 75.7842 29.4817 73.2064 29.5376 70.7585C29.5297 68.2604 29.3899 65.8983 29.3783 65.8742C29.3392 65.865 28.9652 69.2271 27.0384 70.6827C26.5282 71.0462 26.142 71.431 25.8581 71.819C25.6561 71.0456 25.4761 70.2701 25.3168 69.4912C27.3523 69.4355 27.9026 67.0602 28.3009 64.7854C28.6439 62.4778 28.8327 60.2739 28.8111 60.2493C28.7795 60.2378 27.9828 63.2976 25.9663 64.3941C25.4197 64.674 24.9934 64.9901 24.6684 65.3246C24.5718 64.4437 24.5011 63.5617 24.4552 62.6803C26.4063 62.9139 27.2368 60.7896 27.9036 58.7254C28.5183 56.6378 28.9678 54.6096 28.9383 54.5812C28.9119 54.5692 27.7992 57.3097 25.7647 58.0585C25.206 58.2495 24.7602 58.4918 24.4093 58.7658C24.431 57.9804 24.4711 57.1972 24.5291 56.4178C24.5428 56.2339 24.5592 56.0505 24.575 55.8677C26.3335 56.3556 27.4299 54.4666 28.2703 52.6497C29.0971 50.8082 29.7043 48.9028 29.7049 48.8963C29.6832 48.8853 28.3421 51.3185 26.3546 51.7431C25.8228 51.8463 25.3849 52.0095 25.0287 52.2119C25.1939 51.1848 25.3896 50.1625 25.6165 49.1424C27.1629 49.7668 28.3838 48.1758 29.3482 46.5865C30.3179 44.9556 31.0903 43.1943 31.0919 43.1873C31.0719 43.1791 29.5661 45.3399 27.682 45.4752C27.2236 45.5014 26.8305 45.5838 26.4976 45.7088C26.8057 44.6505 27.146 43.5944 27.5195 42.5378C28.8301 43.202 30.0921 41.8926 31.1267 40.5167C32.1999 39.0698 33.1232 37.4242 33.1264 37.416C33.1079 37.4117 31.4723 39.3476 29.736 39.2363C29.3793 39.2073 29.0596 39.2253 28.7736 39.2799C29.201 38.2544 29.6574 37.2277 30.1444 36.1984C30.1707 36.1312 30.1992 36.0641 30.2267 35.997C31.3156 36.6645 32.5729 35.5909 33.655 34.3896C34.812 33.0917 35.8931 31.5329 35.8989 31.5242C35.8778 31.5242 34.1198 33.2871 32.5634 32.9771C32.1999 32.8996 31.8707 32.887 31.5757 32.9236C32.6046 30.741 33.8012 28.5251 35.2067 26.2622C33.6919 28.4781 32.345 30.6526 31.1526 32.8046C31.0339 32.4591 30.8466 32.0946 30.5685 31.7163C30.0684 31.0499 30.0599 29.9698 30.2356 29.0507C30.4018 28.1326 30.7516 27.3745 30.7411 27.3729C30.74 27.3718 29.4332 29.4284 28.8275 31.4893C28.2112 33.5223 28.2281 35.4534 29.64 35.6919C29.0812 36.8222 28.5652 37.9498 28.0894 39.0758C27.9168 38.7947 27.6878 38.5071 27.3871 38.2184C26.7434 37.6109 26.5683 36.5291 26.6078 35.5915C26.6379 34.656 26.8833 33.864 26.8732 33.864C26.8727 33.8618 25.8143 36.0505 25.4703 38.2091C25.1253 40.2711 25.3838 42.1923 26.8194 42.3516C26.4543 43.3837 26.1214 44.418 25.8191 45.4567C25.607 45.2214 25.3427 44.9884 25.0182 44.7635C23.4728 43.7516 23.7794 40.6728 23.8364 40.4397C23.7688 40.6346 23.027 42.8647 22.9595 45.0233C22.8756 47.1475 23.3911 49.0824 24.8921 49.0987C24.89 49.1058 24.8884 49.114 24.8863 49.1217C24.6826 50.0697 24.5027 51.0238 24.3492 51.9827C24.097 51.7759 23.792 51.5788 23.4259 51.3987C21.65 50.5713 21.5571 47.3609 21.5851 47.1192C21.5402 47.3233 21.0543 49.7138 21.2728 51.9734C21.4674 54.1932 22.2762 56.1542 23.8654 55.9457C23.791 56.837 23.7382 57.7305 23.7097 58.6261C23.4106 58.44 23.0545 58.2735 22.6329 58.1354C20.7019 57.5433 20.1458 54.3678 20.1157 53.9667C20.0983 54.3116 19.9168 56.8184 20.446 59.0616C20.9251 61.354 22.137 63.3723 23.7604 62.8664C23.8063 63.6878 23.8728 64.5087 23.9619 65.3295C23.6079 65.1625 23.1911 65.0288 22.7015 64.9404C20.5589 64.5905 19.5301 61.2263 19.4736 60.9021C19.4889 61.1897 19.6541 63.9061 20.552 66.2443C21.4015 68.6316 23.0033 70.6281 24.6589 69.7526C24.8151 70.5015 24.9908 71.2498 25.1865 71.9948C24.7707 71.8518 24.2848 71.7595 23.7208 71.735C21.3835 71.6727 19.7865 68.1371 19.7374 67.9204C19.7606 68.1082 20.3494 71.0271 21.6869 73.4264C22.9737 75.8704 25.0187 77.7856 26.6268 76.4856C26.8775 77.1438 27.1449 77.7976 27.4293 78.446C26.9545 78.3451 26.4095 78.3112 25.788 78.368C23.3003 78.642 21.0337 75.0457 21.009 74.9104C21.0079 74.9983 22.1132 78.0602 23.9556 80.4393C25.7331 82.8539 28.2455 84.5851 29.7033 82.8915C30.0267 83.4395 30.3633 83.9809 30.7142 84.5153C30.2224 84.4814 29.6743 84.5229 29.0659 84.6648C26.5862 85.293 23.6818 81.8976 23.7308 81.8682C23.6665 81.8502 25.3015 84.8264 27.5966 86.9741C29.7861 89.1261 32.6077 90.4857 33.7806 88.5989C34.2037 89.0923 34.6411 89.577 35.0933 90.0523C34.591 90.0895 34.0465 90.2095 33.4598 90.436C31.1985 91.3661 27.9342 88.7654 27.6383 88.4553C27.8646 88.755 29.8347 91.2383 32.3867 92.9308C35.0294 94.7489 38.0853 95.5856 38.941 93.5869C39.4644 94.0072 40.0005 94.4154 40.5508 94.8111C40.0448 94.9257 39.5103 95.1282 38.9537 95.4409C36.8349 96.6985 33.0889 94.6556 32.7096 94.3777C33.0076 94.6528 35.4341 96.7929 38.3248 98.0406C41.3379 99.4061 44.6106 99.703 45.1161 97.6301C45.726 97.9505 46.347 98.2561 46.9785 98.5449C46.4868 98.7425 45.9829 99.0268 45.477 99.4198C43.5549 100.996 39.3953 99.6305 38.9252 99.405C39.3003 99.6408 42.1489 101.331 45.3192 102.045C48.6341 102.859 52.0287 102.55 52.1902 100.483C55.9509 101.574 59.9707 102.101 64.124 101.902L64.2105 101.235ZM106.848 40.4662C106.844 40.4568 106.842 40.451 106.842 40.451C106.844 40.4515 106.845 40.4573 106.848 40.4662ZM108.951 47.2974C108.949 47.2879 108.947 47.2821 108.947 47.2827C108.949 47.2827 108.95 47.2885 108.951 47.2974ZM110.528 53.629C110.526 53.6012 110.526 53.5864 110.527 53.5891C110.53 53.5896 110.53 53.6033 110.528 53.629ZM111.053 60.4449C111.054 60.4275 111.054 60.4186 111.054 60.4207C111.056 60.4212 111.055 60.4296 111.053 60.4449ZM111.053 67.7882C111.054 67.7809 111.054 67.7767 111.053 67.7777C111.054 67.7782 111.054 67.7819 111.053 67.7882ZM109.474 74.6129C109.474 74.6114 109.475 74.6087 109.474 74.6093C109.475 74.6098 109.475 74.6108 109.474 74.6129ZM103.158 87.7764C103.173 87.757 103.18 87.747 103.179 87.747C103.182 87.7491 103.174 87.7596 103.158 87.7764ZM97.8947 94.0825C97.9157 94.0636 97.9273 94.0531 97.9263 94.0531C97.9284 94.0563 97.9173 94.0662 97.8947 94.0825ZM92.1052 99.3355C92.1336 99.3182 92.1494 99.3082 92.1484 99.3082C92.151 99.3119 92.1357 99.3214 92.1052 99.3355Z" fill="#4385F4"/>
<path fill-rule="evenodd" clip-rule="evenodd" d="M66.3156 101.235C70.4087 101.422 74.3779 100.905 78.0896 99.8368C76.7236 98.0717 78.9828 96.3175 81.1454 94.6266C83.4115 92.9434 85.6801 91.2596 85.6812 91.2542C85.7308 91.294 83.011 93.993 83.2727 96.3442C83.3629 96.9479 83.3381 97.4768 83.2284 97.9385C83.8478 97.6563 84.4582 97.36 85.0565 97.0478C83.4658 95.5294 85.2676 93.3577 86.997 91.2967C88.8268 89.2162 90.6728 87.1744 90.6739 87.1695C90.7266 87.1973 88.6442 90.3416 89.3248 92.658C89.52 93.2447 89.5939 93.7785 89.5749 94.2588C90.112 93.8734 90.6375 93.4772 91.1477 93.0678C89.3591 91.8114 90.6644 89.3319 91.9359 87.0063C93.2961 84.6419 94.7005 82.3479 94.7016 82.3436C94.7538 82.3594 93.3319 85.7951 94.4082 88.0051C94.7042 88.5634 94.872 89.0874 94.9401 89.572C95.3843 89.1032 95.8153 88.6251 96.2322 88.1382C94.3186 87.1569 95.0651 84.5022 95.8781 81.9937C96.7803 79.4416 97.7501 77.0439 97.74 77.0079C97.7902 77.0133 97.0162 80.5976 98.4555 82.6361C98.8401 83.1453 99.0954 83.6404 99.2479 84.1108C99.5935 83.583 99.9259 83.0493 100.245 82.5089C98.2064 81.8021 98.4681 79.0797 98.829 76.5047C99.269 73.8728 99.8114 71.396 99.8114 71.3676C99.8578 71.3644 99.6964 74.9753 101.455 76.7836C101.918 77.2327 102.252 77.6847 102.482 78.1273C102.642 77.7611 102.797 77.3938 102.946 77.0248C103.061 76.7393 103.172 76.4528 103.281 76.1657C101.23 75.7842 101.044 73.2064 100.988 70.7585C100.996 68.2604 101.136 65.8983 101.148 65.8742C101.187 65.865 101.561 69.2271 103.488 70.6827C103.998 71.0462 104.384 71.431 104.667 71.819C104.87 71.0456 105.05 70.2701 105.209 69.4912C103.174 69.4355 102.624 67.0602 102.225 64.7854C101.882 62.4778 101.693 60.2739 101.715 60.2493C101.747 60.2378 102.543 63.2976 104.56 64.3941C105.106 64.674 105.533 64.9901 105.858 65.3246C105.954 64.4437 106.024 63.5617 106.071 62.6803C104.12 62.9139 103.289 60.7896 102.622 58.7254C102.008 56.6378 101.558 54.6096 101.588 54.5812C101.614 54.5692 102.727 57.3097 104.761 58.0585C105.32 58.2495 105.766 58.4918 106.117 58.7658C106.095 57.9804 106.055 57.1972 105.997 56.4178C105.983 56.2339 105.967 56.0505 105.951 55.8677C104.193 56.3556 103.096 54.4666 102.256 52.6497C101.429 50.8082 100.822 48.9028 100.821 48.8963C100.843 48.8853 102.184 51.3185 104.171 51.7431C104.703 51.8463 105.141 52.0095 105.497 52.2119C105.332 51.1848 105.136 50.1625 104.91 49.1424C103.363 49.7668 102.142 48.1758 101.178 46.5865C100.208 44.9556 99.4357 43.1943 99.4342 43.1873C99.4542 43.1791 100.96 45.3399 102.844 45.4752C103.303 45.5014 103.696 45.5838 104.029 45.7088C103.72 44.6505 103.38 43.5944 103.007 42.5378C101.696 43.202 100.434 41.8926 99.3993 40.5167C98.3262 39.0698 97.4029 37.4242 97.3997 37.416C97.4182 37.4117 99.0538 39.3476 100.79 39.2363C101.147 39.2073 101.466 39.2253 101.752 39.2799C101.325 38.2544 100.869 37.2277 100.382 36.1984C100.355 36.1312 100.327 36.0641 100.299 35.997C99.2105 36.6645 97.9532 35.5909 96.8711 34.3896C95.7141 33.0917 94.633 31.5329 94.6272 31.5242C94.6483 31.5242 96.4063 33.2871 97.9627 32.9771C98.3257 32.8996 98.6554 32.887 98.9503 32.9236C97.9215 30.741 96.7249 28.5251 95.3194 26.2622C96.8341 28.4781 98.1811 30.6526 99.3735 32.8046C99.4917 32.4591 99.6795 32.0946 99.9575 31.7163C100.457 31.0499 100.466 29.9698 100.29 29.0507C100.124 28.1326 99.7745 27.3745 99.785 27.3729C99.7861 27.3718 101.093 29.4284 101.699 31.4893C102.314 33.5223 102.298 35.4534 100.886 35.6919C101.445 36.8222 101.961 37.9498 102.437 39.0758C102.609 38.7947 102.838 38.5071 103.139 38.2184C103.783 37.6109 103.958 36.5291 103.918 35.5915C103.888 34.656 103.643 33.864 103.653 33.864C103.653 33.8618 104.712 36.0505 105.056 38.2091C105.401 40.2711 105.142 42.1923 103.707 42.3516C104.072 43.3837 104.405 44.418 104.707 45.4567C104.919 45.2214 105.183 44.9884 105.507 44.7635C107.053 43.7516 106.747 40.6728 106.69 40.4397C106.757 40.6346 107.499 42.8647 107.567 45.0233C107.65 47.1475 107.135 49.0824 105.634 49.0987C105.636 49.1058 105.638 49.114 105.64 49.1217C105.843 50.0697 106.023 51.0238 106.177 51.9827C106.429 51.7759 106.734 51.5788 107.1 51.3987C108.876 50.5713 108.969 47.3609 108.941 47.1192C108.986 47.3233 109.472 49.7138 109.253 51.9734C109.059 54.1932 108.25 56.1542 106.661 55.9457C106.735 56.837 106.788 57.7305 106.816 58.6261C107.115 58.44 107.472 58.2735 107.893 58.1354C109.824 57.5433 110.38 54.3678 110.41 53.9667C110.428 54.3116 110.609 56.8184 110.08 59.0616C109.601 61.354 108.389 63.3723 106.766 62.8664C106.72 63.6878 106.653 64.5087 106.564 65.3295C106.918 65.1625 107.335 65.0288 107.825 64.9404C109.967 64.5905 110.996 61.2263 111.052 60.9021C111.037 61.1897 110.872 63.9061 109.974 66.2443C109.125 68.6316 107.523 70.6281 105.867 69.7526C105.711 70.5015 105.535 71.2498 105.339 71.9948C105.755 71.8518 106.241 71.7595 106.805 71.735C109.143 71.6727 110.74 68.1371 110.789 67.9204C110.765 68.1082 110.177 71.0271 108.839 73.4264C107.552 75.8704 105.507 77.7856 103.899 76.4856C103.649 77.1438 103.381 77.7976 103.097 78.446C103.572 78.3451 104.117 78.3112 104.738 78.368C107.226 78.642 109.492 75.0457 109.517 74.9104C109.518 74.9983 108.413 78.0602 106.57 80.4393C104.792 82.8539 102.281 84.5851 100.823 82.8915C100.499 83.4395 100.163 83.9809 99.8119 84.5153C100.304 84.4814 100.852 84.5229 101.46 84.6648C103.94 85.293 106.844 81.8976 106.795 81.8682C106.86 81.8502 105.225 84.8264 102.93 86.9741C100.74 89.1261 97.9184 90.4857 96.7455 88.5989C96.3218 89.0923 95.885 89.577 95.4328 90.0523C95.9351 90.0895 96.4796 90.2095 97.0663 90.436C99.3276 91.3661 102.592 88.7654 102.888 88.4553C102.661 88.755 100.691 91.2383 98.1394 92.9308C95.4967 94.7489 92.4408 95.5856 91.5851 93.5869C91.0617 94.0072 90.5256 94.4154 89.9753 94.8111C90.4813 94.9257 91.0158 95.1282 91.5724 95.4409C93.6907 96.6985 97.4372 94.6556 97.8165 94.3777C97.5184 94.6528 95.092 96.7929 92.2013 98.0406C89.1882 99.4061 85.9155 99.703 85.41 97.6301C84.8001 97.9505 84.1791 98.2561 83.5476 98.5449C84.0393 98.7425 84.5432 99.0268 85.0491 99.4198C86.9712 100.996 91.1308 99.6305 91.6009 99.405C91.2258 99.6408 88.3772 101.331 85.2064 102.045C81.892 102.859 78.4974 102.55 78.3359 100.483C74.5752 101.574 70.5554 102.101 66.4021 101.902L66.3156 101.235ZM23.9792 40.3131C23.9828 40.3033 23.9849 40.2973 23.9849 40.2973C23.9834 40.2978 23.9818 40.3038 23.9792 40.3131ZM21.7463 46.9719C21.7484 46.9621 21.7494 46.9562 21.7499 46.9567C21.7484 46.9567 21.7473 46.9627 21.7463 46.9719ZM20.2887 53.7987C20.2902 53.7699 20.2908 53.7547 20.2892 53.7574C20.2866 53.7579 20.2866 53.7721 20.2887 53.7987ZM19.6519 60.7133C19.6508 60.6953 19.6503 60.686 19.6503 60.6882C19.6487 60.6888 19.6493 60.6975 19.6519 60.7133ZM19.9135 67.7106C19.9125 67.703 19.9125 67.6986 19.913 67.6997C19.912 67.7003 19.912 67.7041 19.9135 67.7106ZM21.1749 74.6793C21.1749 74.6777 21.1744 74.675 21.1754 74.6755C21.1744 74.676 21.1744 74.6771 21.1749 74.6793ZM27.7504 88.1836C27.7357 88.1635 27.7279 88.1531 27.7289 88.1531C27.7263 88.1553 27.7347 88.1662 27.7504 88.1836ZM32.7809 94.0879C32.76 94.0683 32.7485 94.0574 32.749 94.0574C32.7474 94.0606 32.7584 94.071 32.7809 94.0879ZM38.9466 99.1005C38.9178 99.0826 38.9026 99.0722 38.9036 99.0722C38.901 99.076 38.9162 99.0858 38.9466 99.1005Z" fill="#4385F4"/>
<path opacity="0.5" fill-rule="evenodd" clip-rule="evenodd" d="M64.0281 100.924C59.9675 101.111 56.0309 100.596 52.3492 99.5307C53.7041 97.771 51.4632 96.0221 49.318 94.3363C47.0702 92.6582 44.8199 90.9795 44.8188 90.974C44.7696 91.0138 47.4675 93.7046 47.2079 96.0487C47.1184 96.6506 47.143 97.1778 47.2518 97.6382C46.6374 97.3569 46.0319 97.0614 45.4385 96.7501C47.0163 95.2363 45.2286 93.0712 43.5136 91.0165C41.6987 88.9422 39.8675 86.9065 39.8664 86.9016C39.8141 86.9294 41.8797 90.0642 41.2046 92.3736C41.011 92.9585 40.9377 93.4907 40.9566 93.9696C40.4233 93.5854 39.9025 93.1903 39.3965 92.7822C41.1706 91.5296 39.8759 89.0576 38.6146 86.7389C37.2654 84.3817 35.8723 82.0947 35.8712 82.0903C35.8194 82.1061 37.2298 85.5315 36.1622 87.7347C35.8686 88.2914 35.7022 88.8138 35.6347 89.297C35.194 88.8296 34.7665 88.3529 34.353 87.8675C36.2512 86.8891 35.5107 84.2424 34.7042 81.7415C33.8093 79.1971 32.8474 76.8066 32.8573 76.7707C32.8076 76.7762 33.5753 80.3496 32.1477 82.382C31.7661 82.8897 31.5123 83.3832 31.3611 83.8523C31.0188 83.3261 30.6891 82.7939 30.373 82.2552C32.3947 81.5505 32.1351 78.8363 31.7766 76.269C31.3407 73.6452 30.8027 71.1758 30.8027 71.1475C30.7566 71.1443 30.9168 74.7443 29.1725 76.5471C28.7135 76.9949 28.3822 77.4455 28.154 77.8868C27.9949 77.5217 27.8411 77.1554 27.6935 76.7876C27.5789 76.503 27.469 76.2173 27.3612 75.9311C29.3959 75.5508 29.5796 72.9808 29.6351 70.5403C29.6272 68.0497 29.4886 65.6946 29.477 65.6707C29.4383 65.6615 29.0673 69.0134 27.156 70.4646C26.65 70.827 26.2669 71.2107 25.9853 71.5975C25.7849 70.8265 25.6064 70.0533 25.4484 69.2768C27.4674 69.2213 28.0133 66.8531 28.4084 64.5851C28.7486 62.2845 28.9359 60.0872 28.9145 60.0627C28.8831 60.0513 28.0928 63.1018 26.0926 64.195C25.5504 64.4741 25.1276 64.7892 24.8052 65.1227C24.7094 64.2445 24.6393 63.3652 24.5937 62.4864C26.5291 62.7193 27.3528 60.6014 28.0143 58.5435C28.624 56.4621 29.0699 54.4401 29.0406 54.4118C29.0144 54.3998 27.9107 57.132 25.8927 57.8785C25.3385 58.069 24.8962 58.3106 24.5482 58.5837C24.5697 57.8007 24.6094 57.0199 24.667 56.2428C24.6806 56.0595 24.6968 55.8766 24.7125 55.6943C26.4568 56.1808 27.5443 54.2975 28.378 52.486C29.1981 50.6501 29.8005 48.7505 29.801 48.744C29.7795 48.7331 28.4492 51.1589 26.4778 51.5822C25.9502 51.6851 25.5159 51.8478 25.1626 52.0496C25.3264 51.0256 25.5206 50.0064 25.7456 48.9894C27.2795 49.6119 28.4905 48.0257 29.4472 46.4411C30.4091 44.8152 31.1753 43.0593 31.1769 43.0522C31.157 43.044 29.6634 45.1983 27.7945 45.3332C27.3397 45.3594 26.9498 45.4415 26.6196 45.5661C26.9252 44.511 27.2628 43.4581 27.6333 42.4047C28.9333 43.0669 30.1851 41.7615 31.2114 40.3897C32.2759 38.9472 33.1917 37.3066 33.1949 37.2984C33.1766 37.294 31.5542 39.2241 29.8319 39.1131C29.4781 39.0843 29.1609 39.1022 28.8773 39.1566C29.3012 38.1342 29.7539 37.1107 30.2369 36.0844C30.2631 36.0175 30.2914 35.9505 30.3186 35.8836C31.3988 36.5491 32.6459 35.4788 33.7193 34.2811C34.8669 32.9871 35.9393 31.433 35.945 31.4243C35.9241 31.4243 34.1803 33.1819 32.6365 32.8729C32.2759 32.7956 31.9493 32.7831 31.6568 32.8195C32.6773 30.6435 33.8642 28.4343 35.2584 26.1782C33.7559 28.3875 32.4198 30.5553 31.237 32.7009C31.1193 32.3565 30.9335 31.993 30.6577 31.6159C30.1616 30.9515 30.1532 29.8746 30.3275 28.9583C30.4923 28.043 30.8393 27.2872 30.8288 27.2856C30.8278 27.2845 29.5315 29.3348 28.9307 31.3895C28.3194 33.4165 28.3362 35.3416 29.7366 35.5794C29.1824 36.7064 28.6706 37.8306 28.1985 38.9531C28.0274 38.6729 27.8003 38.3861 27.502 38.0983C26.8635 37.4926 26.6897 36.4142 26.729 35.4793C26.7588 34.5466 27.0022 33.7571 26.9922 33.7571C26.9917 33.7549 25.9419 35.9369 25.6007 38.089C25.2584 40.1448 25.5148 42.0602 26.9388 42.2191C26.5767 43.2481 26.2465 44.2792 25.9466 45.3147C25.7362 45.0802 25.474 44.8479 25.1521 44.6237C23.6193 43.6148 23.9233 40.5453 23.9799 40.313C23.9129 40.5072 23.1771 42.7306 23.1101 44.8827C23.0269 47.0005 23.5382 48.9295 25.0271 48.9458C25.025 48.9529 25.0234 48.9611 25.0213 48.9687C24.8193 49.9139 24.6408 50.865 24.4885 51.8211C24.2384 51.6149 23.9359 51.4184 23.5727 51.2389C21.8111 50.4139 21.719 47.2133 21.7468 46.9722C21.7023 47.1757 21.2203 49.5591 21.4369 51.8118C21.6301 54.0249 22.4323 55.98 24.0086 55.7721C23.9349 56.6607 23.8825 57.5515 23.8543 58.4444C23.5575 58.2589 23.2043 58.0929 22.7861 57.9553C20.8707 57.3649 20.3191 54.199 20.2893 53.7991C20.272 54.143 20.092 56.6422 20.6169 58.8787C21.0921 61.1641 22.2942 63.1763 23.9045 62.6719C23.95 63.4909 24.016 64.3092 24.1044 65.1276C23.7533 64.9611 23.3398 64.8278 22.8542 64.7397C20.7289 64.3909 19.7083 61.0368 19.6523 60.7135C19.6675 61.0003 19.8313 63.7085 20.7221 66.0396C21.5646 68.4197 23.1535 70.4102 24.7958 69.5374C24.9507 70.284 25.1249 71.03 25.3191 71.7728C24.9067 71.6302 24.4247 71.5382 23.8652 71.5137C21.5468 71.4517 19.9627 67.9267 19.914 67.7107C19.937 67.8979 20.5211 70.808 21.8478 73.2C23.1242 75.6367 25.1527 77.5461 26.7478 76.25C26.9964 76.9062 27.2617 77.5581 27.5438 78.2046C27.0728 78.1039 26.5322 78.0702 25.9157 78.1268C23.4481 78.3999 21.1999 74.8145 21.1753 74.6796C21.1742 74.7672 22.2706 77.8199 24.0981 80.1918C25.8613 82.5991 28.3534 84.3251 29.7994 82.6366C30.1202 83.1829 30.4541 83.7227 30.8021 84.2555C30.3144 84.2217 29.7706 84.2631 29.1672 84.4046C26.7075 85.0309 23.8265 81.6457 23.8752 81.6164C23.8113 81.5984 25.4332 84.5656 27.7097 86.7068C29.8816 88.8524 32.6804 90.2079 33.8438 88.3268C34.2635 88.8187 34.6974 89.3019 35.1459 89.7758C34.6477 89.8128 34.1076 89.9325 33.5256 90.1584C31.2826 91.0856 28.0447 88.4927 27.7511 88.1837C27.9756 88.4824 29.9297 90.9583 32.4611 92.6456C35.0826 94.4582 38.1138 95.2924 38.9626 93.2997C39.4818 93.7187 40.0135 94.1257 40.5593 94.5202C40.0575 94.6345 39.5273 94.8364 38.9752 95.1482C36.8734 96.4019 33.1577 94.3652 32.7814 94.0882C33.0771 94.3624 35.484 96.496 38.3514 97.7399C41.3402 99.1014 44.5865 99.3974 45.0878 97.3307C45.6928 97.6502 46.3088 97.9549 46.9352 98.2427C46.4475 98.4397 45.9477 98.7232 45.4458 99.115C43.5393 100.686 39.4132 99.325 38.9469 99.1003C39.319 99.3354 42.1445 101.021 45.2893 101.732C48.5775 102.544 51.9447 102.236 52.1048 100.175C55.8352 101.263 59.8225 101.788 63.9423 101.589L64.0281 100.924Z" fill="#4385F4"/>
<path fill-rule="evenodd" clip-rule="evenodd" d="M106.9 40.3131C106.896 40.3033 106.894 40.2974 106.894 40.2974C106.896 40.2979 106.897 40.3039 106.9 40.3131ZM109.133 46.972C109.131 46.9622 109.129 46.9562 109.129 46.9568C109.131 46.9568 109.132 46.9628 109.133 46.972ZM110.591 53.7988C110.589 53.77 110.588 53.7547 110.59 53.7575C110.593 53.758 110.593 53.7722 110.591 53.7988ZM111.227 60.7133C111.228 60.6954 111.229 60.6861 111.228 60.6883C111.23 60.6889 111.23 60.6976 111.227 60.7133ZM110.966 67.7107C110.967 67.7031 110.967 67.6987 110.966 67.6998C110.967 67.7003 110.967 67.7041 110.966 67.7107ZM109.704 74.6794C109.704 74.6778 109.705 74.675 109.704 74.6756C109.705 74.6761 109.705 74.6772 109.704 74.6794ZM103.129 88.1837C103.143 88.1635 103.151 88.1532 103.15 88.1532C103.153 88.1554 103.144 88.1663 103.129 88.1837ZM98.0982 94.0879C98.1191 94.0683 98.1307 94.0575 98.1296 94.0575C98.1317 94.0607 98.1207 94.0711 98.0982 94.0879ZM91.9326 99.1006C91.9609 99.0826 91.9766 99.0723 91.9755 99.0723C91.9781 99.0761 91.963 99.0859 91.9326 99.1006Z" fill="#4385F4"/>
<path opacity="0.5" fill-rule="evenodd" clip-rule="evenodd" d="M66.8525 100.924C70.9126 101.111 74.8497 100.596 78.5314 99.5307C77.1765 97.771 79.4175 96.0221 81.5626 94.3363C83.8104 92.6582 86.0608 90.9795 86.0618 90.974C86.111 91.0138 83.4132 93.7046 83.6728 96.0487C83.7622 96.6506 83.7377 97.1778 83.6288 97.6382C84.2432 97.3569 84.8487 97.0614 85.4422 96.7501C83.8643 95.2363 85.6515 93.0712 87.367 91.0165C89.182 88.9422 91.0132 86.9065 91.0142 86.9016C91.0665 86.9294 89.0009 90.0642 89.676 92.3736C89.8697 92.9585 89.9429 93.4907 89.9241 93.9696C90.4568 93.5854 90.9781 93.1903 91.4842 92.7822C89.71 91.5296 91.0048 89.0576 92.266 86.7389C93.6152 84.3817 95.0084 82.0947 95.0094 82.0903C95.0612 82.1061 93.6508 85.5315 94.7184 87.7347C95.012 88.2914 95.1784 88.8138 95.2459 89.297C95.6866 88.8296 96.1142 88.3529 96.5276 87.8675C94.6294 86.8891 95.37 84.2424 96.1765 81.7415C97.0714 79.1971 98.0333 76.8066 98.0233 76.7707C98.073 76.7762 97.3053 80.3496 98.733 82.382C99.1145 82.8897 99.3678 83.3832 99.519 83.8523C99.8618 83.3261 100.192 82.7939 100.508 82.2552C98.486 81.5505 98.7455 78.8363 99.1035 76.269C99.54 73.6452 100.078 71.1758 100.078 71.1475C100.124 71.1443 99.9639 74.7443 101.708 76.5471C102.167 76.9949 102.499 77.4455 102.727 77.8868C102.886 77.5217 103.04 77.1554 103.187 76.7876C103.302 76.503 103.412 76.2173 103.519 75.9311C101.485 75.5508 101.301 72.9808 101.246 70.5403C101.253 68.0497 101.392 65.6946 101.404 65.6707C101.442 65.6615 101.813 69.0134 103.725 70.4646C104.231 70.827 104.614 71.2107 104.895 71.5975C105.096 70.8265 105.274 70.0533 105.432 69.2768C103.413 69.2213 102.867 66.8531 102.472 64.5851C102.132 62.2845 101.945 60.0872 101.966 60.0627C101.998 60.0513 102.787 63.1018 104.788 64.195C105.33 64.4741 105.753 64.7892 106.075 65.1227C106.171 64.2445 106.241 63.3652 106.287 62.4864C104.352 62.7193 103.528 60.6014 102.866 58.5435C102.257 56.4621 101.81 54.4401 101.84 54.4118C101.866 54.3998 102.97 57.132 104.988 57.8785C105.542 58.069 105.984 58.3106 106.332 58.5837C106.31 57.8007 106.271 57.0199 106.214 56.2428C106.2 56.0595 106.184 55.8766 106.168 55.6943C104.424 56.1808 103.336 54.2975 102.503 52.486C101.683 50.6501 101.08 48.7505 101.08 48.744C101.101 48.7331 102.431 51.1589 104.403 51.5822C104.93 51.6851 105.365 51.8478 105.718 52.0496C105.554 51.0256 105.36 50.0064 105.135 48.9894C103.601 49.6119 102.39 48.0257 101.433 46.4411C100.472 44.8152 99.7053 43.0593 99.7038 43.0522C99.7237 43.044 101.217 45.1983 103.086 45.3332C103.541 45.3594 103.931 45.4415 104.261 45.5661C103.955 44.511 103.618 43.4581 103.247 42.4047C101.947 43.0669 100.696 41.7615 99.6692 40.3897C98.6048 38.9472 97.6889 37.3066 97.6858 37.2984C97.7041 37.294 99.3265 39.2241 101.049 39.1131C101.403 39.0843 101.72 39.1022 102.003 39.1566C101.579 38.1342 101.127 37.1107 100.644 36.0844C100.617 36.0175 100.589 35.9505 100.562 35.8836C99.4819 36.5491 98.2348 35.4788 97.1614 34.2811C96.0137 32.9871 94.9414 31.433 94.9356 31.4243C94.9565 31.4243 96.7003 33.1819 98.2442 32.8729C98.6042 32.7956 98.9313 32.7831 99.2239 32.8195C98.2034 30.6435 97.0164 28.4343 95.6222 26.1782C97.1247 28.3875 98.4608 30.5553 99.6436 32.7009C99.7608 32.3565 99.9471 31.993 100.223 31.6159C100.719 30.9515 100.727 29.8746 100.553 28.9583C100.388 28.043 100.041 27.2872 100.052 27.2856C100.053 27.2845 101.349 29.3348 101.95 31.3895C102.561 33.4165 102.544 35.3416 101.144 35.5794C101.698 36.7064 102.21 37.8306 102.682 38.9531C102.853 38.6729 103.08 38.3861 103.379 38.0983C104.017 37.4926 104.191 36.4142 104.152 35.4793C104.122 34.5466 103.878 33.7571 103.888 33.7571C103.889 33.7549 104.939 35.9369 105.28 38.089C105.622 40.1448 105.366 42.0602 103.942 42.2191C104.304 43.2481 104.634 44.2792 104.934 45.3147C105.144 45.0802 105.407 44.8479 105.728 44.6237C107.261 43.6148 106.957 40.5453 106.901 40.313C106.968 40.5072 107.704 42.7306 107.771 44.8827C107.854 47.0005 107.342 48.9295 105.854 48.9458C105.856 48.9529 105.857 48.9611 105.859 48.9687C106.061 49.9139 106.24 50.865 106.392 51.8211C106.642 51.6149 106.945 51.4184 107.308 51.2389C109.07 50.4139 109.162 47.2133 109.134 46.9722C109.178 47.1757 109.66 49.5591 109.444 51.8118C109.251 54.0249 108.448 55.98 106.872 55.7721C106.946 56.6607 106.998 57.5515 107.026 58.4444C107.323 58.2589 107.676 58.0929 108.095 57.9553C110.01 57.3649 110.561 54.199 110.591 53.7991C110.609 54.143 110.789 56.6422 110.264 58.8787C109.789 61.1641 108.586 63.1763 106.976 62.6719C106.931 63.4909 106.865 64.3092 106.776 65.1276C107.127 64.9611 107.541 64.8278 108.026 64.7397C110.152 64.3909 111.172 61.0368 111.228 60.7135C111.213 61.0003 111.049 63.7085 110.159 66.0396C109.316 68.4197 107.727 70.4102 106.085 69.5374C105.93 70.284 105.755 71.03 105.561 71.7728C105.974 71.6302 106.456 71.5382 107.015 71.5137C109.334 71.4517 110.918 67.9267 110.967 67.7107C110.944 67.8979 110.36 70.808 109.033 73.2C107.756 75.6367 105.727 77.5461 104.133 76.25C103.884 76.9062 103.619 77.5581 103.337 78.2046C103.808 78.1039 104.348 78.0702 104.965 78.1268C107.432 78.3999 109.681 74.8145 109.705 74.6796C109.706 74.7672 108.61 77.8199 106.782 80.1918C105.019 82.5991 102.527 84.3251 101.081 82.6366C100.76 83.1829 100.427 83.7227 100.078 84.2555C100.566 84.2217 101.11 84.2631 101.713 84.4046C104.173 85.0309 107.054 81.6457 107.005 81.6164C107.069 81.5984 105.447 84.5656 103.171 86.7068C100.999 88.8524 98.2002 90.2079 97.0368 88.3268C96.6166 88.8187 96.1833 89.3019 95.7347 89.7758C96.233 89.8128 96.7731 89.9325 97.355 90.1584C99.5981 91.0856 102.836 88.4927 103.13 88.1837C102.905 88.4824 100.95 90.9583 98.4195 92.6456C95.7981 94.4582 92.7669 95.2924 91.918 93.2997C91.3989 93.7187 90.8671 94.1257 90.3213 94.5202C90.8232 94.6345 91.3533 94.8364 91.9055 95.1482C94.0067 96.4019 97.7229 94.3652 98.0992 94.0882C97.8035 94.3624 95.3967 96.496 92.5293 97.7399C89.5405 99.1014 86.2942 99.3974 85.7928 97.3307C85.1878 97.6502 84.5719 97.9549 83.9454 98.2427C84.4332 98.4397 84.933 98.7232 85.4348 99.115C87.3414 100.686 91.4674 99.325 91.9337 99.1003C91.5616 99.3354 88.7361 101.021 85.5908 101.732C82.3032 102.544 78.936 102.236 78.7758 100.175C75.0455 101.263 71.0581 101.788 66.9384 101.589L66.8525 100.924Z" fill="#4385F4"/>
</g>
<path fill-rule="evenodd" clip-rule="evenodd" d="M52.0187 92.9104C51.8422 92.8157 51.717 92.7073 51.6432 92.5854C51.5694 92.4634 51.5325 92.3591 51.5325 92.2724C51.5325 92.2403 51.5437 92.2138 51.5662 92.193C51.5886 92.1721 51.6159 92.1617 51.648 92.1617H52.0765C52.1054 92.1617 52.1303 92.1689 52.1512 92.1833C52.172 92.1978 52.1889 92.2243 52.2017 92.2628C52.237 92.3462 52.29 92.4176 52.3606 92.477C52.4312 92.5364 52.5404 92.5661 52.688 92.5661C52.8806 92.5661 53.0218 92.5236 53.1117 92.4385C53.2016 92.3534 53.2465 92.205 53.2465 91.9931V91.6657C53.0732 91.8712 52.8276 91.9739 52.5099 91.9739C52.176 91.9739 51.9249 91.8728 51.7563 91.6705C51.5878 91.4683 51.4971 91.1923 51.4843 90.8424L51.4795 90.7124L51.4843 90.5824C51.4971 90.2389 51.5886 89.9629 51.7588 89.7543C51.9289 89.5456 52.1792 89.4413 52.5099 89.4413C52.68 89.4413 52.8292 89.4734 52.9576 89.5376C53.086 89.6018 53.192 89.6884 53.2754 89.7976V89.6098C53.2754 89.5745 53.2875 89.5456 53.3115 89.5231C53.3356 89.5007 53.3637 89.4894 53.3958 89.4894H53.7906C53.8227 89.4894 53.85 89.5007 53.8725 89.5231C53.8949 89.5456 53.9062 89.5745 53.9062 89.6098L53.911 91.9305C53.911 92.2868 53.8115 92.5629 53.6125 92.7587C53.4134 92.9545 53.1133 93.0524 52.7121 93.0524C52.4264 93.0524 52.1953 93.0051 52.0187 92.9104ZM53.0973 91.2902C53.1871 91.1746 53.2369 91.0334 53.2465 90.8665C53.2497 90.8408 53.2513 90.7894 53.2513 90.7124C53.2513 90.6354 53.2497 90.584 53.2465 90.5583C53.2369 90.3914 53.1871 90.2502 53.0973 90.1346C53.0074 90.0191 52.8726 89.9613 52.6928 89.9613C52.3462 89.9613 52.1632 90.1731 52.1439 90.5968L52.1391 90.7124C52.1391 91.2131 52.3237 91.4635 52.6928 91.4635C52.8726 91.4635 53.0074 91.4057 53.0973 91.2902ZM54.7825 91.7524C54.577 91.5598 54.4663 91.2934 54.4502 90.9531L54.4454 90.7413L54.4502 90.5294C54.4663 90.1924 54.5786 89.9268 54.7873 89.7326C54.9959 89.5384 55.2864 89.4413 55.6588 89.4413C56.0279 89.4413 56.3168 89.5384 56.5254 89.7326C56.7341 89.9268 56.8464 90.1924 56.8625 90.5294C56.8657 90.568 56.8673 90.6386 56.8673 90.7413C56.8673 90.844 56.8657 90.9146 56.8625 90.9531C56.8464 91.2934 56.7357 91.5598 56.5302 91.7524C56.3248 91.945 56.0343 92.0413 55.6588 92.0413C55.28 92.0413 54.9879 91.945 54.7825 91.7524ZM56.0512 91.3961C56.1426 91.2902 56.1916 91.1345 56.198 90.9291C56.2012 90.897 56.2028 90.8344 56.2028 90.7413C56.2028 90.6482 56.2012 90.5856 56.198 90.5535C56.1916 90.3481 56.1418 90.1916 56.0488 90.0841C55.9557 89.9765 55.8257 89.9228 55.6588 89.9228C55.4886 89.9228 55.357 89.9765 55.2639 90.0841C55.1708 90.1916 55.1211 90.3481 55.1147 90.5535L55.1099 90.7413L55.1147 90.9291C55.1211 91.1345 55.1708 91.2902 55.2639 91.3961C55.357 91.502 55.4886 91.555 55.6588 91.555C55.8289 91.555 55.9597 91.502 56.0512 91.3961ZM57.6376 91.7524C57.4322 91.5598 57.3215 91.2934 57.3054 90.9531L57.3006 90.7413L57.3054 90.5294C57.3215 90.1924 57.4338 89.9268 57.6425 89.7326C57.8511 89.5384 58.1416 89.4413 58.5139 89.4413C58.8831 89.4413 59.172 89.5384 59.3806 89.7326C59.5892 89.9268 59.7016 90.1924 59.7176 90.5294C59.7208 90.568 59.7225 90.6386 59.7225 90.7413C59.7225 90.844 59.7208 90.9146 59.7176 90.9531C59.7016 91.2934 59.5908 91.5598 59.3854 91.7524C59.18 91.945 58.8895 92.0413 58.5139 92.0413C58.1352 92.0413 57.8431 91.945 57.6376 91.7524ZM58.9063 91.3961C58.9978 91.2902 59.0468 91.1345 59.0532 90.9291C59.0564 90.897 59.058 90.8344 59.058 90.7413C59.058 90.6482 59.0564 90.5856 59.0532 90.5535C59.0468 90.3481 58.997 90.1916 58.9039 90.0841C58.8108 89.9765 58.6809 89.9228 58.5139 89.9228C58.3438 89.9228 58.2122 89.9765 58.1191 90.0841C58.026 90.1916 57.9763 90.3481 57.9699 90.5535L57.965 90.7413L57.9699 90.9291C57.9763 91.1345 58.026 91.2902 58.1191 91.3961C58.2122 91.502 58.3438 91.555 58.5139 91.555C58.6841 91.555 58.8149 91.502 58.9063 91.3961ZM60.4399 91.7307C60.2665 91.5237 60.1718 91.2468 60.1558 90.9002L60.151 90.7413L60.1558 90.5824C60.1686 90.2421 60.2625 89.9669 60.4375 89.7567C60.6124 89.5464 60.862 89.4413 61.1862 89.4413C61.4943 89.4413 61.7399 89.5472 61.9228 89.7591V88.6902C61.9228 88.6549 61.9341 88.6268 61.9565 88.6059C61.979 88.5851 62.0063 88.5746 62.0384 88.5746H62.4573C62.4926 88.5746 62.5207 88.5851 62.5415 88.6059C62.5624 88.6268 62.5728 88.6549 62.5728 88.6902V91.8776C62.5728 91.9097 62.5624 91.937 62.5415 91.9594C62.5207 91.9819 62.4926 91.9931 62.4573 91.9931H62.0673C62.0352 91.9931 62.0079 91.9819 61.9854 91.9594C61.963 91.937 61.9517 91.9097 61.9517 91.8776V91.6994C61.7752 91.9273 61.52 92.0413 61.1862 92.0413C60.862 92.0413 60.6132 91.9378 60.4399 91.7307ZM61.776 91.3455C61.8642 91.2284 61.9132 91.0831 61.9228 90.9098C61.926 90.8713 61.9276 90.8103 61.9276 90.7268C61.9276 90.6402 61.926 90.5776 61.9228 90.5391C61.9164 90.3786 61.8667 90.2422 61.7736 90.1298C61.6805 90.0175 61.5457 89.9613 61.3691 89.9613C61.0257 89.9613 60.8427 90.1731 60.8202 90.5968L60.8154 90.7413L60.8202 90.8857C60.8427 91.3094 61.0257 91.5213 61.3691 91.5213C61.5521 91.5213 61.6877 91.4627 61.776 91.3455ZM63.5165 91.9594C63.4941 91.937 63.4828 91.9097 63.4828 91.8776V90.0046H63.0928C63.0607 90.0046 63.0334 89.9934 63.011 89.9709C62.9885 89.9484 62.9773 89.9212 62.9773 89.8891V89.605C62.9773 89.5729 62.9885 89.5456 63.011 89.5231C63.0334 89.5007 63.0607 89.4894 63.0928 89.4894H63.4828V89.2968C63.4828 89.0047 63.5615 88.7873 63.7188 88.6444C63.876 88.5016 64.1136 88.4302 64.4313 88.4302H65.428C65.4633 88.4302 65.4914 88.4406 65.5123 88.4615C65.5331 88.4823 65.5436 88.5104 65.5436 88.5457V88.8298C65.5436 88.8619 65.5323 88.8892 65.5099 88.9117C65.4874 88.9341 65.4601 88.9454 65.428 88.9454H64.4554C64.3302 88.9454 64.242 88.9759 64.1906 89.0368C64.1392 89.0978 64.1136 89.1925 64.1136 89.3209V89.4894H65.428C65.4633 89.4894 65.4914 89.4999 65.5123 89.5207C65.5331 89.5416 65.5436 89.5697 65.5436 89.605V91.8776C65.5436 91.9097 65.5331 91.937 65.5123 91.9594C65.4914 91.9819 65.4633 91.9931 65.428 91.9931H65.0284C64.9963 91.9931 64.969 91.9819 64.9465 91.9594C64.9241 91.937 64.9128 91.9097 64.9128 91.8776V90.0046H64.1136V91.8776C64.1136 91.9097 64.1031 91.937 64.0823 91.9594C64.0614 91.9819 64.0333 91.9931 63.998 91.9931H63.5984C63.5663 91.9931 63.539 91.9819 63.5165 91.9594ZM66.2128 91.9594C66.1904 91.937 66.1791 91.9097 66.1791 91.8776V89.6098C66.1791 89.5745 66.1904 89.5456 66.2128 89.5231C66.2353 89.5007 66.2626 89.4894 66.2947 89.4894H66.6895C66.7248 89.4894 66.7537 89.5007 66.7762 89.5231C66.7986 89.5456 66.8099 89.5745 66.8099 89.6098V89.8072C66.9704 89.5954 67.2015 89.4894 67.5032 89.4894H67.7054C67.7407 89.4894 67.7688 89.4999 67.7897 89.5207C67.8105 89.5416 67.821 89.5697 67.821 89.605V89.9565C67.821 89.9886 67.8105 90.0159 67.7897 90.0383C67.7688 90.0608 67.7407 90.072 67.7054 90.072H67.325C67.1742 90.072 67.0554 90.1154 66.9688 90.202C66.8821 90.2887 66.8388 90.4075 66.8388 90.5583V91.8776C66.8388 91.9097 66.8275 91.937 66.805 91.9594C66.7826 91.9819 66.7553 91.9931 66.7232 91.9931H66.2947C66.2626 91.9931 66.2353 91.9819 66.2128 91.9594ZM68.2302 91.9594C68.2078 91.937 68.1965 91.9097 68.1965 91.8776V89.605C68.1965 89.5697 68.2078 89.5416 68.2302 89.5207C68.2527 89.4999 68.28 89.4894 68.3121 89.4894H68.6925C68.7278 89.4894 68.7558 89.4999 68.7767 89.5207C68.7976 89.5416 68.808 89.5697 68.808 89.605V89.7687C68.9813 89.5504 69.2141 89.4413 69.5062 89.4413C69.8625 89.4413 70.1112 89.5841 70.2525 89.8698C70.3295 89.7414 70.4386 89.6379 70.5799 89.5593C70.7211 89.4806 70.8736 89.4413 71.0373 89.4413C71.3005 89.4413 71.5155 89.5312 71.6825 89.7109C71.8494 89.8907 71.9328 90.1523 71.9328 90.4957V91.8776C71.9328 91.9097 71.9224 91.937 71.9015 91.9594C71.8807 91.9819 71.8526 91.9931 71.8173 91.9931H71.4176C71.3855 91.9931 71.3583 91.9819 71.3358 91.9594C71.3133 91.937 71.3021 91.9097 71.3021 91.8776V90.5343C71.3021 90.332 71.2596 90.186 71.1745 90.0961C71.0894 90.0062 70.9779 89.9613 70.8399 89.9613C70.7147 89.9613 70.6079 90.007 70.5197 90.0985C70.4314 90.19 70.3873 90.3352 70.3873 90.5343V91.8776C70.3873 91.9097 70.3768 91.937 70.356 91.9594C70.3351 91.9819 70.307 91.9931 70.2717 91.9931H69.8673C69.8352 91.9931 69.8079 91.9819 69.7854 91.9594C69.7629 91.937 69.7517 91.9097 69.7517 91.8776V90.5343C69.7517 90.3352 69.7084 90.19 69.6217 90.0985C69.535 90.007 69.4243 89.9613 69.2895 89.9613C69.1643 89.9613 69.0576 90.007 68.9693 90.0985C68.881 90.19 68.8369 90.3352 68.8369 90.5343V91.8776C68.8369 91.9097 68.8265 91.937 68.8056 91.9594C68.7847 91.9819 68.7567 91.9931 68.7213 91.9931H68.3121C68.28 91.9931 68.2527 91.9819 68.2302 91.9594ZM72.8862 91.9305C72.7225 91.8567 72.6013 91.7709 72.5226 91.673C72.444 91.5751 72.4047 91.4908 72.4047 91.4202C72.4047 91.3881 72.4151 91.3624 72.436 91.3431C72.4568 91.3239 72.4817 91.3143 72.5106 91.3143H72.9054C72.9311 91.3143 72.9536 91.3271 72.9728 91.3528C72.9889 91.3656 73.025 91.3961 73.0812 91.4443C73.1373 91.4924 73.2015 91.5301 73.2737 91.5574C73.346 91.5847 73.4254 91.5983 73.5121 91.5983C73.6405 91.5983 73.7448 91.5735 73.825 91.5237C73.9053 91.4739 73.9454 91.4025 73.9454 91.3094C73.9454 91.2452 73.927 91.1931 73.89 91.153C73.8531 91.1128 73.7873 91.0759 73.6926 91.0422C73.5979 91.0085 73.4559 90.9708 73.2665 90.9291C72.9937 90.8713 72.7923 90.783 72.6623 90.6643C72.5323 90.5455 72.4673 90.3882 72.4673 90.1924C72.4673 90.064 72.5058 89.9428 72.5828 89.8289C72.6599 89.7149 72.7746 89.6218 72.9271 89.5496C73.0796 89.4774 73.2617 89.4413 73.4736 89.4413C73.6918 89.4413 73.8796 89.4758 74.0369 89.5448C74.1942 89.6138 74.3138 89.6965 74.3956 89.7928C74.4775 89.8891 74.5184 89.9741 74.5184 90.048C74.5184 90.0768 74.5079 90.1017 74.4871 90.1226C74.4662 90.1434 74.4413 90.1539 74.4125 90.1539H74.0513C74.016 90.1539 73.9888 90.141 73.9695 90.1154C73.947 90.0993 73.9109 90.0696 73.8612 90.0263C73.8114 89.983 73.756 89.9484 73.695 89.9228C73.6341 89.8971 73.5602 89.8843 73.4736 89.8843C73.3548 89.8843 73.2633 89.9099 73.1991 89.9613C73.1349 90.0126 73.1028 90.0801 73.1028 90.1635C73.1028 90.2213 73.1181 90.2694 73.1486 90.308C73.1791 90.3465 73.2409 90.3826 73.3339 90.4163C73.427 90.45 73.5666 90.4845 73.7528 90.5198C74.3306 90.6322 74.6195 90.8841 74.6195 91.2757C74.6195 91.5036 74.5208 91.6882 74.3234 91.8294C74.126 91.9707 73.8507 92.0413 73.4976 92.0413C73.2537 92.0413 73.0499 92.0044 72.8862 91.9305ZM75.1154 91.9594C75.093 91.937 75.0817 91.9097 75.0817 91.8776V91.3913C75.0817 91.3592 75.093 91.3319 75.1154 91.3094C75.1379 91.287 75.1652 91.2757 75.1973 91.2757H75.6836C75.7157 91.2757 75.7429 91.287 75.7654 91.3094C75.7879 91.3319 75.7991 91.3592 75.7991 91.3913V91.8776C75.7991 91.9097 75.7887 91.937 75.7678 91.9594C75.747 91.9819 75.7189 91.9931 75.6836 91.9931H75.1973C75.1652 91.9931 75.1379 91.9819 75.1154 91.9594ZM76.5866 91.7476C76.3764 91.5518 76.2648 91.2806 76.252 90.9339L76.2472 90.7413L76.252 90.5487C76.2648 90.202 76.3764 89.9308 76.5866 89.735C76.7969 89.5392 77.0785 89.4413 77.4316 89.4413C77.6852 89.4413 77.8995 89.4862 78.0744 89.5761C78.2493 89.666 78.3793 89.7759 78.4644 89.9059C78.5495 90.0359 78.5952 90.1603 78.6016 90.2791C78.6048 90.3112 78.5944 90.3384 78.5703 90.3609C78.5463 90.3834 78.5182 90.3946 78.4861 90.3946H78.0576C78.0223 90.3946 77.9966 90.3874 77.9805 90.373C77.9645 90.3585 77.9484 90.332 77.9324 90.2935C77.8842 90.1715 77.8208 90.0833 77.7422 90.0287C77.6635 89.9741 77.5632 89.9468 77.4413 89.9468C77.2776 89.9468 77.15 89.9982 77.0585 90.1009C76.967 90.2036 76.9181 90.3609 76.9116 90.5728L76.9068 90.7509L76.9116 90.9098C76.9309 91.3271 77.1074 91.5357 77.4413 91.5357C77.5665 91.5357 77.6676 91.5093 77.7446 91.4563C77.8216 91.4033 77.8842 91.3143 77.9324 91.1891C77.9452 91.1538 77.9605 91.1281 77.9781 91.112C77.9958 91.096 78.0223 91.088 78.0576 91.088H78.4861C78.5182 91.088 78.5463 91.0992 78.5703 91.1217C78.5944 91.1441 78.6048 91.1714 78.6016 91.2035C78.5952 91.3159 78.5503 91.437 78.4668 91.567C78.3834 91.697 78.255 91.8086 78.0816 91.9017C77.9083 91.9947 77.6916 92.0413 77.4316 92.0413C77.0785 92.0413 76.7969 91.9434 76.5866 91.7476ZM79.3383 91.7524C79.1329 91.5598 79.0221 91.2934 79.0061 90.9531L79.0013 90.7413L79.0061 90.5294C79.0221 90.1924 79.1345 89.9268 79.3431 89.7326C79.5518 89.5384 79.8422 89.4413 80.2146 89.4413C80.5837 89.4413 80.8726 89.5384 81.0813 89.7326C81.2899 89.9268 81.4022 90.1924 81.4183 90.5294C81.4215 90.568 81.4231 90.6386 81.4231 90.7413C81.4231 90.844 81.4215 90.9146 81.4183 90.9531C81.4022 91.2934 81.2915 91.5598 81.0861 91.7524C80.8806 91.945 80.5902 92.0413 80.2146 92.0413C79.8358 92.0413 79.5437 91.945 79.3383 91.7524ZM80.607 91.3961C80.6985 91.2902 80.7474 91.1345 80.7539 90.9291C80.7571 90.897 80.7587 90.8344 80.7587 90.7413C80.7587 90.6482 80.7571 90.5856 80.7539 90.5535C80.7474 90.3481 80.6977 90.1916 80.6046 90.0841C80.5115 89.9765 80.3815 89.9228 80.2146 89.9228C80.0445 89.9228 79.9129 89.9765 79.8198 90.0841C79.7267 90.1916 79.6769 90.3481 79.6705 90.5535L79.6657 90.7413L79.6705 90.9291C79.6769 91.1345 79.7267 91.2902 79.8198 91.3961C79.9129 91.502 80.0445 91.555 80.2146 91.555C80.3847 91.555 80.5155 91.502 80.607 91.3961Z" fill="black"/>
<path fill-rule="evenodd" clip-rule="evenodd" d="M89.0609 25.3591L89.9125 27.0828L91.8178 27.3592L90.4393 28.7003L90.7646 30.5948L89.0609 29.7009L87.3572 30.5948L87.6825 28.7003L86.3046 27.3592L88.2093 27.0828L89.0609 25.3591ZM42.227 25.3591L41.3754 27.0828L39.4707 27.3592L40.8486 28.7003L40.5233 30.5948L42.227 29.7009L43.9307 30.5948L43.6054 28.7003L44.9839 27.3592L43.0786 27.0828L42.227 25.3591ZM81.7357 16.7179L83.1557 19.5904L86.3304 20.0513L84.033 22.2873L84.5757 25.444L81.7357 23.9537L78.8962 25.444L79.4388 22.2873L77.1414 20.0513L80.3162 19.5904L81.7357 16.7179ZM49.5523 16.7179L48.1323 19.5904L44.9575 20.0513L47.2549 22.2873L46.7123 25.444L49.5523 23.9537L52.3918 25.444L51.8491 22.2873L54.1465 20.0513L50.9718 19.5904L49.5523 16.7179ZM65.644 10.2568L68.0103 15.0442L73.3019 15.812L69.4724 19.5384L70.3766 24.8009L65.644 22.3163L60.9113 24.8009L61.8155 19.5384L57.9861 15.812L63.2777 15.0442L65.644 10.2568Z" fill="#F8B64C"/>
<path fill-rule="evenodd" clip-rule="evenodd" d="M65.6442 10.2568L68.0105 15.0442L73.3021 15.812L69.4726 19.5384L70.3769 24.8009L65.6442 22.3163L60.9116 24.8009L61.8158 19.5384L57.9863 15.812L63.2779 15.0442L65.6442 10.2568Z" fill="#FFA829"/>
<path fill-rule="evenodd" clip-rule="evenodd" d="M81.7358 16.7183L83.1558 19.5907L86.3306 20.0516L84.0332 22.2876L84.5758 25.4444L81.7358 23.954L78.8963 25.4444L79.439 22.2876L77.1416 20.0516L80.3163 19.5907L81.7358 16.7183Z" fill="#F8B64C"/>
<path fill-rule="evenodd" clip-rule="evenodd" d="M89.061 25.3594L89.9126 27.0831L91.8178 27.3595L90.4394 28.7006L90.7647 30.595L89.061 29.7011L87.3573 30.595L87.6826 28.7006L86.3047 27.3595L88.2094 27.0831L89.061 25.3594Z" fill="#FFD15C"/>
<path fill-rule="evenodd" clip-rule="evenodd" d="M49.5527 16.7183L48.1327 19.5907L44.958 20.0516L47.2554 22.2876L46.7127 25.4444L49.5527 23.954L52.3922 25.4444L51.8496 22.2876L54.147 20.0516L50.9722 19.5907L49.5527 16.7183Z" fill="#F8B64C"/>
<path fill-rule="evenodd" clip-rule="evenodd" d="M42.227 25.3594L41.3754 27.0831L39.4707 27.3595L40.8486 28.7006L40.5233 30.595L42.227 29.7011L43.9307 30.595L43.6054 28.7006L44.9839 27.3595L43.0786 27.0831L42.227 25.3594Z" fill="#FFD15C"/>
<path fill-rule="evenodd" clip-rule="evenodd" d="M0 69.7964H14.6084V92.1101H0L4.68895 81.6319L0 69.7964ZM129.851 69.7964H115.243V92.1101H129.851L125.163 81.6319L129.851 69.7964Z" fill="#2C72C6"/>
<path fill-rule="evenodd" clip-rule="evenodd" d="M7.36914 62.1417L14.7707 70.0899V92.1078L7.36914 84.7181V62.1417ZM122.632 62.1367L115.243 69.7594V92.0731L122.632 84.7348V62.1367Z" fill="#3D597A"/>
<path fill-rule="evenodd" clip-rule="evenodd" d="M7.22168 84.5975H122.493L122.481 61.9971H7.22168V84.5975Z" fill="#4385F4"/>
<path fill-rule="evenodd" clip-rule="evenodd" d="M40.3074 71.42H39.3015V67.4433H37.896V66.614H41.7162V67.4433H40.3074V71.42ZM44.4406 66.5308C45.8627 66.5308 46.7587 67.4866 46.7587 69.0187C46.7587 70.5474 45.8627 71.5033 44.4406 71.5033C43.0151 71.5033 42.1225 70.5474 42.1225 69.0187C42.1225 67.4866 43.0151 66.5308 44.4406 66.5308ZM44.4406 67.3701C43.6546 67.3701 43.1483 68.0095 43.1483 69.0187C43.1483 70.0245 43.6512 70.6607 44.4406 70.6607C45.2266 70.6607 45.7295 70.0245 45.7295 69.0187C45.7295 68.0095 45.2266 67.3701 44.4406 67.3701ZM47.4048 66.614H49.4098C50.3956 66.614 51.0751 67.2701 51.0751 68.2593C51.0751 69.2452 50.3723 69.9046 49.3598 69.9046H48.4106V71.42H47.4048V66.614ZM48.4106 67.41V69.1186H49.14C49.7162 69.1186 50.0526 68.8122 50.0526 68.2627C50.0526 67.7164 49.7195 67.41 49.1433 67.41H48.4106ZM58.2224 66.614V71.42H57.3265V68.1761H57.2999L55.9943 71.3734H55.3615L54.0559 68.1761H54.0293V71.42H53.1333V66.614H54.299L55.6646 70.0212H55.6912L57.0567 66.614H58.2224ZM61.19 66.5308C62.6121 66.5308 63.508 67.4866 63.508 69.0187C63.508 70.5474 62.6121 71.5033 61.19 71.5033C59.7645 71.5033 58.8719 70.5474 58.8719 69.0187C58.8719 67.4866 59.7645 66.5308 61.19 66.5308ZM61.19 67.3701C60.404 67.3701 59.8977 68.0095 59.8977 69.0187C59.8977 70.0245 60.4006 70.6607 61.19 70.6607C61.976 70.6607 62.4789 70.0245 62.4789 69.0187C62.4789 68.0095 61.976 67.3701 61.19 67.3701ZM66.3124 71.42H64.1542V66.614H66.2757C67.1783 66.614 67.7445 67.077 67.7445 67.813C67.7445 68.3393 67.3515 68.7789 66.8419 68.8555V68.8821C67.4947 68.9321 67.9743 69.4084 67.9743 70.0445C67.9743 70.8905 67.3382 71.42 66.3124 71.42ZM65.16 67.3634V68.6124H65.9127C66.4489 68.6124 66.7553 68.3759 66.7553 67.9696C66.7553 67.5832 66.4856 67.3634 66.016 67.3634H65.16ZM65.16 70.6706H66.0559C66.6354 70.6706 66.9485 70.4242 66.9485 69.9646C66.9485 69.5149 66.6254 69.2751 66.0326 69.2751H65.16V70.6706ZM69.553 71.42H68.5472V66.614H69.553V71.42ZM73.4598 70.5874V71.42H70.3523V66.614H71.3582V70.5874H73.4598ZM77.2399 70.5874V71.42H74.0559V66.614H77.2399V67.4433H75.0618V68.6024H77.1167V69.3751H75.0618V70.5874H77.2399ZM82.5788 71.42L82.2125 70.2543H80.5239L80.1575 71.42H79.125L80.7936 66.614H81.976L83.6479 71.42H82.5788ZM81.3565 67.5333L80.7404 69.5016H81.996L81.3798 67.5333H81.3565ZM84.1375 66.614H86.1425C87.1284 66.614 87.8078 67.2701 87.8078 68.2593C87.8078 69.2452 87.1051 69.9046 86.0926 69.9046H85.1434V71.42H84.1375V66.614ZM85.1434 67.41V69.1186H85.8727C86.4489 69.1186 86.7853 68.8122 86.7853 68.2627C86.7853 67.7164 86.4523 67.41 85.8761 67.41H85.1434ZM88.4007 66.614H90.4056C91.3915 66.614 92.0709 67.2701 92.0709 68.2593C92.0709 69.2452 91.3682 69.9046 90.3557 69.9046H89.4065V71.42H88.4007V66.614ZM89.4065 67.41V69.1186H90.1359C90.7121 69.1186 91.0484 68.8122 91.0484 68.2627C91.0484 67.7164 90.7154 67.41 90.1392 67.41H89.4065ZM22.9668 74.6387H24.8186C26.2607 74.6387 27.11 75.498 27.11 77.0234C27.11 78.5488 26.2607 79.4447 24.8186 79.4447H22.9668V74.6387ZM23.9726 75.468V78.6121H24.6987C25.5979 78.6121 26.0842 78.0659 26.0842 77.0267C26.0842 76.0209 25.5846 75.468 24.6987 75.468H23.9726ZM30.9402 78.6121V79.4447H27.7561V74.6387H30.9402V75.468H28.762V76.6271H30.8169V77.3998H28.762V78.6121H30.9402ZM34.1875 79.4447H32.9751L31.3598 74.6387H32.4855L33.5846 78.4089H33.6079L34.707 74.6387H35.8028L34.1875 79.4447ZM39.4764 78.6121V79.4447H36.2924V74.6387H39.4764V75.468H37.2982V76.6271H39.3532V77.3998H37.2982V78.6121H39.4764ZM43.3099 78.6121V79.4447H40.2024V74.6387H41.2083V78.6121H43.3099ZM46.0742 74.5555C47.4964 74.5555 48.3923 75.5113 48.3923 77.0434C48.3923 78.5721 47.4964 79.528 46.0742 79.528C44.6487 79.528 43.7562 78.5721 43.7562 77.0434C43.7562 75.5113 44.6487 74.5555 46.0742 74.5555ZM46.0742 75.3948C45.2882 75.3948 44.782 76.0342 44.782 77.0434C44.782 78.0492 45.2849 78.6853 46.0742 78.6853C46.8602 78.6853 47.3631 78.0492 47.3631 77.0434C47.3631 76.0342 46.8602 75.3948 46.0742 75.3948ZM49.0384 74.6387H51.0434C52.0293 74.6387 52.7087 75.2948 52.7087 76.284C52.7087 77.2699 52.006 77.9293 50.9935 77.9293H50.0443V79.4447H49.0384V74.6387ZM50.0443 75.4347V77.1433H50.7736C51.3498 77.1433 51.6862 76.8369 51.6862 76.2873C51.6862 75.7411 51.3532 75.4347 50.777 75.4347H50.0443ZM58.3906 74.6387V79.4447H57.4947V76.2008H57.4681L56.1625 79.3981H55.5297L54.2241 76.2008H54.1975V79.4447H53.3015V74.6387H54.4672L55.8328 78.0459H55.8594L57.2249 74.6387H58.3906ZM62.374 78.6121V79.4447H59.19V74.6387H62.374V75.468H60.1958V76.6271H62.2508V77.3998H60.1958V78.6121H62.374ZM64.0626 79.4447H63.1V74.6387H63.9393L66.1841 77.7694H66.2108V74.6387H67.1733V79.4447H66.3407L64.0926 76.2973H64.0626V79.4447ZM70.1442 79.4447H69.1384V75.468H67.7329V74.6387H71.553V75.468H70.1442V79.4447ZM75.6996 79.528C74.3007 79.528 73.4248 78.5921 73.4248 77.0401C73.4248 75.4913 74.3074 74.5555 75.6996 74.5555C76.8553 74.5555 77.7345 75.2882 77.8111 76.3639H76.8319C76.7387 75.7744 76.2857 75.3881 75.6996 75.3881C74.9402 75.3881 74.4506 76.0242 74.4506 77.0367C74.4506 78.0625 74.9335 78.6953 75.7029 78.6953C76.2991 78.6953 76.7287 78.3456 76.8353 77.7761H77.8145C77.7012 78.8485 76.8786 79.528 75.6996 79.528ZM80.6021 74.5555C82.0243 74.5555 82.9202 75.5113 82.9202 77.0434C82.9202 78.5721 82.0243 79.528 80.6021 79.528C79.1767 79.528 78.2841 78.5721 78.2841 77.0434C78.2841 75.5113 79.1767 74.5555 80.6021 74.5555ZM80.6021 75.3948C79.8161 75.3948 79.3099 76.0342 79.3099 77.0434C79.3099 78.0492 79.8128 78.6853 80.6021 78.6853C81.3882 78.6853 81.8911 78.0492 81.8911 77.0434C81.8911 76.0342 81.3882 75.3948 80.6021 75.3948ZM88.6554 74.6387V79.4447H87.7595V76.2008H87.7329L86.4273 79.3981H85.7945L84.4889 76.2008H84.4623V79.4447H83.5663V74.6387H84.732L86.0976 78.0459H86.1242L87.4897 74.6387H88.6554ZM89.4548 74.6387H91.4598C92.4456 74.6387 93.125 75.2948 93.125 76.284C93.125 77.2699 92.4223 77.9293 91.4098 77.9293H90.4606V79.4447H89.4548V74.6387ZM90.4606 75.4347V77.1433H91.19C91.7662 77.1433 92.1026 76.8369 92.1026 76.2873C92.1026 75.7411 91.7695 75.4347 91.1933 75.4347H90.4606ZM96.8653 79.4447L96.4989 78.279H94.8103L94.4439 79.4447H93.4115L95.0801 74.6387H96.2624L97.9344 79.4447H96.8653ZM95.643 75.558L95.0268 77.5263H96.2824L95.6663 75.558H95.643ZM99.3865 79.4447H98.424V74.6387H99.2633L101.508 77.7694H101.535V74.6387H102.497V79.4447H101.665L99.4165 76.2973H99.3865V79.4447ZM105.668 79.4447H104.662V77.6495L102.99 74.6387H104.086L105.162 76.6903H105.185L106.264 74.6387H107.343L105.668 77.6495V79.4447Z" fill="white"/>
</svg>
