<svg version="1.2" xmlns="http://www.w3.org/2000/svg" viewBox="0 0 215 96" width="215" height="96"><style>.a{fill:#09489d}.b{fill:#fff}</style><path fill-rule="evenodd" class="a" d="m29.5 38.9h-20.4c0.3 1.5 1 3.1 2.2 4.2 1.3 1.6 3.9 2.7 6.1 2.9 2.3 0.2 5.1-0.4 6.7-1.6 1.3-1.4 4-1.2 4.8-0.2 0.8 0.9 1.5 2.8 0 4.2-3.1 2.9-6.9 4.2-11.5 4.2-8.8 0-15.6-7.3-15.6-16 0-8.8 6.8-16.1 15.6-16.1 8.4 0 15 6.3 15.5 14.9 0 0.1 0 0.2 0 0.3 0 0.2 0 0.5-0.1 0.6-0.2 1.6-1.5 2.6-3.3 2.6zm-2.6-5.5c-0.6-2.5-3.9-6.3-9.5-6.8-5.4 0.3-8.1 4.2-8.6 6.8z"/><path class="a" d="m90.2 43c-1.5-1.3-1.7-3-1.7-4.4v-13.4c0-2.5-1.5-4.2-3.7-4.2-1.2 0-2.1 0.4-2.8 1.2-0.7 0.8-1 1.9-1 3.1v14.4c0 1.9 0.3 4.7 2 6.9 2.6 3.3 6.8 5.2 11.3 5.2 4.6 0 8.8-1.9 11.2-5.2 1.4-1.7 2.1-3.9 2.1-6.9v-14.5c0-1.2-0.4-2.2-1-3-0.7-0.8-1.6-1.2-2.7-1.2-1.1 0-2.1 0.4-2.8 1.2-0.6 0.8-1 1.9-1 3.1v13.3c0 1.9-0.5 3.4-1.7 4.4-1.1 1.1-2.6 1.7-4.1 1.7-1.6 0-3-0.6-4.1-1.7z"/><path class="a" d="m41.8 51.6c1.2 0 2.1-0.4 2.8-1.2 0.6-0.8 1-1.9 1-3.2v-35.6c0-2.5-1.5-4.2-3.8-4.2-1.1 0-2.1 0.4-2.7 1.2-0.7 0.8-1 1.9-1 3.1v35.5c0 2.2 1.2 4.4 3.7 4.4z"/><path class="a" d="m127.2 27c1.9 0 3.4 0.7 4.5 2 0.9 1.1 1.5 2.8 1.5 4.5v13.7c0 2.2 1.3 4.4 3.7 4.4 1.2 0 2.1-0.4 2.8-1.2 0.7-0.8 1-1.9 1-3.2v-15.8c0-3.2-0.5-5.8-3.1-8-1.8-1.7-4.3-2.6-7.3-2.6-1.7 0-3 0.3-4.2 0.8-1.2 0.5-2.4 1.2-3.6 2.4l-0.8 0.8-0.5-1.1c-0.7-1.7-1.9-2.7-3.4-2.7h-0.3c-1.1 0-2 0.5-2.7 1.4-0.6 0.8-0.9 1.9-0.9 3.1v21.7c0 2.2 1.3 4.4 3.7 4.4 1.2 0 2.1-0.4 2.8-1.2 0.7-0.8 1-1.9 1-3.2v-14.1c0-2.9 2.3-6.1 5.8-6.1z"/><path class="a" d="m201.7 23.6c-2.4-2.3-5.5-2.7-7.6-2.7-2.5 0-5 0.8-7.8 2.4l-1.2 0.7v-12.4c0-2.5-1.6-4.2-3.8-4.2-1.1 0-2.1 0.4-2.8 1.2-0.6 0.8-1 1.9-1 3.1v35.5c0 2.2 1.3 4.4 3.8 4.4 1.2 0 2.1-0.4 2.8-1.2 0.6-0.8 1-1.9 1-3.2v-13.8c0-3 2.2-6.4 5.8-6.4 2.1 0 3.7 0.8 4.7 2.3 0.9 1.2 1.3 2.8 1.3 4.7v13.2c0 2.2 1.3 4.4 3.8 4.4q1.8 0 2.8-1.2c0.6-0.8 1-1.9 1-3.2v-15.6c0-3.8-0.8-6.1-2.8-8z"/><path class="a" d="m165.4 28.3h0.1c1.1 0.6 2 0.9 2.9 1h0.3v0.1c0.6-0.1 1.2-0.5 1.7-1.2 0.5-0.7 0.8-1.6 0.8-2.5 0-1.7-1.1-3-3.5-3.9-2.5-1-5.5-1.1-6.3-1.1-3.6 0-7.4 1.5-10 4-2.8 2.6-4.4 6.7-4.4 11.3 0 4.9 1.2 8.5 3.9 11.3 2.7 3 6.3 4.4 10.9 4.4 1.5 0 3.9-0.3 6.1-1.3 1.6-0.8 3.4-2.1 3.4-4.3 0-1.6-1.3-2.9-3.1-2.9-0.6 0-1.2 0.3-1.9 0.6l-0.3 0.1c-1.1 0.6-2.5 0.9-3.6 0.9-2.5 0-4.5-0.8-6-2.5-1.3-1.5-2-3.6-2-6 0-1.8 0.4-4.3 2.3-6.4 1.3-1.4 3.1-2.2 5.1-2.2 1.1-0.1 2.3 0.2 3.6 0.6z"/><path class="b" d="m51.8 50.9c1.5 1.2 3.7 0.7 4.5-1l7.7-16 7.7 16c0.8 1.7 3 2.2 4.5 1l0.6-0.5c1.1-0.8 1.5-2.3 0.9-3.6l-11-23.9c-1-2.4-4.3-2.4-5.4 0l-11 23.9c-0.6 1.3-0.2 2.8 0.9 3.6z"/><path fill-rule="evenodd" class="b" d="m5.8 83.4l0.8-1.6c1 1 2.8 1.7 4.6 1.7 2.4 0 3.4-1 3.4-2.2 0-3.4-8.4-1.3-8.4-6.5 0-2.1 1.6-4 5.3-4 1.7 0 3.4 0.5 4.5 1.3l-0.6 1.6c-1.3-0.8-2.6-1.2-3.9-1.2-2.4 0-3.4 1-3.4 2.3 0 3.4 8.5 1.2 8.5 6.4 0 2.1-1.7 4-5.4 4-2.2 0-4.3-0.8-5.4-1.8zm12.6-5.4c0-4.1 3.1-7.2 7.4-7.2 4.3 0 7.5 3.1 7.5 7.2 0 4.1-3.2 7.2-7.5 7.2-4.3 0-7.4-3.1-7.4-7.2zm12.9 0c0-3.1-2.4-5.4-5.5-5.4-3.1 0-5.4 2.3-5.4 5.4 0 3.1 2.3 5.4 5.4 5.4 3.1 0 5.5-2.3 5.5-5.4zm5-7h2v12.3h7.6v1.7h-9.6zm11.5 8v-8h2v7.9c0 3.1 1.5 4.5 4 4.5 2.5 0 3.9-1.4 3.9-4.5v-7.9h2v8c0 4-2.2 6.2-5.9 6.2-3.7 0-6-2.2-6-6.2zm18.5-6.3h-4.8v-1.7h11.6v1.7h-4.8v12.3h-2zm9-1.7h2v14h-2zm5 7c0-4.1 3.2-7.2 7.5-7.2 4.2 0 7.4 3 7.4 7.2 0 4.1-3.2 7.1-7.4 7.1-4.3 0-7.5-3-7.5-7.1zm12.9 0c0-3.1-2.3-5.4-5.4-5.4-3.2 0-5.5 2.3-5.5 5.4 0 3.1 2.3 5.3 5.5 5.3 3.1 0 5.4-2.2 5.4-5.3zm17.1-7v14h-1.6l-8.4-10.5v10.5h-2v-14h1.6l8.4 10.4v-10.4zm20.9 4.8c0 3.1-2.2 4.9-5.9 4.9h-3.4v4.3h-2v-14h5.4c3.7 0 5.9 1.8 5.9 4.8zm-2 0c0-2-1.4-3.1-3.9-3.1h-3.4v6.3h3.4c2.5 0 3.9-1.2 3.9-3.2zm10.8 9.2h-2l-6.2-14h2.2l5 11.5 5.1-11.5h13.5v1.7h-4.8v12.3h-2v-12.3h-4.8v-1.5zm18-1.3c0-0.8 0.6-1.3 1.4-1.3 0.7 0 1.3 0.5 1.3 1.3 0 0.8-0.6 1.4-1.3 1.4-0.8 0-1.4-0.6-1.4-1.4zm11.1-12.7h2v12.2h7.6v1.8h-9.6zm13.3 1.7h-4.8v-1.7h11.6v1.7h-4.8v12.3h-2zm9-1.8h5.9c4.5 0 7.5 2.9 7.5 7 0 4.2-3 7-7.5 7h-5.9zm5.8 12.3c3.4 0 5.6-2.1 5.6-5.3 0-3.1-2.2-5.2-5.6-5.2h-3.8v10.5zm9.2 0.5c0-0.8 0.6-1.4 1.3-1.4 0.7 0 1.3 0.6 1.3 1.4 0 0.8-0.6 1.4-1.3 1.4-0.7 0-1.3-0.6-1.3-1.4z"/></svg>