<?xml version="1.0" standalone="no"?>
<!DOCTYPE svg PUBLIC "-//W3C//DTD SVG 1.1//EN" "http://www.w3.org/Graphics/SVG/1.1/DTD/svg11.dtd" >
<svg xmlns="http://www.w3.org/2000/svg">
<metadata>Generated by IcoMoon</metadata>
<defs>
<font id="icomoon" horiz-adv-x="1024">
<font-face units-per-em="1024" ascent="960" descent="-64" />
<missing-glyph horiz-adv-x="1024" />
<glyph unicode="&#x20;" horiz-adv-x="512" d="" />
<glyph unicode="&#xe900;" glyph-name="title_icon" horiz-adv-x="949" d="M62.509-41.91c50.271-39.547 124.673-22.119 152.155 35.525l258.060 534.886 258.060-534.886c28.151-57.645 101.883-75.072 152.155-35.525l20.779 16.086c36.865 28.822 48.93 79.093 29.492 121.322l-369.327 805.682c-35.525 78.423-146.793 78.423-182.988 0l-369.327-805.682c-19.438-42.228-7.373-92.499 29.493-121.322l21.449-16.086z" />
<glyph unicode="&#xe901;" horiz-adv-x="2357" d="M413.984 572.602c0.638 1.276 0.638 4.89 0.638 6.165s0 2.765 0 3.403c-5.529 92.492-75.907 158.831-164.784 158.831-93.767 0-166.273-78.034-166.911-171.164 0.638-93.13 73.143-170.525 166.911-171.163 48.478 0 88.877 14.459 122.471 45.29 15.734 14.459 8.93 34.87 0 44.438-8.93 11.056-36.997 12.97-51.243-2.127-17.010-12.97-46.565-19.136-71.229-17.009-24.027 2.126-51.243 14.458-65.701 30.83-12.333 11.695-19.774 29.343-23.177 45.29h217.515c19.137-0.213 33.382 10.844 35.509 27.216zM157.558 603.431c5.529 28.067 34.233 69.741 92.279 72.506 59.534-4.891 94.404-45.29 101.209-72.506h-193.488z" />
<glyph unicode="&#xe902;" horiz-adv-x="2357" d="M1025.703 501.373c-15.309 13.607-17.223 32.319-17.223 46.99v142.459c0 26.79-16.585 45.502-40.186 45.502-12.332 0-22.538-4.465-29.767-13.183-6.804-8.080-10.631-19.774-10.631-32.531v-154.154c0-20.624 3.827-50.179 21.901-73.993 27.216-34.233 71.867-54.645 119.921-54.645 49.12 0 93.771 20.413 119.712 54.645l0.203 0.212c14.677 17.86 21.696 41.887 21.696 73.78v154.366c0 12.757-3.616 24.239-10.421 32.531-7.019 8.506-16.8 12.971-28.491 12.971-12.331 0-22.539-4.465-29.771-13.183-6.805-8.080-10.635-19.774-10.635-32.531v-142.459c0-20.412-5.952-35.934-18.496-46.99-11.904-11.907-27.211-18.074-44.011-18.074-16.798 0.212-31.894 6.379-43.801 18.286z" />
<glyph unicode="&#xe903;" horiz-adv-x="2357" d="M510.093 409.307c12.332 0 22.538 4.465 29.767 13.183 6.803 8.292 10.63 20.199 10.63 33.595v379.747c0 26.791-16.585 45.502-40.186 45.502-12.333 0-22.539-4.465-29.767-13.183-6.804-8.080-10.631-19.774-10.631-32.531v-379.535c0-23.177 13.821-46.778 40.187-46.778z" />
<glyph unicode="&#xe904;" horiz-adv-x="2357" d="M1420.544 671.691c19.989 0 36.576-7.23 48.053-21.050 10.208-12.119 15.733-29.343 15.733-48.053v-146.498c0-23.389 13.824-46.778 40.181-46.778 12.341 0 22.539 4.465 29.771 13.183 6.805 8.292 10.635 20.199 10.635 33.595v168.823c0 34.658-5.525 62.512-32.747 85.901-19.989 17.86-46.56 26.79-78.667 26.79-17.653 0-31.893-2.551-44.864-7.868-12.757-5.315-24.672-13.395-37.643-25.515l-9.141-8.718-4.672 11.695c-7.445 18.286-20.843 28.917-37.003 28.917h-2.549c-12.117-0.426-21.899-5.529-28.917-14.672-6.592-8.505-10.208-20.412-10.208-33.595v-231.76c0-23.389 13.824-46.778 40.192-46.778 12.331 0 22.539 4.465 29.76 13.183 6.805 8.292 10.635 20.199 10.635 33.595v150.325c0.213 31.469 24.875 65.276 61.451 65.276z" />
<glyph unicode="&#xe905;" horiz-adv-x="2357" d="M2215.125 708.257c-25.728 24.239-58.261 29.342-81.227 29.342-25.941 0-52.939-8.718-82.709-26.365l-12.971-7.655v132.253c0 26.791-16.587 45.502-40.181 45.502-12.331 0-22.539-4.465-29.771-13.183-6.805-8.080-10.635-19.774-10.635-32.531v-379.535c0-23.389 13.824-46.778 40.192-46.778 12.331 0 22.539 4.465 29.76 13.183 6.805 8.292 10.635 20.199 10.635 33.595v147.562c0 32.531 23.819 67.827 62.517 67.827 21.685 0 38.901-8.080 49.963-23.601 9.141-12.758 14.037-30.193 14.037-50.818v-140.97c0-23.389 13.813-46.778 40.181-46.778 12.544 0 22.539 4.465 29.771 13.183 6.805 8.292 10.624 20.199 10.624 33.595v167.335c0.213 39.973-8.715 64.426-30.187 84.837z" />
<glyph unicode="&#xe906;" horiz-adv-x="2357" d="M1828.789 658.074l1.056-0.426c11.275-5.741 20.629-8.718 30.197-9.78l2.976-0.426 0.64-0.638c6.379 1.063 12.544 5.315 17.429 12.119 5.536 7.654 9.141 17.86 9.141 26.578 0 18.074-12.331 32.319-36.992 41.887-27.424 10.844-58.901 11.695-67.829 11.695-38.699 0-78.24-15.948-106.101-42.525-30.613-28.279-47.413-71.018-47.413-120.346 0-52.094 13.184-90.366 41.248-120.771 29.557-31.893 67.616-47.415 116.309-47.415 15.947 0 42.528 3.827 65.493 14.671 16.789 7.868 36.565 22.113 36.565 45.29 0 17.648-14.453 31.043-33.589 31.043-6.379 0-12.128-2.551-19.989-5.954l-2.763-1.276c-12.757-6.379-27.008-9.993-39.125-9.993-26.368 0-48.267 9.142-63.36 26.578-14.037 16.159-21.483 38.698-21.483 64.85 0 18.71 4.256 45.714 24.672 67.615 13.6 15.095 33.163 23.813 53.792 23.813 12.117 0.426 24.875-1.914 39.125-6.591z" />
<glyph unicode="&#xe907;" horiz-adv-x="2357" d="M616.61 416.961c15.947-12.545 39.548-7.017 48.266 11.268l81.86 169.675 81.86-169.675c8.93-18.285 32.319-23.813 48.266-11.268l6.592 5.103c11.694 9.142 15.521 25.089 9.356 38.484l-117.156 255.575c-11.269 24.877-46.565 24.877-58.047 0l-117.156-255.575c-6.165-13.395-2.338-29.342 9.356-38.484l6.804-5.103z" />
<glyph unicode="&#xe908;" horiz-adv-x="2357" d="M183.253 51.627c39.467 0 57.813 19.627 57.813 42.453 0 54.827-90.453 32-90.453 68.48 0 13.013 10.88 23.68 36.267 23.68 13.227 0 27.947-3.84 40.96-12.16l7.040 17.067c-12.373 8.533-30.507 13.227-48 13.227-39.253 0-57.173-19.627-57.173-42.667 0-55.467 90.453-32.427 90.453-68.907 0-13.013-11.093-23.040-36.907-23.040-19.2 0-38.187 7.253-49.28 17.28l-7.893-16.64c11.947-11.093 34.347-18.773 57.173-18.773zM339.647 51.627c45.44 0 79.147 32.427 79.147 76.373s-33.707 76.373-79.147 76.373c-45.867 0-79.573-32.64-79.573-76.373s33.707-76.373 79.573-76.373zM339.647 70.613c-33.493 0-58.24 24.32-58.24 57.387s24.747 57.387 58.24 57.387c33.067 0 57.813-24.32 57.813-57.387s-24.747-57.387-57.813-57.387zM451.401 53.333h102.187v18.56h-80.853v130.773h-21.333v-149.333zM637.434 51.627c39.467 0 63.147 22.827 63.147 66.133v84.907h-20.693v-84.053c0-33.067-15.36-48-42.24-48s-42.027 14.933-42.027 48v84.053h-21.333v-84.907c0-43.307 23.893-66.133 63.147-66.133zM771.262 53.333h21.12v130.773h51.2v18.56h-123.52v-18.56h51.2v-130.773zM866.817 53.333h21.333v149.333h-21.333v-149.333zM1000.272 51.627c45.44 0 79.141 32.427 79.141 76.373s-33.701 76.373-79.141 76.373c-45.867 0-79.573-32.64-79.573-76.373s33.707-76.373 79.573-76.373zM1000.272 70.613c-33.493 0-58.24 24.32-58.24 57.387s24.747 57.387 58.24 57.387c33.067 0 57.813-24.32 57.813-57.387s-24.747-57.387-57.813-57.387zM1219.115 202.667v-111.36l-89.6 111.36h-17.493v-149.333h21.333v111.36l89.6-111.36h17.493v149.333h-21.333zM1400.683 202.667h-58.24v-149.333h21.333v45.227h36.907c38.827 0 62.293 19.627 62.293 52.053s-23.467 52.053-62.293 52.053zM1400.043 117.12h-36.267v66.987h36.267c27.307 0 41.6-12.16 41.6-33.493s-14.293-33.493-41.6-33.493zM1601.227 202.667l-54.187-122.667-53.76 122.667h-23.040l65.707-149.333h21.12l65.493 149.333h-21.333zM1672.725 53.333h21.12v130.773h51.2v18.56h-123.52v-18.56h51.2v-130.773zM1763.317 52.053c7.68 0 14.080 6.187 14.080 14.72s-6.4 14.507-14.080 14.507c-7.893 0-14.507-5.973-14.507-14.507s6.613-14.72 14.507-14.72zM1867.029 53.333h102.187v18.56h-80.853v130.773h-21.333v-149.333zM2009.387 53.333h21.12v130.773h51.2v18.56h-123.52v-18.56h51.2v-130.773zM2104.939 53.333h62.933c48 0 80.64 30.293 80.64 74.667s-32.64 74.667-80.64 74.667h-62.933v-149.333zM2126.272 71.893v112.213h40.32c36.907 0 60.587-22.613 60.587-56.107s-23.68-56.107-60.587-56.107h-40.32zM2278.944 52.053c7.68 0 14.080 6.187 14.080 14.72s-6.4 14.507-14.080 14.507c-7.893 0-14.507-5.973-14.507-14.507s6.613-14.72 14.507-14.72z" />
<glyph unicode="&#xe909;" horiz-adv-x="1040" d="M431.745 26.413c97.846 0 179.155 28.971 246.682 91.054 31.697 28.973 17.915 70.361 0 89.676-17.915 22.073-74.418 26.213-103.359-4.139-34.451-26.213-93.712-38.63-143.323-34.49-48.234 4.138-103.359 28.971-132.299 62.082-24.806 23.454-39.965 59.324-46.856 91.055h438.239c38.588 0 67.528 22.073 71.663 55.184 1.378 2.759 1.378 9.657 1.378 12.417s0 5.519 0 6.898c-11.025 186.247-152.97 320.070-332.125 320.070-188.802 0-334.882-157.276-336.26-344.903 1.378-187.628 147.458-343.524 336.26-344.903zM431.745 585.157c119.895-9.658 190.179-91.055 203.961-146.24h-390.006c11.025 56.564 68.906 140.721 186.045 146.24z" />
<glyph unicode="&#xe90a;" horiz-adv-x="1040" d="M538.070 823.615c-6.4-32.254 17.084-62.76 49.903-64.823l163.629-10.293c32.317-2.032 58.075-27.789 60.107-60.106l10.291-163.629c2.064-32.819 32.569-56.303 64.824-49.904 26.416 5.241 45.011 29.035 43.714 55.935l-12.677 262.762c-1.595 33.059-28.036 59.501-61.096 61.096l-262.762 12.677c-26.9 1.298-50.694-17.298-55.934-43.714z" />
<glyph unicode="&#xe90b;" glyph-name="arrow_right" d="M932.978 455.509c-0.394-8.738-2.908-16.967-7.075-23.161s-9.705-9.931-15.583-10.518h-910.32v33.678c0.362 8.697 2.849 16.896 6.994 23.056s9.661 9.858 15.511 10.395h887.967c5.839-0.585 11.337-4.296 15.476-10.447 4.137-6.151 6.636-14.325 7.029-23.004zM710.884 173.34l-50.29 50.517 250.994 229.148-251.676 229.148 50.972 50.29 301.284-279.438-301.284-279.666z" />
<glyph unicode="&#xe90c;" glyph-name="arrow_right1" d="M990.517 453.364c-0.892-12.911-11.145-23.163-23.975-24.051l-0.081-0.004h-966.461v24.056c0.82 12.853 11.041 23.073 23.819 23.89l0.074 0.004h942.73c12.821-0.892 23.002-11.072 23.889-23.813l0.005-0.081zM812.698 251.815l-35.921 36.084 179.281 163.677-179.769 163.677 36.409 35.921 215.203-199.599z" />
<glyph unicode="&#xe90d;" glyph-name="automative_icn" d="M733.999 729.66v8.341c0 122.419-99.58 221.999-221.999 221.999s-221.999-99.58-221.999-221.999v-8.341c8.864 0.591 436.425 0.503 443.998 0zM576 864c17.679 0 32-14.32 32-32s-14.321-32-32-32c-17.679 0-32 14.32-32 32s14.321 32 32 32zM448 864c17.679 0 32-14.32 32-32s-14.321-32-32-32c-17.681 0-32 14.32-32 32s14.319 32 32 32zM413.999 512h196.002v-100h-196.002v100zM909.6 619.328c0.578 3.682 0.399-11.467 0.399 181.672l52.002 39c7.552 5.666 11.998 14.556 11.998 24v66c0 16.568-13.431 30-29.999 30s-29.999-13.432-29.999-30v-51l-34.001-25.5-34.001 25.5v51c0 16.568-13.431 30-29.999 30s-29.999-13.432-29.999-30v-66c0-9.444 4.446-18.334 11.998-24l52.002-39c0-191.421-0.183-177.958 0.399-181.672-14.43-4.674-27.364-12.659-37.899-23.081-7.676 41.89-44.431 73.751-88.501 73.751h-424c-44.070 0-80.826-31.861-88.502-73.749-10.534 10.419-23.468 18.406-37.898 23.081 0.578 3.682 0.4-11.467 0.4 181.672l52.001 38.998c7.552 5.666 11.998 14.556 11.998 24v66c0 16.568-13.431 30-29.999 30s-30-13.432-30-30v-51l-34-25.5-34 25.5v51c0 16.568-13.432 30-30 30s-30-13.432-30-30v-66c0-9.444 4.446-18.334 12-24l52-39c0-191.421-0.182-177.958 0.4-181.672-38.53-12.48-66.4-48.64-66.4-91.328 0-53.020 42.98-96 96-96 25.574 0 48.794 10.020 66 26.323v-178.822c4.62 0.339 9.3 0.499 14 0.499 617.286 0 580.023 0.235 589.999-0.499v178.822c17.207-16.303 40.427-26.323 66.001-26.323 53.020 0 96 42.98 96 96 0 42.688-27.87 78.848-66.4 91.328zM669.999 381.999c0-16.559-13.438-29.999-29.999-29.999h-256c-16.559 0-29.999 13.44-29.999 29.999v160c0 16.561 13.44 30.001 29.999 30.001h256c16.561 0 29.999-13.44 29.999-30.001v-160zM800 220h-576c-78.3 0-142-63.699-142-142.001 0-78.3 63.7-141.999 142-141.999h576c78.3 0 141.999 63.699 141.999 141.999 0 78.302-63.699 142.001-141.999 142.001zM142 77.999c0 45.22 36.78 82.001 82 82.001s82.001-36.781 82.001-82.001c0-45.218-36.781-81.999-82.001-81.999s-82 36.781-82 81.999zM800-4c-45.22 0-82.001 36.781-82.001 81.999 0 45.22 36.781 82.001 82.001 82.001s82.001-36.781 82.001-82.001c0-45.218-36.781-81.999-82.001-81.999zM224 45.999c17.673 0 32 14.327 32 32 0 17.675-14.327 32-32 32s-32-14.325-32-32c0-17.673 14.327-32 32-32zM800 45.999c17.673 0 32 14.327 32 32 0 17.675-14.327 32-32 32s-32-14.325-32-32c0-17.673 14.327-32 32-32z" />
<glyph unicode="&#xe90e;" glyph-name="delivery_main_icn" horiz-adv-x="1045" d="M74.67 703.989h224.018c6.304 0 12.546-1.242 18.37-3.654s11.115-5.948 15.573-10.404c4.457-4.459 7.994-9.749 10.406-15.573s3.652-12.066 3.652-18.37v-176.009c0-12.732-5.056-24.941-14.059-33.943s-21.214-14.061-33.943-14.061h-224.019c-12.731 0-24.941 5.058-33.943 14.061-9.002 9.001-14.060 21.212-14.060 33.941v176.009c0 6.304 1.242 12.546 3.654 18.37s5.948 11.117 10.406 15.573c4.458 4.459 9.75 7.994 15.574 10.406s12.066 3.654 18.37 3.654v0zM538.709 768c44.181 0 80 35.817 80 80s-35.819 80-80 80c-44.183 0-80-35.817-80-80s35.817-80 80-80zM202.708 386.359c0.005-24.845 9.774-48.689 27.201-66.396h260.111v66.481c-0.002 4.224-1.679 8.277-4.668 11.264-2.987 2.987-7.040 4.666-11.264 4.666h-255.45c-4.233-0.019-8.287-1.715-11.273-4.717s-4.66-7.066-4.658-11.298zM998.458 138.257c-7.802 28.847-25.297 54.129-49.547 71.593-24.247 17.466-53.771 26.050-83.603 24.309 2.507 9.346 3.799 18.976 3.844 28.653-0.301 15.341-4.322 30.381-11.716 43.827-7.396 13.444-17.943 24.894-30.739 33.365-34.364 22.788-60.053 80.753-63.936 141.726h30.643c12.67-0.006 24.823 5.015 33.796 13.961s14.033 21.084 14.067 33.754v31.774c-0.034 12.67-5.094 24.806-14.067 33.751-8.973 8.943-21.126 13.961-33.796 13.954h-109.431c-92.518 26.645-120.352 57.331-136.986 75.716-0.343 0.373-0.681 0.749-1.007 1.116 1.66 12.267-0.561 24.747-6.349 35.689-5.79 10.942-14.859 19.795-25.935 25.323-7.908 3.775-16.565 5.716-25.329 5.68-8.762-0.036-17.402-2.049-25.278-5.889-7.876-3.838-14.786-9.406-20.211-16.286-5.425-6.882-9.229-14.897-11.125-23.452l-45.909-219.364c-1.355-6.515-1.329-13.242 0.073-19.748 1.399-6.505 4.147-12.646 8.062-18.027s8.913-9.886 14.671-13.22c5.758-3.337 12.151-5.429 18.767-6.148l78.662-8.704c4.053-0.429 7.789-2.4 10.432-5.504s3.994-7.104 3.772-11.177l-12.397-209.694c-12.866 11.245-22.014 26.131-26.234 42.69-4.22 16.557-3.313 34.005 2.601 50.037h-244.565c-25.798-42.733-67.090-122.859-50.383-174.978 3.115-9.809 8.527-18.733 15.787-26.027 7.26-7.296 16.157-12.751 25.951-15.913 7.191-2.202 14.735-3.021 22.231-2.415 1.818-25.879 13.378-50.108 32.354-67.797 18.976-17.692 43.955-27.529 69.897-27.529s50.923 9.839 69.897 27.529c18.976 17.692 30.537 41.92 32.352 67.799l274.236 0.004c2.665 0.147 5.276 0.821 7.678 1.982 2.404 1.163 4.553 2.788 6.323 4.787 1.943-9.453 5.101-18.611 9.393-27.253 1.201-2.517 3.042-4.674 5.338-6.257 2.298-1.581 4.969-2.532 7.748-2.758 2.78-0.224 5.57 0.284 8.092 1.474s4.685 3.023 6.276 5.314c1.858 2.673 3.883 5.284 6.010 7.855 2.127-13.815 7.061-27.049 14.496-38.886 7.437-11.836 17.216-22.027 28.74-29.939 11.522-7.915 24.542-13.387 38.259-16.077 13.717-2.692 27.84-2.547 41.5 0.427 13.66 2.972 26.564 8.71 37.922 16.86s20.926 18.539 28.117 30.526c7.189 11.987 11.851 25.321 13.694 39.177s0.828 27.945-2.978 41.395c4.126 0.448 7.908 2.507 10.528 5.726 2.618 3.219 3.863 7.343 3.462 11.473-0.606 8.049-1.995 16.019-4.149 23.797zM355.52 5.165c-17.481 0-34.338 6.494-47.3 18.221s-21.105 27.851-22.85 45.244l140.309 0.002c-1.747-17.393-9.892-33.519-22.857-45.246s-29.822-18.221-47.302-18.221zM665.715 179.94h-62.159l27.484 259.834c1.099 10.524-1.331 21.114-6.91 30.106s-13.986 15.872-23.904 19.561l-78.404 29.261c-3.605 1.338-6.601 3.938-8.431 7.317s-2.372 7.309-1.523 11.057l11.93 51.441c40.789-32.523 90.033-52.689 141.918-58.116v-350.46zM899.091 0.437c-10.615-1.395-21.408-0.361-31.565 3.031-10.155 3.39-19.407 9.045-27.055 16.538s-13.491 16.629-17.088 26.714-4.851 20.853-3.674 31.497l4.875 6.065c36.64 22.714 80.299 31.3 122.81 24.158l3.78-2.918c5.809-10.050 9.043-21.38 9.414-32.983 0.373-11.603-2.131-23.119-7.285-33.519-5.156-10.402-12.802-19.369-22.261-26.099s-20.435-11.019-31.951-12.482z" />
<glyph unicode="&#xe90f;" glyph-name="education_icn" horiz-adv-x="1045" d="M588.397 250.112c-18.225-11.177-41.566-17.335-65.724-17.335-24.156 0-47.497 6.155-65.722 17.335l-297.553 182.492c0 0-26.857 16.461-26.857-20.832 0-42.349 0-169.395 0-169.395 0-1.694 0-10.197 0-12.834 0-95.996 174.665-199.484 390.125-199.484 215.458 0 390.125 103.486 390.125 199.484 0 2.637 0 11.14 0 12.834 0 0 0 134.752 0 179.669 0 29.935-19.093 15.309-19.093 15.309l-305.301-187.243zM1017.519 577.76c22.863 14.022 22.863 36.969 0 50.991l-453.284 226.671c-22.863 14.021-60.275 14.021-83.14 0l-453.28-226.671c-22.863-14.020-22.863-36.966 0-50.991l453.28-278.001c22.865-14.022 60.277-14.022 83.14 0zM998.773 165.694c0 76.757 0 307.031 0 307.031s0.213 14.541-8.414 9.739c-6.923-3.851-23.891-13.31-29.869-18.509-6.901-5.999-5.346-19.462-5.346-19.462s0-209.101 0-278.799c0-3.957-3.401-5.847-5.022-6.801-15.669-9.212-26.206-26.217-26.206-45.709 0-29.295 23.746-53.045 53.043-53.045 29.295 0 53.043 23.75 53.043 53.045 0 19.567-10.613 36.625-26.383 45.813-1.568 0.915-4.847 2.741-4.847 6.697z" />
<glyph unicode="&#xe910;" glyph-name="erp_crp_icn" horiz-adv-x="1045" d="M322.541 233.85l9.129-14.447c-70.123-28.294-144.251-76.8-165.177-153.399-1.336-5.12-2.449-10.24-3.339-15.561-42.518 3.785-84.814 10.217-126.442 19.812-15.137 3.317-26.045 16.896-26.045 32.478v7.569c0.223 75.91 97.503 113.53 158.052 126.219 27.826-18.699 60.772-26.714 92.828-23.151 21.148 1.781 42.074 8.683 60.994 20.48zM247.75 450.447c52.538 0 96.612-44.075 96.612-96.61 0-49.421-38.733-91.27-86.816-96.39-3.339-0.222-6.455-0.446-9.796-0.446-52.757 0-96.834 44.077-96.834 96.836 0 46.080 33.837 85.481 77.467 94.607 6.234 1.335 12.689 2.003 19.366 2.003zM522.669 478.49c72.794 0 133.566-60.751 133.566-133.566s-60.772-133.564-133.566-133.564c-72.791 0-133.564 60.749-133.564 133.564s60.772 133.566 133.564 133.566zM839.678 26.15v-14.671c0-20.723-14.27-38.733-34.528-43.43-185.877-42.741-379.081-42.741-564.958 0-20.258 4.698-34.505 22.729-34.505 43.43v14.671c0 9.794 1.113 19.145 3.339 27.825 20.925 85.728 135.569 129.335 211.701 144.941 61.218-42.741 142.692-42.741 203.91 0 75.908-15.605 190.775-59.213 211.699-144.695 2.204-8.926 3.341-18.276 3.341-28.070zM1034.669 110.304v-7.569c0-15.584-10.908-29.184-26.046-32.501-41.628-9.594-83.923-16.028-126.441-19.812-0.668 4.431-1.559 8.683-2.916 12.89-19.569 77.914-94.609 127.554-165.6 156.070l9.129 14.447c18.921-11.797 39.846-18.699 61.216-20.48 32.034-3.561 65.003 4.452 92.606 23.151 60.548-12.465 157.828-50.287 158.052-126.195zM807.61 450.003c48.083-5.12 86.816-46.948 86.816-96.166 0-52.738-44.077-96.836-96.634-96.836-3.317 0-6.434 0.224-9.773 0.446-48.307 5.12-87.040 46.97-87.040 96.39 0 52.535 44.077 96.61 96.834 96.61 3.341 0 6.455-0.222 9.796-0.444zM218.355 492.523h-71.458c-11.13 0-20.703 8.459-22.038 19.812-3.784 31.164-3.784 62.775 0 94.163 1.336 11.13 10.908 19.588 22.038 19.588h71.458c7.791 36.064 22.037 70.345 41.85 101.289l-50.532 50.531c-7.791 8.014-8.682 20.703-1.558 29.384 19.367 24.932 41.85 47.193 66.56 66.783 8.905 6.901 21.594 6.233 29.606-1.781l50.31-50.532c31.164 19.812 65.446 34.059 101.286 41.85v71.457c0 11.353 8.459 20.925 19.59 22.261 31.388 3.562 62.997 3.562 94.385 0 11.13-1.336 19.59-10.908 19.59-22.261v-71.457c35.84-7.791 70.121-22.038 101.065-41.85l50.53 50.532c8.015 8.014 20.725 8.682 29.609 1.781 24.708-19.59 47.194-41.85 66.56-66.783 7.123-8.682 6.234-21.37-1.559-29.384l-50.532-50.531c19.812-30.944 34.061-65.225 41.852-101.289h71.456c11.132 0 20.704-8.459 22.039-19.588 3.785-31.388 3.785-62.999 0-94.163-1.335-11.354-10.908-19.812-22.039-19.812h-71.456l-0.224-0.668-14.468 2.447-1.536 0.224c-52.535 4.452-103.313-20.48-131.808-65.003l-1.536 2.671c70.345 85.483 57.879 211.701-27.603 282.046-85.481 70.122-211.699 57.656-281.822-27.825-60.772-73.685-60.772-180.314 0-254.221l-1.557-2.671c-25.824 40.514-70.569 65.225-118.652 65.446l-29.161-3.115-0.245 0.668z" />
<glyph unicode="&#xe911;" glyph-name="events_tickets_icn" d="M55.846 35.326h912.29c5.762 0 11.285 2.289 15.36 6.362 4.073 4.075 6.362 9.6 6.362 15.36v152.049c0 5.76-2.289 11.285-6.362 15.358-4.075 4.075-9.598 6.364-15.36 6.364h-43.441c-17.282 0-33.858 6.865-46.078 19.085-12.222 12.222-19.087 28.796-19.087 46.078s6.865 33.858 19.087 46.078c12.22 12.22 28.796 19.085 46.078 19.085h43.441c5.762 0 11.285 2.289 15.36 6.364 4.073 4.073 6.362 9.598 6.362 15.358v152.049c0 5.76-2.289 11.285-6.362 15.36-4.075 4.073-9.598 6.362-15.36 6.362h-912.29c-5.761 0-11.286-2.289-15.359-6.362-4.074-4.075-6.362-9.6-6.362-15.36v-152.049c0-5.76 2.288-11.285 6.362-15.358 4.073-4.075 9.598-6.364 15.359-6.364h43.443c17.282 0 33.857-6.865 46.077-19.085s19.086-28.796 19.086-46.078c0-17.282-6.865-33.856-19.086-46.078-12.22-12.22-28.795-19.085-46.077-19.085h-43.443c-5.761 0-11.286-2.289-15.359-6.364-4.074-4.073-6.362-9.598-6.362-15.358v-152.049c0-5.76 2.288-11.285 6.362-15.36 4.073-4.073 9.598-6.362 15.359-6.362zM685.762 448.030c0 5.76 2.287 11.285 6.362 15.358 4.073 4.075 9.598 6.364 15.358 6.364 5.762 0 11.287-2.289 15.36-6.364 4.075-4.073 6.362-9.598 6.362-15.358v-43.443c0-5.76-2.287-11.285-6.362-15.36-4.073-4.073-9.598-6.362-15.36-6.362-5.76 0-11.285 2.289-15.358 6.362-4.075 4.075-6.362 9.6-6.362 15.36v43.443zM685.762 317.702c0 5.76 2.287 11.285 6.362 15.358 4.073 4.075 9.598 6.364 15.358 6.364 5.762 0 11.287-2.289 15.36-6.364 4.075-4.073 6.362-9.598 6.362-15.358v-43.443c0-5.76-2.287-11.285-6.362-15.358-4.073-4.075-9.598-6.364-15.36-6.364-5.76 0-11.285 2.289-15.358 6.364-4.075 4.073-6.362 9.598-6.362 15.358v43.443zM685.762 187.375c0 5.76 2.287 11.285 6.362 15.36 4.073 4.073 9.598 6.362 15.358 6.362 5.762 0 11.287-2.289 15.36-6.362 4.075-4.075 6.362-9.6 6.362-15.36v-43.443c0-5.76-2.287-11.285-6.362-15.358-4.073-4.075-9.598-6.364-15.36-6.364-5.76 0-11.285 2.289-15.358 6.364-4.075 4.073-6.362 9.598-6.362 15.358v43.443zM316.501 426.308h260.655c5.76 0 11.285-2.289 15.358-6.362 4.075-4.075 6.362-9.598 6.362-15.36 0-5.76-2.287-11.285-6.362-15.36-4.073-4.073-9.598-6.362-15.358-6.362h-260.655c-5.762 0-11.285 2.289-15.36 6.362-4.073 4.075-6.362 9.6-6.362 15.36 0 5.762 2.289 11.285 6.362 15.36 4.075 4.073 9.598 6.362 15.36 6.362zM316.501 317.702h260.655c5.76 0 11.285-2.289 15.358-6.362 4.075-4.075 6.362-9.6 6.362-15.36s-2.287-11.285-6.362-15.36c-4.073-4.073-9.598-6.362-15.358-6.362h-260.655c-5.762 0-11.285 2.289-15.36 6.362-4.073 4.075-6.362 9.6-6.362 15.36s2.289 11.285 6.362 15.36c4.075 4.073 9.598 6.362 15.36 6.362zM316.501 209.097h260.655c5.76 0 11.285-2.289 15.358-6.362 4.075-4.075 6.362-9.6 6.362-15.36s-2.287-11.285-6.362-15.36c-4.073-4.073-9.598-6.362-15.358-6.362h-260.655c-5.762 0-11.285 2.289-15.36 6.362-4.073 4.075-6.362 9.6-6.362 15.36s2.289 11.285 6.362 15.36c4.075 4.073 9.598 6.362 15.36 6.362zM191.382 847.264l-57.778-140.535c-1.181-2.63-1.791-5.481-1.791-8.363 0-2.884 0.61-5.734 1.791-8.363 2.204-5.308 6.422-9.525 11.729-11.731l40.836-16.508c12.014-5.133 22.208-13.76 29.257-24.762 7.051-10.999 10.63-23.866 10.276-36.926h622.746l-628.61 258.916c-2.639 1.104-5.468 1.676-8.328 1.684s-5.692-0.549-8.336-1.639c-2.644-1.090-5.046-2.691-7.070-4.711s-3.628-4.421-4.722-7.063z" />
<glyph unicode="&#xe912;" glyph-name="health_fitness_icn" horiz-adv-x="1045" d="M522.665 880.044c-54.176 62.29-109.457 80.268-149.999 79.952-106.455-0.83-179.999-106.278-179.999-213.788 0-106.374 105.497-196.053 239.060-309.549 22.999-19.569 90.938-78.281 90.938-78.281s67.94 58.709 90.938 78.281c133.564 113.495 239.061 203.174 239.061 309.549 0 108.058-74.769 212.488-179.998 213.608-40.446 0.43-95.703-17.41-150.001-79.772zM612.666 597.997h-60v-60h-60v60h-60v60h60v60h60v-60h60v-60zM942.665 562.603v-30.601c-1.201-86.999-9.001-199.198-111.599-277.199-23.401-17.999-52.8-33.6-87.601-47.401-2.398 4.802-19.2 49.801-21.6 56.399 22.199 8.401 43.198 18.601 66.598 34.199 58.799 49.803 63.601 73.203 59.401 84.002-7.2 18.001-46.197 13.199-65.397 9.598-55.799-10.799-129.003-47.398-175.202-93.6-32.397-29.399-54.598-66.598-54.598-108.599v-253.399h240v30.001c0 69.602 27.601 92 73.197 125.6 70.204 52.198 168.802 123.599 168.802 416.397v209.999h-19.369c-72.542 0-71.366-87.567-72.631-155.396zM252.666-33.997v-30.001h240v253.399c0 42.001-22.202 79.2-54.598 108.599-46.202 46.202-119.403 82.801-175.202 93.6-19.2 3.601-58.197 8.401-65.397-9.598-4.2-10.799 0.6-34.199 59.4-84.002 23.398-15.599 44.399-25.798 66.598-34.199-2.398-6.601-19.2-51.599-21.6-56.399-34.801 13.801-64.198 29.404-87.601 47.401-102.597 78.001-110.397 190.197-111.599 277.199v30.601c-1.264 67.829-0.088 155.396-72.632 155.396h-19.368v-209.999c0-292.798 98.6-364.198 168.801-416.397 45.597-33.6 73.198-55.998 73.198-125.6z" />
<glyph unicode="&#xe913;" glyph-name="icn_arrow_down" d="M0.001 668.849c-0.056-9.667 1.797-19.25 5.452-28.2s9.042-17.089 15.85-23.953l440.73-440.73c13.764-13.683 32.38-21.363 51.789-21.363 19.405 0 38.020 7.68 51.785 21.363l440.73 440.73c12.036 14.052 18.325 32.128 17.609 50.615-0.713 18.487-8.375 36.023-21.457 49.105-13.086 13.082-30.622 20.746-49.109 21.46-18.483 0.714-36.561-5.574-50.611-17.608l-388.578-388.576-388.579 388.576c-10.23 10.315-23.289 17.364-37.526 20.257s-29.011 1.5-42.456-4.004c-13.445-5.504-24.956-14.871-33.077-26.916s-12.489-26.228-12.55-40.756z" />
<glyph unicode="&#xe914;" glyph-name="icn_arrow_right" d="M291.172-64c9.667-0.055 19.25 1.796 28.2 5.453s17.090 9.041 23.953 15.851l440.73 440.73c13.683 13.764 21.363 32.38 21.363 51.789 0 19.405-7.68 38.020-21.363 51.785l-440.73 440.731c-14.052 12.034-32.128 18.322-50.615 17.608s-36.023-8.378-49.105-21.46c-13.082-13.082-20.746-30.619-21.46-49.106s5.574-36.562 17.608-50.615l388.577-388.576-388.577-388.578c-10.315-10.231-17.364-23.292-20.258-37.525-2.893-14.238-1.499-29.013 4.004-42.458s14.87-24.956 26.916-33.075c12.046-8.124 26.228-12.489 40.756-12.553z" />
<glyph unicode="&#xe915;" d="M54.857 778.902v-661.804c0-68.859 57.382-126.241 126.24-126.241h661.804c68.859 0 126.241 57.382 126.241 126.241v661.804c0 68.858-57.382 126.24-126.241 126.24h-661.804c-68.858 0-126.24-57.382-126.24-126.24zM896.459 595.28v-478.182c0-26.779-22.952-49.732-49.732-49.732h-665.63c-26.778 0-49.731 22.952-49.731 49.732v478.182c0 26.778 22.953 49.732 49.731 49.732h661.804c30.605 0 53.557-22.954 53.557-49.732zM483.31 805.681h332.815c19.127 0 38.256-19.127 38.256-38.255s-19.129-38.254-38.256-38.254h-332.815c-22.954 0-38.256 19.127-38.256 38.254s15.301 38.255 38.256 38.255zM314.988 805.681c22.954 0 38.256-19.127 38.256-38.255s-15.301-38.254-38.256-38.254c-22.952 0-38.254 19.127-38.254 38.254s15.301 38.255 38.254 38.255zM246.131 767.426c0-19.127-15.303-38.254-38.256-38.254-19.127 0-38.255 19.127-38.255 38.254s19.128 38.255 38.255 38.255c22.952 0 38.256-19.127 38.256-38.255z" />
<glyph unicode="&#xe916;" d="M708.997 480.514c-15.301 15.303-38.256 15.303-53.557 0-15.301-15.301-15.301-38.254 0-53.555l57.382-57.382-57.382-57.382c-15.301-15.301-15.301-38.254 0-53.555 15.301-15.303 38.256-15.303 53.557 0l87.985 84.16c15.301 15.301 15.301 42.079 0 53.555l-87.985 84.16z" />
<glyph unicode="&#xe917;" d="M372.376 476.694c-15.301 15.301-38.256 15.301-53.557 0l-87.985-84.16c-15.301-15.303-15.301-42.081 0-53.557l87.985-84.16c15.301-15.303 38.256-15.303 53.557 0 15.301 15.301 15.301 38.254 0 53.555l-57.382 57.382 57.382 57.382c15.301 15.301 15.301 38.254 0 53.557z" />
<glyph unicode="&#xe918;" d="M578.953 579.981c-19.127 3.825-42.079-7.651-45.904-26.778l-95.638-344.293c-3.825-19.127 7.653-42.079 26.779-45.904s42.079 7.651 45.904 26.778l95.638 344.293c3.825 19.127-7.651 38.254-26.779 45.904z" />
<glyph unicode="&#xe919;" glyph-name="icn_build" d="M158.73 602.92c46.479 36.117 85.036 11.209 136.498-48.372 5.779-6.725 13.55 1.146 17.984 4.982 4.384 3.886 72.283 65.010 75.621 67.8 3.288 2.939 7.273 8.419 2.042 14.546-12.601 15.584-24.941 31.379-37.013 47.375-90.069 117.815 246.391 197.721 194.732 198.966-26.303 0.697-131.814 1.943-147.605 0.199-63.914-6.725-144.17-66.455-184.57-94.302-52.855-36.167-72.582-57.388-75.82-60.327-14.945-13.052-2.391-43.191-29.491-66.953-28.644-25.058-46.528-6.078-63.117-20.624-8.22-7.273-31.235-24.51-37.81-30.238-6.626-5.828-7.821-15.642-1.046-23.463 0 0 62.968-69.543 68.248-75.721 5.231-6.078 19.478-11.358 28.246-3.537 8.817 7.771 31.484 27.548 35.27 31.036 3.886 3.288-2.491 42.892 17.834 58.634zM443.082 577.165c-5.978 6.924-13.401 7.124-19.777 1.445l-71.436-62.37c-2.759-2.502-4.439-5.975-4.691-9.692s0.949-7.384 3.346-10.234l413.176-470.215c9.664-11.109 26.403-12.255 37.412-2.64l48.322 40.501c5.316 4.683 8.574 11.278 9.058 18.349 0.484 7.068-1.84 14.045-6.468 19.412l-408.941 475.446zM994 777.277c-3.686 24.609-16.439 19.478-23.065 9.067-6.626-10.511-35.917-54.897-47.973-75.023-11.956-19.926-41.447-59.331-96.345-20.425-57.189 40.401-37.312 68.597-27.349 87.577 10.013 19.080 40.75 72.582 45.183 79.208 4.434 6.725-0.747 26.253-18.482 18.083-17.784-8.17-125.686-51.062-140.631-112.585-15.294-62.569 12.803-118.513-42.344-174.058l-66.903-69.743 67.202-78.012 82.396 78.211c19.628 19.727 61.573 38.906 99.533 30.238 81.35-18.382 125.736 12.155 152.487 62.669 24.011 45.133 20.026 140.183 16.29 164.792zM139.002 96.638c-4.983-5.020-7.779-11.806-7.779-18.88s2.796-13.86 7.779-18.88l47.375-46.329c10.362-10.412 26.801-6.028 37.163 4.384l244.45 240.313-74.874 85.385-254.114-245.992z" />
<glyph unicode="&#xe91a;" glyph-name="icn_call" d="M731.378-43.52c-172.331 0-356.363 63.324-500.251 207.208-143.648 143.651-207.206 327.557-207.206 500.248 0 152.196 123.133 275.583 275.583 275.583 11.778 0 22.366-7.169 26.74-18.104l123.391-308.481c5.911-14.769-1.274-31.528-16.040-37.436l-135.546-54.218c9.589-155.939 134.76-281.1 290.674-290.677l54.219 135.545c5.894 14.746 22.651 21.955 37.437 16.044l308.478-123.392c10.932-4.37 18.104-14.963 18.104-26.739 0-152.195-123.134-275.583-275.583-275.583zM280.336 881.094c-110.3-9.544-198.816-102.038-198.816-217.158 0-173.584 67.596-336.777 190.337-459.518s285.936-190.341 459.52-190.341c115.081 0 207.606 88.47 217.158 198.82l-262.812 105.124-50.999-127.5c-4.37-10.936-14.963-18.104-26.739-18.104-203.001 0-368.129 165.126-368.129 368.096 0 11.775 7.169 22.399 18.104 26.77l127.499 51.001-105.124 262.81z" />
<glyph unicode="&#xe91b;" glyph-name="icn_celebration" d="M143.647 201.698c-0.525-0.355-1.223-0.355-1.69 0-73.923 54.497-113.826-32.031-81.321-82.307 25.98-40.186 73.865-81.191 81.203-87.292 0.584-0.467 1.282-0.467 1.864 0 6.991 6.454 52.72 49.279 81.728 87.292 27.205 35.61-0.057 141.849-81.785 82.307zM658.699 513.076c25.982-40.183 73.865-81.188 81.203-87.29 0.584-0.47 1.281-0.47 1.866 0 6.991 6.451 52.719 49.277 81.728 87.29 27.206 35.61-0.057 141.849-81.785 82.305-0.527-0.352-1.224-0.352-1.691 0-73.923 54.499-113.826-32.029-81.321-82.305zM820.941 686.947c0.777-0.624 1.708-0.624 2.485 0 9.321 8.607 70.291 65.705 108.971 116.389 36.275 47.479-0.077 189.131-109.049 109.741-0.699-0.47-1.631-0.47-2.253 0-98.561 72.665-151.764-42.707-108.427-109.741 34.641-53.578 98.486-108.254 108.272-116.389zM607.319 706.383c3.549 3.674 1.499 9.86-3.527 10.635l-53.73 8.287c-2.058 0.319-3.824 1.65-4.71 3.554l-23.804 51.201c-2.248 4.835-9.056 4.835-11.306 0l-23.804-51.201c-0.884-1.904-2.652-3.235-4.71-3.554l-53.73-8.287c-5.023-0.775-7.073-6.961-3.524-10.635l39.267-40.63c1.386-1.431 2.013-3.442 1.693-5.417l-9.216-57.034c-0.837-5.192 4.623-9.079 9.184-6.531l47.474 26.494c1.881 1.049 4.163 1.049 6.042 0l47.474-26.494c4.561-2.548 10.023 1.339 9.184 6.531l-9.216 57.034c-0.317 1.976 0.31 3.986 1.693 5.417l39.269 40.63zM564.601 299.662c3.549 3.674 1.496 9.858-3.529 10.635l-53.728 8.287c-2.058 0.317-3.824 1.648-4.71 3.554l-23.804 51.2c-2.248 4.835-9.059 4.835-11.306 0l-23.804-51.2c-0.884-1.906-2.652-3.237-4.71-3.554l-53.73-8.287c-5.023-0.777-7.076-6.961-3.524-10.635l39.267-40.63c1.384-1.434 2.013-3.444 1.693-5.417l-9.216-57.034c-0.837-5.192 4.623-9.079 9.184-6.531l47.474 26.492c1.881 1.049 4.161 1.049 6.042 0l47.471-26.492c4.563-2.548 10.025 1.339 9.186 6.531l-9.216 57.034c-0.317 1.973 0.31 3.984 1.693 5.417l39.269 40.63zM308.941 732.26c12.58-11.867 32.234-11.1 43.902 1.467 43.765 47.082 42.566 119.707-2.732 165.322-46.025 46.349-120.919 46.349-166.975 0-12.136-12.206-12.136-32.019 0-44.241 12.106-12.221 31.796-12.221 43.932 0 21.784 21.937 57.267 21.968 79.111 0 21.467-21.616 22.028-56.019 1.306-78.338-11.729-12.603-11.074-32.417 1.456-44.21zM409.857 139.294c-12.58 11.868-32.234 11.102-43.902-1.466-43.767-47.082-42.568-119.706 2.73-165.321 46.025-46.35 120.919-46.35 166.977 0 12.136 12.206 12.136 32.019 0 44.239-12.106 12.221-31.796 12.221-43.932 0-21.784-21.936-57.267-21.969-79.113 0-21.464 21.616-22.026 56.020-1.304 78.338 11.726 12.603 11.074 32.416-1.456 44.209zM23.131 242.845l476.021 189.667c5.197 2.068 6.589 8.824 2.637 12.802l-287.68 289.698c-3.952 3.98-10.659 2.58-12.714-2.652l-188.343-479.363c-2.503-6.369 3.755-12.673 10.079-10.153zM822.604 432.533c-2.055 5.235-8.761 6.634-12.715 2.655l-287.677-289.7c-3.954-3.979-2.562-10.732 2.635-12.802l476.020-189.665c6.326-2.52 12.583 3.781 10.080 10.148l-188.344 479.364z" />
<glyph unicode="&#xe91c;" glyph-name="icn_clients_served" d="M501.488 544.328c93.753 0 169.757 76.003 169.757 169.757s-76.003 169.756-169.757 169.756c-93.753 0-169.757-76.002-169.757-169.756s76.003-169.757 169.757-169.757zM844.902 544.331c59.27 0 107.318 48.048 107.318 107.318s-48.048 107.316-107.318 107.316c-59.27 0-107.318-48.047-107.318-107.316s48.048-107.318 107.318-107.318zM158.073 544.331c59.27 0 107.318 48.048 107.318 107.318s-48.048 107.316-107.318 107.316c-59.27 0-107.317-48.047-107.317-107.316s48.047-107.318 107.317-107.318zM263.81 447.96c-42.244 34.609-80.502 30.028-129.346 30.028-73.054 0-132.488-59.082-132.488-131.689v-213.092c0-31.532 25.737-57.169 57.385-57.169 136.636 0 120.176-2.473 120.176 5.892 0 150.998-17.885 261.729 84.273 366.030zM547.952 477.209c-85.317 7.118-159.472-0.080-223.434-52.878-107.038-85.736-86.439-201.176-86.439-342.398 0-37.364 30.399-68.333 68.332-68.333 411.868 0 428.259-13.285 452.683 40.8 8.010 18.292 5.814 12.478 5.814 187.454 0 138.977-120.337 235.355-216.956 235.355zM868.517 477.991c-49.112 0-87.16 4.533-129.346-30.031 101.396-103.524 84.273-206.701 84.273-366.028 0-8.419-13.664-5.894 118.127-5.894 32.78 0 59.434 26.557 59.434 59.2v211.064c0 72.604-59.434 131.689-132.488 131.689z" />
<glyph unicode="&#xe91d;" d="M384.763 190.625c-7.958 183.631 134.78 321.333 297.911 319.989 137.638-1.13 253.645-93.308 288.183-220.089 33.322 43.22 53.48 97.362 53.14 156.091-0.918 155.132-126.652 255.759-255.993 255.993-18.9 161.808-151.931 234.659-255.993 234.659-151.696-0.363-253.987-130.172-255.991-234.659-113.725 0.982-258.318-93.074-255.992-255.993 2.005-141.264 114.706-255.991 255.992-255.991h128.742z" />
<glyph unicode="&#xe91e;" d="M720.499 465.179c25.13-32.362 45.482-64.66 61.076-96.872 23.296 8.81 46.698 20.734 70.164 35.838-36.16 31.828-81.364 53.63-131.24 61.034zM623.607 356.059c14.954 29.566 34.56 59.070 58.772 88.53 23.614-29.674 42.878-59.22 57.768-88.68-39.080-8.64-77.928-8.512-116.54 0.15zM881.803 372.804c-27.902-18.644-55.72-33.342-83.41-44.138 11.606-31.892 18.56-63.698 20.864-95.378h118.566c-4.352 52.606-24.64 100.734-56.020 139.516zM483.569 372.765c-31.358-38.762-51.646-86.866-55.998-139.472h118.226c1.856 31.934 8.426 63.826 19.796 95.654-27.454 10.838-54.804 25.45-82.024 43.818zM427.571 190.627h118.566c2.304-31.678 9.26-63.486 20.864-95.378-27.69-10.794-55.508-25.492-83.41-44.138-31.38 38.784-51.668 86.91-56.020 139.516zM741.755 67.856c-38.612 8.662-77.458 8.79-116.54 0.15 14.89-29.46 34.154-59.006 57.768-88.68 24.214 29.46 43.818 58.964 58.772 88.53zM513.642 19.778c23.466 15.102 46.868 27.028 70.164 35.838 15.594-32.212 35.946-64.51 61.076-96.872-49.876 7.404-95.080 29.206-131.24 61.034zM721.285-41.128c25.642 32.040 46.206 64.188 61.8 96.422 22.976-8.81 45.888-20.65 68.692-35.454-35.988-31.7-80.914-53.46-130.492-60.968zM937.805 190.627h-118.226c-1.856-31.934-8.426-63.826-19.796-95.656 27.456-10.836 54.804-25.448 82.024-43.816 31.358 38.762 51.646 86.866 55.998 139.472zM588.932 190.627h187.897c-1.834-27.562-7.722-55.016-17.62-82.428-50.196 12.906-100.712 13.076-151.611 0.126-10.134 27.498-16.384 54.912-18.666 82.302zM588.535 233.295c1.836 27.56 7.724 55.016 17.622 82.428 50.196-12.906 100.71-13.076 151.611-0.128 10.134-27.498 16.384-54.91 18.666-82.3h-187.899zM513.571 404.085c35.988 31.7 80.916 53.46 130.492 60.968-25.642-32.042-46.206-64.19-61.8-96.422-22.976 8.81-45.886 20.648-68.692 35.454z" />
<glyph unicode="&#xe91f;" d="M511.978 657.32c183.545 0 332.337 54.341 332.337 121.376s-148.793 121.375-332.337 121.375c-183.543 0-332.335-54.342-332.335-121.375s148.792-121.376 332.335-121.376z" />
<glyph unicode="&#xe920;" d="M179.607 658.267v-149.319c0-67.021 148.826-121.353 332.396-121.353 183.568 0 332.398 54.332 332.398 121.353v149.319c-69.488-55.44-204.392-81.313-332.398-81.313-128.007 0-262.91 25.872-332.396 81.313zM617.093 507.352v-40.609c0.022-3.004-1.059-5.912-3.039-8.172s-4.72-3.714-7.7-4.087c-31.318-3.621-62.824-5.385-94.351-5.29-31.526-0.095-63.033 1.669-94.351 5.29-2.981 0.373-5.722 1.827-7.7 4.087-1.98 2.26-3.061 5.168-3.039 8.172v40.609c-0.005 1.708 0.347 3.397 1.035 4.961s1.699 2.964 2.964 4.112c1.264 1.147 2.756 2.017 4.378 2.553 1.622 0.534 3.339 0.722 5.038 0.552 29.548-2.783 60.24-4.175 91.675-4.175s62.128 1.392 91.675 4.175c1.701 0.17 3.416-0.018 5.038-0.554 1.622-0.534 3.114-1.404 4.378-2.553 1.265-1.147 2.275-2.547 2.964-4.111 0.688-1.563 1.042-3.253 1.035-4.961z" />
<glyph unicode="&#xe921;" d="M395.579 199.351c-8.013 18.231-11.619 38.093-10.527 57.977 1.092 19.886 6.85 39.232 16.81 56.477-89.812 10.719-172.727 35.237-222.254 74.659v-75.397c0-52.114 89.814-96.466 215.971-113.715zM639.148 250.48c0.031-17.604-3.619-35.019-10.719-51.129 126.159 17.249 215.973 61.601 215.973 113.715v75.397c-49.527-39.422-132.442-63.94-222.256-74.659 11.18-19.227 17.048-41.083 17.002-63.325zM179.665 192.666v-75.365c0-67.035 148.794-121.377 332.339-121.377 183.547 0 332.339 54.341 332.339 121.377v75.365c-69.477-55.342-204.281-81.282-332.339-81.282-128.060 0-262.864 25.94-332.339 81.282z" />
<glyph unicode="&#xe922;" d="M511.985 184.956c36.167 0 65.487 29.319 65.487 65.487s-29.319 65.485-65.487 65.485c-36.165 0-65.485-29.317-65.485-65.485s29.319-65.487 65.485-65.487z" />
<glyph unicode="&#xe923;" d="M43.12 542.464c-5.663 0-11.27-1.115-16.501-3.282s-9.985-5.343-13.989-9.348c-4.004-4.005-7.18-8.757-9.347-13.989s-3.282-10.84-3.282-16.501v-35.361c0.016-11.427 4.566-22.378 12.651-30.451 8.085-8.075 19.044-12.61 30.469-12.61s22.385 4.535 30.469 12.61c8.085 8.073 12.635 19.024 12.651 30.451v35.361c0 11.436-4.543 22.404-12.63 30.49-8.087 8.088-19.054 12.63-30.491 12.63zM43.12 304.34c-5.663 0-11.27-1.115-16.501-3.282s-9.985-5.343-13.989-9.348c-4.004-4.005-7.18-8.757-9.347-13.99-2.167-5.232-3.282-10.838-3.282-16.501v-105.136c0.016-11.427 4.566-22.378 12.651-30.451 8.085-8.075 19.044-12.61 30.469-12.61s22.385 4.535 30.469 12.61c8.085 8.073 12.635 19.024 12.651 30.451v105.136c0 11.436-4.543 22.405-12.63 30.491s-19.054 12.63-30.491 12.63z" />
<glyph unicode="&#xe924;" d="M980.875 778.696h-0.009c-23.812 0-43.116-19.303-43.116-43.117v-119.126c0-23.813 19.304-43.118 43.116-43.118h0.009c23.813 0 43.116 19.304 43.116 43.118v119.126c0 23.813-19.302 43.117-43.116 43.117z" />
<glyph unicode="&#xe925;" d="M980.875 470.151h-0.009c-23.812 0-43.116-19.304-43.116-43.116v-34.732c0-23.813 19.304-43.118 43.116-43.118h0.009c23.813 0 43.116 19.304 43.116 43.118v34.732c0 23.812-19.302 43.116-43.116 43.116z" />
<glyph unicode="&#xe926;" d="M938.101 352.645c-9.205 6.903-19.56 12.656-28.763 17.258-2.302 139.218-75.937 266.931-195.597 338.266 0 4.603 1.152 10.355 1.152 14.958-1.152 111.604-90.895 202.498-202.5 202.498s-202.498-90.894-202.498-202.498c0-4.603 0-10.355 1.15-14.958-119.658-71.334-193.295-199.047-194.445-338.266-101.249-47.173-144.971-167.982-96.647-269.232s167.982-143.821 269.232-96.647c10.355 4.603 20.71 10.355 28.763 17.258 120.808-67.882 266.931-67.882 387.739 0 92.045-64.432 217.456-41.419 281.887 49.476 63.281 92.045 41.421 218.606-49.474 281.887zM449.112 744.987h1.152v12.656c0 50.625 41.419 92.045 92.045 92.045h33.366c14.958 0 27.613-12.656 27.613-27.613s-12.656-27.614-27.613-27.614h-33.366c-20.71 0-36.818-16.108-36.818-36.818v-12.656h44.871c14.958 0 27.613-12.657 27.613-27.613 0-14.958-12.656-27.615-27.613-27.615h-44.871v-65.582c0-14.958-12.656-27.613-27.613-27.613s-27.613 12.656-27.613 27.613v65.582h-1.152c-14.956 0-27.613 12.657-27.613 27.615 0 16.108 12.657 27.613 27.613 27.613zM299.54 175.459c-1.152-2.3-3.452-3.452-5.753-5.753l-127.713-88.594c-9.204-6.903-21.861-4.601-28.764 5.755-2.301 3.451-3.452 8.053-3.452 11.505v177.187c0 11.505 9.204 20.709 20.71 20.709 4.602 0 8.054-1.15 11.506-3.451l127.713-88.594c9.203-6.903 11.505-19.558 5.753-28.763zM648.159 84.564c-86.292-41.421-186.39-41.421-271.532 0 57.529 95.497 25.313 219.758-70.184 277.286-31.066 18.408-66.732 28.763-103.55 28.763h-3.452c6.903 95.497 57.529 182.939 135.766 237.016 54.076-97.797 176.037-133.466 274.984-79.389 33.366 18.41 60.981 46.023 79.389 79.389 79.389-54.076 128.863-141.519 135.766-237.016h-3.451c-111.605 0-202.5-90.895-202.5-202.5 0-36.818 10.355-72.485 28.763-103.55zM946.156 279.009l-13.808-24.161c-1.15-2.302-1.15-5.753 0-8.055 6.903-13.806 25.313-64.432-36.818-124.261-55.227-51.774-149.573-47.173-190.992-41.421-4.603 0-8.055 4.603-8.055 10.355 0 2.302 1.152 4.603 3.452 5.753l48.324 39.12c3.452 3.451 4.603 9.203 1.15 12.656l-1.15 1.15c-16.108 12.657-47.173 46.023-34.518 116.208 1.152 4.603 5.755 8.053 10.355 6.903 2.302 0 4.603-1.15 5.755-2.3 13.806-16.108 40.269-41.421 72.485-44.873 10.355-1.15 18.408 6.905 19.56 17.26 0 0 0 0 0 1.15 1.15 16.108 8.053 31.066 20.709 41.419 17.26 14.958 42.571 11.507 59.831 1.152 2.3-1.152 4.601-1.152 5.753-1.152l28.763 5.755c4.603 1.15 9.205-2.302 10.355-6.905 0-1.15 0-3.451-1.15-5.753z" />
<glyph unicode="&#xe927;" d="M932.33 254.848c-1.152-2.3-1.152-5.753 0-8.055 6.903-13.806 25.311-64.432-36.818-124.261-55.227-51.774-149.573-47.172-190.994-41.419-4.601 0-8.053 4.603-8.053 10.355 0 2.3 1.15 4.601 3.452 5.753l48.324 39.119c3.451 3.452 4.601 9.205 1.15 12.656l-1.15 1.152c-16.108 12.656-47.173 46.021-34.518 116.206 1.15 4.603 5.753 8.055 10.355 6.903 2.3 0 4.603-1.15 5.753-2.3 13.808-16.108 40.271-41.421 72.486-44.871 10.353-1.152 18.408 6.903 19.558 17.258 0 0 0 0 0 1.15 1.15 16.108 8.055 31.066 20.71 41.421 17.258 14.958 42.571 11.505 59.829 1.15 2.302-1.15 4.603-1.15 5.753-1.15l28.765 5.753c4.601 1.15 9.203-2.302 10.353-6.903 0-2.302 0-4.603-1.15-5.755l-13.806-24.161z" />
<glyph unicode="&#xe928;" d="M299.538 175.459c-1.15-2.3-3.452-3.452-5.753-5.753l-127.713-88.592c-9.204-6.905-21.861-4.603-28.764 5.753-2.301 3.451-3.452 8.053-3.452 11.505v177.187c0 11.505 9.204 20.709 20.71 20.709 4.602 0 8.054-1.15 11.506-3.451l127.713-88.594c9.203-6.903 11.505-19.558 5.753-28.763z" />
<glyph unicode="&#xe929;" d="M505.49 757.643v-12.657h44.873c14.958 0 27.613-12.656 27.613-27.613s-12.656-27.613-27.613-27.613h-44.873v-65.582c0-14.958-12.656-27.613-27.613-27.613s-27.613 12.656-27.613 27.613v65.582h-1.15c-14.958 0-27.613 12.657-27.613 27.613 0 14.958 12.656 27.613 27.613 27.613h1.15v12.657c0 50.624 41.421 92.045 92.045 92.045h33.366c14.958 0 27.615-12.656 27.615-27.614s-12.657-27.613-27.615-27.613h-33.366c-20.71 0-36.818-16.108-36.818-36.818z" />
<glyph unicode="&#xe92a;" glyph-name="icn_employee_centric" d="M857.148 742.014c54.297-93.629 67.329-205.243 36.27-308.624-19.763 23.892-47.129 40.376-77.534 46.674 11.511 52.559 9.121 106.856-7.168 157.461-5.864 19.546-14.096 38.66-24.326 56.685l72.759 47.804zM767.233 625.384c14.791-46.045 16.529-95.564 4.561-143.128-3.452-0.457-6.928-0.869-10.402-1.738-36.921-6.948-69.5-28.884-89.937-60.596-7.603 14.096-17.136 26.931-28.235 38.225 31.492 44.741 36.704 102.73 13.467 152.249l91.436 59.966c7.817-14.573 14.116-29.559 19.111-44.979zM833.454 778.282l-283.648-186.131 63.418 333.167c88.396-21.936 166.148-74.061 220.23-147.036zM546.142 804.998l-20.415-107.27c-123.557 5.647-202.615-137.935-130.942-239.559-11.099-11.294-20.632-24.106-28.235-38.225-20.415 31.712-52.993 53.645-89.937 60.596-3.474 0.869-6.951 1.304-10.402 1.738-42.353 168.755 95.539 332.71 266.49 323.827 4.321-0.239 8.881-0.673 13.442-1.107zM570.72 933.356l-16.289-85.572c-6.733 0.63-13.467 1.303-20.198 1.499-195.252 9.99-355.125-174.619-312.1-369.219-30.406-6.299-57.772-22.805-77.536-46.674-40.18 133.787-4.561 282.345 92.305 383.12 85.573 89.264 211.108 133.353 333.818 116.847zM361.534 263.33c5.43-11.729 12.163-23.042 20.198-33.23-86.418-23.889-190.039-75.798-211.519-171.36-0.869-3.062-1.52-6.082-1.976-9.361-41.461 3.691-82.749 9.99-123.363 19.351-14.769 3.257-25.411 16.506-25.411 31.709v7.385c0.217 73.843 95.128 111.199 154.203 123.145 27.387-18.459 59.292-25.845 90.133-22.805 37.573 3.477 73.626 22.371 97.735 55.166zM269.23 437.733c42.786-8.884 75.798-47.544 75.798-92.522 0-47.998-37.791-88.831-84.92-93.803-3.257-0.24-6.299-0.457-9.556-0.457-51.235 0-94.26 43.003-94.26 94.26 0 51.475 43.003 94.498 94.26 94.498 6.516-0.020 12.595-0.672 18.677-1.976zM787.404 439.688c51.235 0 94.26-43.003 94.26-94.5 0-51.232-43.003-94.258-94.26-94.258-3.257 0-6.299 0.217-9.556 0.455-47.131 4.975-84.922 45.805-84.922 93.803 0 44.959 33.035 83.641 75.798 92.522 6.082 1.326 12.163 1.978 18.679 1.978zM518.996 467.054c71.021 0 130.313-59.292 130.313-130.313 0-71.043-59.292-130.313-130.313-130.313s-130.313 59.27-130.313 130.313c0 71.021 59.292 130.313 130.313 130.313zM828.281 25.727v-14.334c0-20.2-13.924-37.771-33.665-42.331-55.623-12.835-112.071-21.719-168.972-26.714-128.14-11.077-257.151-2.173-382.273 26.714-19.742 4.561-33.664 22.153-33.664 42.331v14.334c0 9.773 1.086 18.897 3.258 27.606 20.394 83.399 132.68 125.75 206.545 140.932 59.727-41.699 139.219-41.699 198.946 0 76.448-15.637 193.948-60.596 208.282-149.641 1.109-6.082 1.543-12.38 1.543-18.897zM1018.513 107.825v-7.385c0-15.203-10.642-28.472-25.41-31.709-40.615-9.361-81.903-15.66-123.362-19.351-16.529 101.666-124.448 156.158-213.497 180.701 8.035 10.208 14.768 21.502 20.198 33.23 24.109-32.795 60.161-51.692 97.735-55.166 30.842-3.062 62.769 4.343 90.134 22.805 59.075-11.923 153.985-49.282 154.202-123.125z" />
<glyph unicode="&#xe92b;" glyph-name="icn_enterprise_solution" d="M326.492 102.986h331.558c53.217 0 104.108 22.031 140.567 60.974l208.991 223.263c22.185 23.739 21.875 60.664-0.776 83.937-23.119 23.739-61.443 24.515-85.489 1.708l-160.274-152.049c-4.032-39.252-36.925-69.975-77.11-69.975h-171.753c-8.689 0-15.516 6.984-15.516 15.516s6.828 15.516 15.516 15.516h187.889c36.15 0.466 41.892 54.303 7.137 63.457-5.12 1.239-10.396 2.017-15.98 2.017h-154.378c-15.36 0.31-29.632 4.188-41.114 11.479-72.765 45.46-144.136 60.201-212.093 43.599-91.539-22.344-148.945-94.643-167.718-121.795l202.007-168.806c3.259-2.637 6.052-5.583 8.535-8.842zM222.192-2.831c11.947-10.086 29.634-8.379 39.565 3.569l39.872 47.631c9.93 11.948 8.379 29.635-3.569 39.562l-212.092 177.185c-11.791 9.928-29.634 8.376-39.564-3.569l-39.874-47.631c-9.93-11.948-8.378-29.635 3.568-39.721l212.092-177.027zM397.036 645.55c5.896 0 11.635 0.62 17.068 2.015v-102.71c0-8.532 6.981-15.514 15.514-15.514h102.71c-1.395-5.432-2.015-11.172-2.015-16.914 0-39.718 32.271-71.99 71.834-71.99 39.718 0 71.992 32.271 71.992 71.99 0 5.742-0.778 11.482-2.017 16.914h102.554c8.535 0 15.516 6.981 15.516 15.514v102.71c5.586-1.395 11.325-2.015 17.068-2.015 39.718 0 71.99 32.271 71.99 71.834 0 39.719-32.271 71.991-71.99 71.991-5.742 0-11.482-0.776-17.068-2.017v102.555c0 8.689-6.981 15.515-15.516 15.515h-124.122c-5.583 0-10.86-2.948-13.496-7.758-2.793-4.965-2.793-10.861 0.154-15.671 3.878-6.361 5.896-13.653 5.896-20.945 0-22.652-18.307-40.96-40.96-40.96-22.497 0-40.804 18.308-40.804 40.96 0 7.292 2.017 14.584 5.74 20.945 2.949 4.81 3.103 10.706 0.31 15.671-2.79 4.809-7.91 7.758-13.496 7.758h-124.278c-8.532 0-15.514-6.827-15.514-15.515v-102.555c-5.432 1.241-11.172 2.017-17.068 2.017-39.565 0-71.836-32.272-71.836-71.991 0-39.563 32.271-71.834 71.836-71.834z" />
<glyph unicode="&#xe92c;" glyph-name="icn_facebook" d="M401.863 385.88c-3.619 0-83.229 0-119.415 0-19.299 0-25.331 7.237-25.331 25.331 0 48.248 0 97.703 0 145.952 0 19.299 7.237 25.33 25.331 25.33h119.415c0 3.619 0 73.579 0 106.147 0 48.248 8.443 94.085 32.567 136.302 25.331 43.424 61.517 72.373 107.353 89.26 30.156 10.856 60.311 15.681 92.879 15.681h118.206c16.89 0 24.124-7.237 24.124-24.124v-137.508c0-16.887-7.234-24.124-24.124-24.124-32.563 0-65.132 0-97.702-1.207-32.569 0-49.453-15.681-49.453-49.455-1.205-36.186 0-71.166 0-108.559h139.921c19.299 0 26.534-7.237 26.534-26.537v-145.952c0-19.299-6.030-25.33-26.534-25.33-43.424 0-136.3 0-139.921 0v-393.224c0-20.504-6.032-27.744-27.744-27.744-50.661 0-100.115 0-150.777 0-18.093 0-25.33 7.234-25.33 25.329 0 126.657 0 390.815 0 394.433z" />
<glyph unicode="&#xe92d;" d="M938.666 917.339h-853.332c-47.042 0-85.334-38.272-85.334-85.334v-597.334c0-47.062 38.292-85.334 85.334-85.334h298.763c-0.896-34.037-7.397-88.481-31.804-114.189-8.958-9.415-19.209-13.811-32.293-13.811-11.792 0-21.334-9.541-21.334-21.334s9.541-21.334 21.334-21.334h384c11.792 0 21.334 9.541 21.334 21.334s-9.541 21.334-21.334 21.334c-13.083 0-23.334 4.376-32.251 13.791-24.347 25.58-30.89 80.102-31.819 114.209h298.737c47.042 0 85.334 38.27 85.334 85.334v597.334c-0.002 47.062-38.294 85.334-85.336 85.334zM512 191.881c-23.583 0-42.792 19.207-42.792 42.792 0 23.583 19.209 42.792 42.792 42.792s42.792-19.209 42.792-42.792c0-23.585-19.209-42.792-42.792-42.792zM85.334 320.005v512h853.334l0.037-512h-853.371z" />
<glyph unicode="&#xe92e;" d="M613.965 713.902h256c10.099 0 18.286-8.187 18.286-18.286v-73.143c0-10.099-8.187-18.286-18.286-18.286h-256c-10.099 0-18.286 8.187-18.286 18.286v73.143c0 10.099 8.187 18.286 18.286 18.286z" />
<glyph unicode="&#xe92f;" d="M167.214 697.787h329.143c10.099 0 18.286-8.187 18.286-18.286v-40.916c0-10.099-8.187-18.286-18.286-18.286h-329.143c-10.099 0-18.286 8.187-18.286 18.286v40.916c0 10.099 8.187 18.286 18.286 18.286z" />
<glyph unicode="&#xe930;" d="M531.215 524.785h329.143c10.099 0 18.286-8.187 18.286-18.286v-40.916c0-10.099-8.187-18.286-18.286-18.286h-329.143c-10.099 0-18.286 8.187-18.286 18.286v40.916c0 10.099 8.187 18.286 18.286 18.286z" />
<glyph unicode="&#xe931;" d="M167.214 540.902h256c10.099 0 18.286-8.187 18.286-18.286v-73.143c0-10.099-8.187-18.286-18.286-18.286h-256c-10.099 0-18.286 8.187-18.286 18.286v73.143c0 10.099 8.187 18.286 18.286 18.286z" />
<glyph unicode="&#xe932;" glyph-name="icn_game_development" d="M711.955 335.544h55.216v-55.216h-55.216v55.216zM297.852 280.328c15.248 0 27.607 12.361 27.607 27.609 0 15.246-12.359 27.607-27.607 27.607-15.246 0-27.607-12.361-27.607-27.607 0-15.248 12.361-27.609 27.607-27.609zM739.581 501.191c-50.658 0-99.271-19.977-135.261-55.216h-57.995v108.592h-55.214v-108.592h-57.993c-35.995 35.239-84.605 55.216-135.264 55.216-106.549 0-193.254-86.705-193.254-193.254 0-16.393 2.076-32.677 6.147-48.449l53.463-206.925c15.718-60.958 70.663-103.529 133.643-103.529s117.953 42.571 133.646 103.529l30.331 117.334h113.773l30.304-117.334c15.72-60.958 70.692-103.529 133.673-103.529s117.953 42.571 133.643 103.529l53.491 206.925c4.044 15.772 6.119 32.056 6.119 48.449 0 106.548-86.705 193.254-193.254 193.254zM297.854 225.114c-45.67 0-82.823 37.153-82.823 82.823s37.153 82.823 82.823 82.823c45.67 0 82.823-37.153 82.823-82.823s-37.153-82.823-82.823-82.823zM822.404 280.328h-55.216v-55.214h-55.214v55.214h-55.216v55.216h55.216v55.216h55.214v-55.216h55.216v-55.216zM706.442 680.043l91.254 91.251-91.254 91.251-47.664-47.665 43.584-43.586-43.584-43.586 47.664-47.665zM436.763 727.708l-43.584 43.586 43.584 43.586-47.666 47.665-91.252-91.251 91.252-91.251 47.666 47.665zM480.889 609.605l67.402 337.356 66.134-13.213-67.404-337.355-66.132 13.212z" />
<glyph unicode="&#xe933;" glyph-name="icn_games" d="M832.018 799.994h-640c-21.011 0-41.817-4.139-61.229-12.179s-37.050-19.826-51.908-34.684c-30.006-30.006-46.863-70.701-46.863-113.136v-345.28c-0.487-33.244 9.053-65.861 27.376-93.601 18.323-27.743 44.579-49.318 75.344-61.919 29.010-11.727 60.905-14.336 91.434-7.475s58.242 22.863 79.446 45.875l135.36 142.4h142.080l135.36-142.4c21.176-23.050 48.891-39.081 79.432-45.942 30.538-6.863 62.446-4.232 91.448 7.542 30.766 12.6 57.021 34.176 75.343 61.919 18.324 27.74 27.863 60.357 27.377 93.601v345.28c0 42.435-16.858 83.13-46.863 113.136s-70.702 46.863-113.137 46.863zM384.018 511.995h-64v-64c0-8.489-3.372-16.627-9.372-22.628s-14.141-9.372-22.628-9.372c-8.486 0-16.627 3.372-22.628 9.372s-9.372 14.139-9.372 22.628v64h-64c-8.487 0-16.626 3.372-22.627 9.372s-9.373 14.139-9.373 22.628c0 8.486 3.372 16.625 9.373 22.625 6.001 6.003 14.14 9.375 22.627 9.375h64v64c0 8.486 3.372 16.625 9.372 22.625 6.001 6.003 14.141 9.375 22.628 9.375s16.627-3.372 22.628-9.375c6.001-6.001 9.372-14.139 9.372-22.625v-64h64c8.486 0 16.627-3.372 22.628-9.375 6.001-6.001 9.372-14.139 9.372-22.625 0-8.489-3.372-16.627-9.372-22.628s-14.141-9.372-22.628-9.372zM736.018 415.995c-25.316 0-50.063 7.506-71.114 21.571-21.048 14.065-37.455 34.056-47.142 57.444-9.687 23.391-12.224 49.126-7.283 73.956 4.938 24.829 17.129 47.636 35.031 65.539 17.9 17.902 40.707 30.093 65.536 35.031s50.568 2.404 73.956-7.283c23.388-9.69 43.379-26.094 57.444-47.145 14.065-21.048 21.573-45.796 21.573-71.112 0-33.948-13.486-66.506-37.491-90.511s-56.561-37.489-90.509-37.489zM800.018 543.995c0-12.659-3.753-25.032-10.785-35.558-7.032-10.524-17.029-18.726-28.723-23.57-11.694-4.846-24.563-6.113-36.977-3.643-12.416 2.47-23.818 8.566-32.771 17.516-8.95 8.95-15.045 20.355-17.516 32.768-2.468 12.416-1.201 25.283 3.643 36.979 4.844 11.694 13.046 21.688 23.572 28.721 10.524 7.032 22.897 10.788 35.556 10.788 16.973 0 33.252-6.743 45.256-18.747 12.001-12.001 18.744-28.28 18.744-45.253z" />
<glyph unicode="&#xe934;" glyph-name="icn_ideate" d="M284.945 709.391l-82.551 82.551c-11.401 11.401-29.874 11.401-41.275 0s-11.401-29.874 0-41.276l82.551-82.551c11.401-11.402 29.874-11.402 41.276 0s11.401 29.874 0 41.276zM161.73 470.262h-118.703c-16.134 0-29.189-13.055-29.189-29.187 0-16.135 13.055-29.19 29.189-29.19h118.703c16.134 0 29.189 13.055 29.189 29.19 0 16.132-13.055 29.187-29.189 29.187zM980.973 470.262h-118.704c-16.132 0-29.187-13.055-29.187-29.187 0-16.135 13.055-29.19 29.187-29.19h118.704c16.135 0 29.19 13.055 29.19 29.19 0 16.132-13.055 29.187-29.19 29.187zM862.864 791.942c-11.402 11.401-29.873 11.401-41.276 0l-82.551-82.551c-11.402-11.401-11.402-29.873 0-41.276s29.873-11.402 41.276 0l82.551 82.551c11.402 11.401 11.402 29.872 0 41.276zM512 939.236c-16.135 0-29.19-13.055-29.19-29.189v-118.703c0-16.134 13.055-29.189 29.19-29.189s29.19 13.055 29.19 29.189v118.703c0 16.134-13.055 29.189-29.19 29.189zM675.455 647.151c-63.632 50.205-145.945 68.3-226.509 49.035-93.405-21.6-168.711-95.738-191.481-188.562-22.767-93.403 3.503-187.976 70.635-253.944 23.937-23.937 37.949-61.493 37.949-100.023v-6.424c0-16.342 12.842-29.19 29.19-29.19h233.514c16.348 0 29.19 12.847 29.19 29.19v6.424c0 37.946 14.593 76.67 40.279 101.775 49.041 49.62 76.476 115.587 76.476 185.64 0 80.564-36.194 155.872-99.242 206.079zM511.994 528.641c-44.035 0-76.094-29.212-84.488-63.026-3.819-15.379-19.293-25.193-35.375-21.321-15.62 3.875-25.171 19.724-21.294 35.345 14.463 58.379 69.297 107.382 141.157 107.382 16.135 0 29.19-13.057 29.19-29.19 0-16.135-13.055-29.19-29.19-29.19zM395.242 59.669v-29.19c0-48.286 39.283-87.566 87.569-87.566h58.379c48.286 0 87.569 39.28 87.569 87.566v29.19h-233.516z" />
<glyph unicode="&#xe935;" glyph-name="icn_instagram" d="M800.154 749.176c-12.047 0-24.094-12.047-24.094-24.094s12.047-24.094 24.094-24.094c12.047 0 24.094 12.047 24.094 24.094s-12.047 24.094-24.094 24.094zM517.082 604.588c-84.329 0-156.611-72.282-156.611-156.612s72.282-156.612 156.611-156.612c84.33 0 156.614 72.283 156.614 156.612s-72.284 156.612-156.614 156.612zM733.907 929.882h-433.695c-144.565 0-265.035-120.471-265.035-265.035v-433.694c0-144.565 120.47-265.035 265.035-265.035h433.695c144.565 0 265.035 120.471 265.035 265.035v433.694c0 144.565-120.471 265.035-265.035 265.035zM517.059 182.965c-144.565 0-265.035 120.471-265.035 265.035s120.471 265.035 265.035 265.035c144.566 0 265.036-120.471 265.036-265.035s-120.471-265.035-265.036-265.035zM800.166 646.776c-42.165 0-78.306 36.141-78.306 78.306s30.118 84.329 78.306 84.329c48.188 0 78.306-36.141 78.306-78.306s-36.141-84.329-78.306-84.329z" />
<glyph unicode="&#xe936;" glyph-name="icn_knowledge_sharing_programs" d="M354.172 342.091v54.067c0 16.020 16.020 32.040 32.040 32.040h50.062c16.020 0 32.040 12.015 32.040 30.037v88.11c0 8.010 6.007 14.017 14.017 14.017h24.030c14.017 0 28.035 12.015 28.035 28.035 0 6.007-2.002 10.012-6.007 16.020l-40.050 60.075c-4.005 4.005-6.007 10.012-6.007 16.020l-2.002 30.037c-4.005 60.074-30.037 112.139-70.087 150.186s-94.117 60.075-152.189 60.075c-122.153-2.002-220.275-102.127-220.275-226.281 0-26.032 6.007-52.065 16.020-76.095l34.042-72.090c26.032-58.072 40.050-120.149 40.050-184.229v-20.025h226.282zM125.887 700.537v10.012c0 10.012 8.010 18.022 18.022 20.025 8.010 2.002 14.017 8.009 16.020 14.017 0 2.002 2.002 4.005 2.002 4.005 2.002 2.002 2.002 6.007 2.002 8.010 0 4.005-2.002 8.010-4.005 12.015-6.007 10.012-6.007 20.025 2.002 28.035l8.010 8.010c4.005 4.005 8.010 4.005 14.017 4.005 4.005 0 8.010-2.002 12.015-4.005 6.007-4.005 14.017-6.007 20.025-2.002 2.002 0 4.005 2.002 4.005 2.002 6.007 2.002 12.016 8.010 12.016 16.020 2.002 10.012 10.012 18.022 20.025 18.022h10.012c10.012 0 18.022-8.010 20.025-18.022 2.002-8.010 6.007-14.017 12.015-16.020 2.002 0 4.005-2.002 4.005-2.002 2.002-2.002 6.007-2.002 8.010-2.002 4.005 0 8.010 2.002 12.015 4.005 8.010 6.007 20.025 6.007 26.032-2.002l8.010-8.010c4.005-4.005 6.007-10.012 6.007-14.017s-2.002-8.010-4.005-12.015c-4.005-6.007-6.007-14.017-2.002-20.025 0-2.002 2.002-4.005 2.002-4.005 2.002-6.007 8.010-12.015 16.020-12.015 10.012-2.002 18.022-10.012 18.022-20.024v-10.012c0-10.012-8.010-18.022-18.022-20.025-8.010-2.002-14.017-6.007-16.020-12.015 0-2.002-2.002-4.005-2.002-4.005-2.002-2.002-2.002-6.007-2.002-8.010 0-4.005 2.002-8.010 4.005-12.015 6.007-8.010 6.007-20.025-2.002-26.032l-8.010-8.010c-4.005-4.005-10.012-6.007-14.017-6.007s-8.010 2.002-12.015 4.005c-6.007 4.005-14.017 6.007-20.025 2.002-2.002 0-4.005-2.002-4.005-2.002-6.007-2.002-12.015-8.010-12.015-16.020-2.002-10.012-10.012-18.022-20.025-18.022h-10.012c-10.012 0-18.022 8.010-20.025 18.022-2.002 8.010-6.008 14.017-12.016 16.020-2.002 0-4.005 2.002-4.005 2.002-2.002 2.002-6.007 2.002-8.010 2.002-4.005 0-8.010-2.002-12.015-4.005-8.010-6.007-20.025-6.007-26.032 2.002l-8.010 8.010c-4.005 4.005-6.007 10.012-6.007 14.017s2.002 8.010 4.005 12.015c4.005 6.007 6.007 14.017 2.002 20.025 0 2.002-2.002 4.005-2.002 4.005-2.002 6.007-8.010 12.015-16.020 12.015-10.012 0-18.022 8.010-18.022 18.022zM768.667 91.78c0-4.005 4.005-8.010 8.010-8.010s10.012 4.005 10.012 8.010v30.037h-18.022v-30.037zM788.714 388.148c-4.005 0-8.010 0-12.015 0-54.067 0-98.122-44.057-98.122-98.124 0-28.035 12.015-56.067 34.042-74.090 16.020-14.017 26.032-36.045 26.032-58.072 0-2.002 2.002-4.005 4.005-4.005h18.022v82.102h-10.012c-8.010 0-16.020 8.010-16.020 16.020s6.007 16.020 16.020 16.020h52.065c8.010 0 16.020-6.007 16.020-16.020 0-8.010-6.007-16.020-16.020-16.020h-10.012v-82.102h20.025c2.002 0 4.005 2.002 4.005 4.005 0 22.027 10.012 44.055 26.032 60.075 24.030 22.027 36.045 56.070 32.040 90.112-6.007 42.052-42.052 76.095-86.107 80.1zM778.697 534.33c-116.144 0-214.266-92.114-220.274-210.261l-2.002-30.037c0-6.007-2.002-10.012-6.007-16.020l-40.050-60.075c-4.005-4.005-6.007-10.012-6.007-16.020 0-14.017 14.017-28.035 28.035-28.035h24.030c8.010 0 14.017-6.007 14.017-14.017v-88.11c0-16.020 14.017-30.037 32.040-30.037h50.062c16.020 0 32.040-16.020 32.040-32.040v-52.065h226.281v20.025c0 64.080 14.017 126.157 40.050 184.229l34.042 72.090c10.012 24.030 16.020 50.062 16.020 76.095-2.002 124.154-100.124 224.279-222.276 224.279zM864.804 193.907c-10.012-10.012-16.020-22.027-16.020-36.045 0-18.022-14.017-32.040-30.037-36.045v-32.040c0-22.027-18.022-40.050-40.050-40.050s-40.050 18.022-40.050 40.050v32.040c-16.020 2.002-30.037 18.022-30.037 34.042 0 14.017-6.007 28.035-14.017 36.045-28.035 24.030-44.055 60.075-44.055 98.122 0 76.095 66.082 138.172 144.179 128.159 56.070-6.007 104.129-52.065 114.142-108.134 4.005-42.052-12.015-86.107-44.055-116.144zM520.376 846.717h264.329c42.052 0 76.095-34.042 76.095-76.095v-128.16l-16.020 16.022c-6.007 6.007-16.020 6.007-22.027 0s-6.007-16.022 0-22.030l42.052-42.052c2.002-2.002 4.005-2 6.007-4.003 2.002 0 4.005-2.002 6.007-2.002s4.005 0 6.007 2.002c2.002 0 4.005 2 6.007 4.003l42.052 42.052c6.007 6.007 6.007 16.022 0 22.030s-16.020 6.007-22.027 0l-16.020-16.022v128.16c0 60.075-48.060 108.134-108.134 108.134h-264.329c-8.010 0-16.020-6.007-16.020-16.020 0-8.010 8.010-16.020 16.020-16.020zM488.348 35.71h-192.239c-42.052 0-76.094 34.042-76.094 76.095v112.137l16.019-16.018c4.005-4.005 6.007-4.005 10.012-4.005s8.010 2.002 10.012 4.005c6.007 6.007 6.007 16.018 0 22.025l-42.052 42.055c-2.002 2.002-4.005 2.002-6.007 4.005s-6.007 2.002-10.012 0c-2.002 0-4.005-2.002-6.007-4.005l-42.052-42.055c-6.007-6.007-6.007-16.018 0-22.025s16.020-6.007 22.027 0l16.020 16.018v-112.137c0-60.075 48.059-108.134 108.134-108.134h192.239c8.010 0 16.020 6.007 16.020 16.020s-8.010 16.020-16.020 16.020zM258.048 668.497c20.025 0 38.047 16.020 38.047 38.047 0 20.025-16.020 38.046-38.047 38.046-20.025 0-38.048-16.019-38.048-38.046 0-20.025 18.023-38.047 38.048-38.047z" />
<glyph unicode="&#xe937;" glyph-name="icn_launch" d="M445.794 197.222c-17.325 0-16.517-7.655-16.517-11.682 0-100.319 76.545-266.306 88.23-230.851 42.706 128.922 69.698 130.131 69.698 230.851 0 4.027 1.209 11.682-16.52 11.682h-124.892zM715.734 468.358c-9.67 4.835-8.059 13.295-8.46 17.325-8.865 230.85-97.9 460.492-202.246 460.492-103.944 0-185.729-226.822-195.399-456.463 0-4.434-0.805-13.295-10.877-19.741l-46.332-28.202c-12.892-8.059-23.367-26.591-23.367-41.497v-273.557c0-14.906 10.072-20.145 22.158-11.281l114.419 83.398c12.086 8.862 22.157 28.603 22.157 43.509 0 0 0 10.074 10.071 10.074 56.406 0 161.557 0 215.544 0 10.877 0 10.472-10.074 10.472-10.074 0-14.906 10.074-34.647 22.16-43.509l114.417-83.398c12.089-8.865 22.16-3.626 22.16 11.281v273.557c0 14.906-10.475 33.842-23.367 41.497l-43.512 26.588zM508.25 614.605c-46.332 0-83.799 37.467-83.799 83.799s37.467 83.799 83.799 83.799c46.332 0 83.799-37.468 83.799-83.799 0.404-46.332-37.467-83.799-83.799-83.799z" />
<glyph unicode="&#xe938;" glyph-name="icn_leadership" d="M518.356 762.833c48.601 0 88 39.399 88 88s-39.399 88-88 88c-48.601 0-88-39.399-88-88s39.399-88 88-88zM833.199 25.589h-629.688c-16.2 0-29.333-13.132-29.333-29.334v-29.332c0-16.2 13.133-29.334 29.333-29.334h629.688c16.2 0 29.334 13.135 29.334 29.334v29.332c0 16.202-13.135 29.334-29.334 29.334zM784.311 142.923c0 16.2-13.135 29.332-29.334 29.332h-473.243c-16.2 0-29.334-13.132-29.334-29.332v-58.668h531.911v58.668zM410.799 493.664v-116.074h215.113v116.074c33.125 4.758 58.666 33.326 58.666 67.748v74.311c0 47.454-22.671 89.691-57.733 116.518-26.845-29.517-65.541-48.074-108.489-48.074s-81.645 18.557-108.489 48.074c-35.062-26.827-57.733-69.064-57.733-116.518v-74.311c0-34.422 25.541-62.99 58.666-67.748zM706.089 289.589c0 16.2-13.135 29.332-29.334 29.332h-316.798c-16.2 0-29.334-13.132-29.334-29.332v-58.668h375.467v58.668z" />
<glyph unicode="&#xe939;" glyph-name="icn_linkedin" d="M998.948-33.858v352.979c0 173.479-37.346 305.997-239.736 305.997-97.581 0-162.633-53.007-189.136-103.605h-2.409v87.944h-191.548v-643.315h199.981v319.247c0 84.331 15.661 165.047 119.263 165.047 102.4 0 103.605-95.172 103.605-169.865v-313.224h199.981v-1.205zM50.824 609.412h199.981v-643.312h-199.981v643.312zM150.828 929.882c-63.849 0-115.652-51.802-115.652-115.652s51.802-116.856 115.652-116.856c63.849 0 115.652 53.007 115.652 116.856s-51.802 115.652-115.652 115.652z" />
<glyph unicode="&#xe93a;" glyph-name="icn_location" d="M515.461 939.52c-196.312 0-356.021-159.71-356.021-356.018 0-243.624 318.604-601.279 332.166-616.389 12.743-14.189 34.988-14.164 47.706 0 13.566 15.11 332.169 372.765 332.169 616.389-0.004 196.308-159.711 356.018-356.020 356.018zM515.461 37.642c-107.228 127.365-291.908 378.655-291.908 545.856 0 160.961 130.948 291.909 291.908 291.909 160.956 0 291.906-130.948 291.906-291.907 0-167.207-184.652-418.452-291.906-545.858zM515.441 762.64c-98.767 0-179.121-80.354-179.121-179.123s80.354-179.123 179.121-179.123c98.767 0 179.118 80.355 179.118 179.123s-80.351 179.123-179.118 179.123zM515.441 468.509c-63.418 0-115.008 51.593-115.008 115.009 0 63.418 51.594 115.010 115.008 115.010s115.007-51.592 115.007-115.010c0-63.416-51.593-115.009-115.007-115.009z" />
<glyph unicode="&#xe93b;" glyph-name="icn_location_fill" d="M512.037 934.088c-93.709 0-183.58-37.226-249.843-103.488s-103.488-156.133-103.488-249.843c0-186.623 314.785-581.39 328.276-598.412 3.009-3.753 6.823-6.782 11.16-8.861s9.085-3.162 13.894-3.162c4.809 0 9.558 1.084 13.894 3.162s8.15 5.108 11.16 8.861c13.491 17.022 328.273 411.79 328.273 598.412 0 93.709-37.225 183.58-103.484 249.843-66.265 66.262-156.135 103.488-249.843 103.488zM512.037 484.395c-25.412 0-50.253 7.535-71.382 21.653s-37.597 34.184-47.322 57.661c-9.724 23.478-12.269 49.312-7.311 74.235s17.194 47.817 35.163 65.785c17.969 17.969 40.863 30.206 65.786 35.164s50.757 2.413 74.235-7.311c23.477-9.725 43.544-26.193 57.662-47.322 14.116-21.129 21.651-45.97 21.651-71.382 0-34.076-13.534-66.756-37.63-90.852s-56.776-37.632-90.852-37.632z" />
<glyph unicode="&#xe93c;" glyph-name="icn_mail" d="M891.761 808.96h-752.641c-63.521 0-115.2-51.679-115.2-115.2v-491.52c0-63.521 51.679-115.2 115.2-115.2h752.641c63.521 0 115.2 51.679 115.2 115.2v491.52c0 63.521-51.679 115.2-115.2 115.2zM930.161 202.24c0-21.172-17.228-38.4-38.4-38.4h-752.641c-21.173 0-38.4 17.228-38.4 38.4v491.52c0 21.174 17.227 38.4 38.4 38.4h752.641c21.172 0 38.4-17.226 38.4-38.4v-491.52zM923.636 761.080l-408.199-303.622-408.198 303.622-45.838-61.622 454.037-337.715 454.038 337.715-45.838 61.622z" />
<glyph unicode="&#xe93d;" d="M407.678 869.241h205.7v-49.082h-205.7v49.082z" />
<glyph unicode="&#xe93e;" d="M586.164 40.141c0-40.964-33.208-74.171-74.171-74.171s-74.171 33.208-74.171 74.171c0 40.964 33.208 74.171 74.171 74.171s74.171-33.208 74.171-74.171z" />
<glyph unicode="&#xe93f;" d="M788.776 929.598c-20.253 20.275-44.262 30.402-71.995 30.402h-409.591c-27.739 0-51.736-10.135-72.004-30.402-20.266-20.256-30.402-44.261-30.402-71.993v-819.205c0-27.728 10.136-51.73 30.402-71.993 20.268-20.27 44.264-30.407 72.004-30.407h409.591c27.728 0 51.741 10.147 71.993 30.407 20.27 20.262 30.407 44.264 30.407 71.993v819.205c0 27.732-10.123 51.726-30.405 71.993zM447.989 857.605h128.009c8.536 0 12.793-4.268 12.793-12.802 0-8.532-4.261-12.805-12.793-12.805h-128.009c-8.534 0-12.8 4.273-12.8 12.805-0.004 8.535 4.264 12.802 12.8 12.802zM557.2-6.802c-12.542-12.522-27.606-18.792-45.211-18.792-17.596 0-32.66 6.27-45.197 18.792-12.537 12.544-18.803 27.617-18.803 45.202 0 17.605 6.276 32.673 18.803 45.206 12.528 12.522 27.602 18.812 45.197 18.812 17.609 0 32.671-6.29 45.211-18.812 12.533-12.533 18.796-27.6 18.796-45.206s-6.272-32.66-18.796-45.202zM742.395 166.395c0-6.925-2.531-12.946-7.605-18-5.080-5.063-11.065-7.585-17.988-7.585h-409.611c-6.932 0-12.93 2.531-17.997 7.585-5.065 5.054-7.6 11.076-7.6 18v563.196c0 6.934 2.531 12.937 7.6 17.999 5.069 5.058 11.065 7.605 17.997 7.605h409.591c6.943 0 12.933-2.536 18.008-7.605 5.074-5.063 7.594-11.065 7.594-17.999v-563.195l0.011-0.002z" />
<glyph unicode="&#xe940;" glyph-name="icn_mobile_app" d="M290.563 717.642l-82.958 82.959c-11.458 11.458-30.022 11.458-41.479 0s-11.458-30.022 0-41.479l82.958-82.959c11.457-11.457 30.021-11.457 41.479 0 11.46 11.457 11.46 30.021 0 41.479zM166.733 477.334h-119.289c-16.214 0-29.333-13.121-29.333-29.334s13.12-29.334 29.333-29.334h119.289c16.214 0 29.333 13.121 29.333 29.334s-13.12 29.334-29.333 29.334zM990.021 477.334h-119.289c-16.213 0-29.332-13.121-29.332-29.334s13.119-29.334 29.332-29.334h119.289c16.213 0 29.334 13.121 29.334 29.334s-13.121 29.334-29.334 29.334zM871.342 800.601c-11.457 11.458-30.021 11.458-41.479 0l-82.96-82.959c-11.457-11.457-11.457-30.021 0-41.479 11.46-11.457 30.024-11.457 41.481 0l82.958 82.959c11.457 11.458 11.457 30.020 0 41.479zM518.733 948.622c-16.213 0-29.334-13.12-29.334-29.333v-119.289c0-16.214 13.121-29.333 29.334-29.333s29.334 13.12 29.334 29.333v119.289c0 16.213-13.121 29.333-29.334 29.333zM682.992 655.094c-63.943 50.454-146.666 68.639-227.626 49.279-93.867-21.707-169.545-96.213-192.426-189.495-22.881-93.864 3.52-188.903 70.984-255.197 24.055-24.055 38.136-61.797 38.136-100.518v-6.453c0-16.425 12.905-29.334 29.332-29.334h234.667c16.43 0 29.334 12.909 29.334 29.334v6.453c0 38.136 14.666 77.050 40.48 102.277 49.282 49.867 76.855 116.158 76.855 186.559 0 80.96-36.375 156.64-99.735 207.094zM518.727 536c-44.255 0-76.47-29.357-84.906-63.338-3.839-15.456-19.39-25.318-35.551-21.427-15.697 3.896-25.295 19.822-21.397 35.521 14.534 58.666 69.637 107.909 141.854 107.909 16.213 0 29.334-13.121 29.334-29.334s-13.121-29.332-29.334-29.332zM401.399 64.71v-29.332c0-48.526 39.476-88 88-88h58.668c48.524 0 87.998 39.474 87.998 88v29.332h-234.667z" />
<glyph unicode="&#xe941;" glyph-name="icn_mobile_apps" d="M575.926 637.908c0 35.241-28.672 63.913-63.913 63.913s-63.913-28.672-63.913-63.913c0-35.244 28.672-63.916 63.913-63.916s63.913 28.672 63.913 63.916zM795.036 217.907v597.13c0 55.38-45.053 100.435-100.434 100.435h-365.217c-55.38 0-100.435-45.055-100.435-100.435v-597.13h566.086zM585.037 327.473h-146.086c-15.127 0-27.392 12.262-27.392 27.389 0 15.13 12.265 27.392 27.392 27.392h146.086c15.127 0 27.392-12.262 27.392-27.392 0-15.127-12.265-27.389-27.392-27.389zM365.906 665.298h30.618c2.964 12.498 7.892 24.241 14.472 34.87l-21.668 21.67c-10.698 10.697-10.698 28.039 0 38.737 10.693 10.697 28.037 10.697 38.735 0l21.668-21.668c10.629 6.578 22.374 11.506 34.872 14.472v30.616c0 15.127 12.262 27.391 27.389 27.391 15.13 0 27.392-12.264 27.392-27.391v-30.616c12.498-2.966 24.241-7.894 34.872-14.472l21.668 21.668c10.696 10.697 28.040 10.697 38.735 0 10.698-10.697 10.698-28.039 0-38.737l-21.668-21.67c6.579-10.629 11.507-22.372 14.472-34.87h30.618c15.127 0 27.389-12.265 27.389-27.392s-12.262-27.389-27.389-27.389h-30.618c-2.964-12.498-7.892-24.243-14.472-34.872l21.668-21.668c10.698-10.698 10.698-28.040 0-38.738-5.348-5.348-12.357-8.023-19.366-8.023s-14.021 2.673-19.366 8.023l-21.67 21.67c-10.629-6.579-22.372-11.507-34.87-14.472v-30.618c0-15.127-12.265-27.392-27.392-27.392s-27.392 12.265-27.392 27.392v30.618c-12.495 2.964-24.241 7.892-34.87 14.472l-21.668-21.67c-5.35-5.348-12.36-8.023-19.369-8.023-7.007 0-14.019 2.673-19.366 8.023-10.698 10.698-10.698 28.040 0 38.738l21.668 21.668c-6.577 10.629-11.505 22.374-14.472 34.872h-30.62c-15.127 0-27.389 12.262-27.389 27.389s12.262 27.392 27.389 27.392zM228.95 163.123v-82.173c0-55.38 45.054-100.434 100.435-100.434h365.217c55.38 0 100.434 45.053 100.434 100.434v82.173h-566.086zM548.516 44.429h-73.044c-15.127 0-27.392 12.262-27.392 27.389s12.265 27.392 27.392 27.392h73.044c15.127 0 27.389-12.265 27.389-27.392s-12.262-27.389-27.389-27.389z" />
<glyph unicode="&#xe942;" glyph-name="icn_mobile_apps_developed" d="M744.066 947.512h-476.617c-52.865 0-96.156-43.083-96.156-96.156v-65.831h668.929v65.831c0 53.073-43.29 96.156-96.156 96.156zM367.496 827.296h-46.35v41.626h46.35v-41.626zM567.301 827.296h-123.087v41.626h123.087v-41.626zM171.293 165.276h668.929v578.622h-668.929v-578.622zM633.736 674.361h104.835v-104.835h-104.835v104.835zM453.33 674.361h104.855v-104.835h-104.875v104.835h0.020zM453.33 490.791h104.855v-104.835h-104.875v104.835h0.020zM272.943 674.361h104.855v-104.835h-104.855v104.835zM272.943 490.791h104.855v-104.835h-104.855v104.835zM171.293 44.644c0-53.073 43.291-96.156 96.156-96.156h476.617c52.866 0 96.156 43.083 96.156 96.156v79.005h-668.929v-79.005zM444.214 69.702h123.087v-41.624h-123.087v41.624z" />
<glyph unicode="&#xe943;" glyph-name="icn_monthly_seminar" d="M509.235 800.782c36.409 0 65.233 30.341 65.233 65.233s-28.824 66.75-65.233 66.75c-36.409 0-65.233-28.824-65.233-65.233s28.824-66.75 65.233-66.75zM721.62 357.806h-424.769c-6.069 0-12.138-4.551-12.138-12.136v-53.096c0-6.069 4.551-12.138 12.138-12.138h424.769c6.069 0 12.138 4.551 12.138 12.138v53.096c0 7.584-6.069 12.136-12.138 12.136zM764.097 649.077c-7.584 15.171-24.273 24.273-43.993 24.273h-423.253c-18.204 0-34.893-9.102-43.996-24.273-15.169-27.307 10.62-65.231 45.511-66.749h418.702c37.927 1.518 62.2 39.442 47.029 66.749zM718.586 559.573h-417.184l6.067-179.011h403.533l7.584 179.011zM354.497 787.128c21.238 0 39.442 18.204 39.442 39.443s-18.204 39.443-39.442 39.443c-21.238 0-39.442-18.204-39.442-39.443 0-22.756 16.687-39.443 39.442-39.443zM663.973 787.128c21.238 0 39.442 18.204 39.442 39.443s-18.204 39.443-39.442 39.443c-21.238 0-39.442-18.204-39.442-39.443 1.516-22.756 18.204-39.443 39.442-39.443zM312.020 781.060c-6.067 4.551-10.618 12.136-13.653 18.204-40.96-36.409-25.789-83.436-28.822-109.227 7.584 3.036 15.169 4.551 22.756 4.551 1.516 24.273-9.102 59.165 19.72 86.472zM387.873 694.588h242.724v10.62c0 43.994-36.409 80.403-80.402 80.403h-80.402c-43.996 0-80.404-36.409-80.404-80.403v-10.62h-1.516zM726.171 694.588c7.587 0 15.171-3.033 22.756-4.551-3.033 25.791 10.62 72.818-28.822 109.227-3.036-7.585-7.587-13.653-13.653-18.204 28.822-28.824 16.687-60.681 19.72-86.472zM638.184 21.024v-47.027c0-6.069-4.551-12.138-12.138-12.138h-235.14c-6.069 0-12.136 4.551-12.136 12.138v47.027c0 47.029 39.442 86.471 86.471 86.471h86.471c48.544 0 86.471-39.442 86.471-86.471zM304.435 21.024v-47.027c0-6.069-4.551-12.138-12.136-12.138h-235.141c-6.068 0-12.136 4.551-12.136 12.138v47.027c0 47.029 37.926 86.471 86.471 86.471h86.471c47.028 0 86.471-39.442 86.471-86.471zM774.717 195.484c0 37.927 31.858 69.784 69.782 69.784 37.927 0 69.784-31.858 69.784-69.784 0-39.442-31.858-69.784-69.784-69.784-39.442 0-69.782 31.858-69.782 69.784zM439.451 195.484c0 37.927 31.858 69.784 69.784 69.784s69.784-31.858 69.784-69.784c0-39.442-31.858-69.784-69.784-69.784s-69.784 31.858-69.784 69.784zM105.704 195.484c0 37.927 31.858 69.784 69.784 69.784s69.783-31.858 69.783-69.784c0-39.442-31.857-69.784-69.783-69.784-39.443 0-69.784 31.858-69.784 69.784zM973.449 21.024v-47.027c0-6.069-4.551-12.138-12.136-12.138h-235.142c-6.067 0-12.136 4.551-12.136 12.138v47.027c0 47.029 37.927 86.471 86.471 86.471h86.471c47.029 0 86.471-39.442 86.471-86.471z" />
<glyph unicode="&#xe944;" glyph-name="icn_paperclip" d="M119.935 81.468c59.787-59.784 138.293-89.678 216.825-89.666 78.519 0.006 157.057 29.895 216.832 89.666l376.242 376.244c85.402 85.402 85.396 224.355-0.006 309.753-41.364 41.371-96.364 64.153-154.871 64.153s-113.507-22.782-154.879-64.153l-345.271-345.265c-51.239-51.239-51.239-134.613 0-185.855 51.245-51.236 134.619-51.236 185.858 0.006l227.355 227.353c17.107 17.108 17.107 44.843 0 61.951s-44.845 17.107-61.951 0l-227.354-227.352c-17.079-17.089-44.872-17.083-61.956-0.006-17.079 17.083-17.079 44.875 0 61.955l345.274 345.262c24.823 24.821 57.82 38.492 92.925 38.492s68.102-13.67 92.919-38.492c51.242-51.241 51.248-134.613 0.006-185.855l-376.24-376.239c-85.405-85.396-224.36-85.396-309.756 0-41.37 41.37-64.155 96.376-64.155 154.877 0 58.507 22.785 113.512 64.155 154.882l376.237 376.242c17.104 17.107 17.104 44.846 0 61.951s-44.843 17.108-61.951 0l-376.236-376.243c-57.918-57.917-89.817-134.923-89.817-216.833 0-81.908 31.9-158.913 89.817-216.829z" />
<glyph unicode="&#xe945;" glyph-name="icn_product_design" d="M962.849 442.829c-8.62 154.168-98.335 290.625-227.274 365.171h113.951c12.426-34.844 45.414-60 84.475-60 49.628 0 89.999 40.372 89.999 90s-40.371 90-89.999 90c-39.060 0-72.049-25.156-84.475-60h-247.526v60h-179.999v-60h-247.527c-12.426 34.844-45.414 60-84.474 60-49.628 0-90-40.372-90-90s40.372-90 90-90c39.060 0 72.048 25.156 84.474 60.020h113.954c-128.942-74.568-218.653-210.969-227.278-365.191-35.434-12.099-61.15-45.348-61.15-84.828 0-49.628 40.372-89.999 90-89.999s90 40.371 90 89.999c0 38.249-24.086 70.781-57.802 83.789 10.66 170.593 134.601 314.641 299.803 354.075v-47.864h179.999v47.864c165.202-39.434 289.142-183.481 299.802-354.075-33.715-13.007-57.8-45.54-57.8-83.789 0-49.628 40.371-89.999 89.999-89.999s89.999 40.371 89.999 89.999c0 39.48-25.715 72.73-61.151 84.828zM302.001 88h419.999v-120h-419.999v120zM297.8 359.319l105.644-211.318h217.096l105.641 211.318-184.189 306.985v-338.304h-60.001v338.304l-184.189-306.985z" />
<glyph unicode="&#xe946;" glyph-name="icn_product_develop" d="M990.021 948.622h-119.289c-16.213 0-29.332-13.12-29.332-29.333v-29.333h-240.071c-12.149 34.070-44.403 58.667-82.596 58.667s-70.447-24.597-82.596-58.667h-240.071v29.333c0 16.213-13.12 29.333-29.333 29.333h-119.289c-16.214 0-29.333-13.12-29.333-29.333v-117.333c0-16.214 13.12-29.334 29.333-29.334h119.289c16.214 0 29.333 13.12 29.333 29.334v29.724h120.47c-101.8-63.597-168.925-175.296-176.948-300.404-35.196-11.519-60.855-44.282-60.855-83.276 0-48.526 39.475-88 88-88s87.999 39.474 87.999 88c0 37.428-23.586 69.252-56.593 81.952 10.009 139.48 107.333 257.040 242.711 290.581 14.641-28.31 43.87-47.911 77.883-47.911s63.242 19.601 77.883 47.911c135.377-33.54 232.703-151.099 242.711-290.579-33.007-12.702-56.593-44.526-56.593-81.954 0-48.526 39.474-88 87.998-88 48.526 0 88 39.474 88 88 0 38.994-25.659 71.757-60.855 83.276-8.024 125.108-75.148 236.416-176.947 300.013h120.47v-29.333c0-16.214 13.119-29.334 29.332-29.334h119.289c16.213 0 29.334 13.12 29.334 29.334v117.333c0 16.213-13.121 29.333-29.334 29.333zM718.302-16.238c-15.344 46.949-59.547 82.905-111.566 82.905h-176.001c-52.017 0-96.22-35.956-111.564-82.905-5.914-18.104 9.485-36.384 28.531-36.384h342.066c19.046 0 34.447 18.28 28.533 36.384zM777.805 346.933l-229.738 344.61v-278.282c34.070-12.149 58.666-44.405 58.666-82.598 0-48.524-39.474-87.998-88-87.998-48.524 0-88 39.474-88 87.998 0 38.193 24.596 70.449 58.666 82.598v278.282l-229.738-344.61c-7.764-11.628-6.217-27.127 3.666-37.010 53.851-53.851 88.273-123.224 101.556-197.639 20.378 8.267 42.539 13.046 65.85 13.046h176.001c23.311 0 45.472-4.776 65.85-13.041 13.282 74.417 47.705 143.783 101.556 197.634 9.883 9.883 11.43 25.382 3.666 37.010zM518.733 360c-16.184 0-29.334-13.148-29.334-29.332 0-16.186 13.15-29.334 29.334-29.334s29.334 13.148 29.334 29.334c0 16.184-13.15 29.332-29.334 29.332z" />
<glyph unicode="&#xe947;" glyph-name="icn_projects_completed" d="M965.802 815.707c-12.528 12.534-27.401 22.476-43.772 29.259s-33.917 10.275-51.637 10.275c-17.72 0-35.268-3.491-51.637-10.275-16.372-6.783-31.244-16.726-43.772-29.259l-20.627-20.628c-82.782 70.011-187.857 108.131-296.273 107.48-108.414-0.651-213.025-40.029-294.959-111.029s-135.793-168.946-151.86-276.166c-16.067-107.218 6.717-216.648 64.24-308.546s145.998-160.211 249.458-192.612c103.461-32.401 215.097-26.754 314.763 15.917s180.798 119.561 228.759 216.791c47.958 97.233 59.587 208.404 32.788 313.454l64.529 64.522c25.273 25.32 39.466 59.634 39.466 95.409s-14.194 70.088-39.466 95.409zM902.194 688.498l-425.165-425.122c-25.343-25.3-59.687-39.519-95.497-39.534-2.018 0-4.039 0.042-6.059 0.13-18.732 0.869-37.076 5.625-53.872 13.961s-31.674 20.075-43.692 34.469l-117.678 150.273c-7.181 9.403-10.368 21.259-8.869 32.995 1.499 11.739 7.562 22.413 16.877 29.711s21.129 10.63 32.884 9.278c11.755-1.354 22.504-7.283 29.917-16.506l116.846-149.219c3.956-4.561 8.811-8.254 14.261-10.849s11.376-4.039 17.41-4.238c6.251-0.317 12.5 0.687 18.337 2.95 5.834 2.265 11.127 5.734 15.53 10.185l425.167 425.119c4.148 4.296 9.114 7.723 14.601 10.080s11.389 3.598 17.363 3.65c5.972 0.052 11.896-1.086 17.423-3.348s10.55-5.602 14.773-9.825c4.223-4.223 7.563-9.246 9.825-14.774 2.26-5.528 3.399-11.451 3.347-17.423-0.050-5.973-1.291-11.875-3.649-17.363s-5.784-10.451-10.080-14.6z" />
<glyph unicode="&#xe948;" glyph-name="icn_quality_assurance" d="M665.6 755.194c-84.695 0-153.6-68.904-153.6-153.599s68.905-153.6 153.6-153.6c84.695 0 153.6 68.905 153.6 153.6s-68.905 153.599-153.6 153.599zM640 514.191l-69.302 69.302 36.204 36.204 33.098-33.098 84.298 84.296 36.204-36.204-120.502-120.499zM662.589 959.994c-199.283 0-361.413-162.129-361.413-361.412 0-88.822 32.228-170.248 85.578-233.242l-70.52-70.518-45.176 45.176-243.522-243.525c-17.757-17.754-27.536-41.362-27.536-66.476 0-51.835 42.171-94.003 94.005-94.003 25.11 0 48.718 9.777 66.472 27.533l243.527 243.525-45.176 45.176 70.52 70.52c62.994-53.35 144.42-85.578 233.242-85.578 199.281 0 361.411 162.127 361.411 361.411s-162.13 361.412-361.411 361.412zM662.589 357.64c-132.856 0-240.942 108.086-240.942 240.942s108.086 240.941 240.942 240.941c132.854 0 240.94-108.084 240.94-240.941s-108.086-240.942-240.94-240.942z" />
<glyph unicode="&#xe949;" glyph-name="icn_quote" d="M576 384v448h448v-454.4c0-307.2-288-345.6-288-345.6l-38.4 89.6c0 0 128 19.2 153.6 121.6 25.6 76.8-25.6 140.8-25.6 140.8h-249.6zM0 384v448h448v-454.4c0-307.2-288-345.6-288-345.6l-38.4 89.6c0 0 128 19.2 153.6 121.6 25.6 76.8-25.6 140.8-25.6 140.8h-249.6z" />
<glyph unicode="&#xe94a;" glyph-name="icn_rate" d="M1007.566 577.572c-6.523 20.173-24.418 34.503-45.587 36.41l-287.567 26.112-113.711 266.153c-8.386 19.506-27.479 32.132-48.695 32.132s-40.312-12.626-48.695-32.177l-113.711-266.107-287.613-26.112c-21.132-1.954-38.981-16.237-45.541-36.41-6.56-20.176-0.502-42.302 15.484-56.254l217.366-190.63-64.096-282.344c-4.69-20.76 3.368-42.219 20.593-54.671 9.259-6.689 20.091-10.096 31.014-10.096 9.418 0 18.761 2.541 27.145 7.558l248.054 148.253 247.963-148.253c18.144-10.918 41.018-9.922 58.205 2.538 17.231 12.49 25.282 33.955 20.591 54.671l-64.094 282.344 217.365 190.594c15.985 13.987 22.091 36.075 15.532 56.29z" />
<glyph unicode="&#xe94b;" glyph-name="icn_search" d="M769.323 251.008l182.741-182.699-60.373-60.373-182.699 182.741c-67.981-54.494-152.533-84.134-239.659-84.011-211.968 0-384 172.032-384 384s172.032 384 384 384c211.968 0 384-172.032 384-384 0.124-87.125-29.517-171.678-84.011-239.659zM683.733 282.667c54.148 55.684 84.39 130.33 84.267 208 0 165.035-133.675 298.667-298.667 298.667-165.035 0-298.667-133.632-298.667-298.667 0-164.992 133.632-298.667 298.667-298.667 77.67-0.124 152.316 30.118 208 84.267l6.4 6.4z" />
<glyph unicode="&#xe94c;" glyph-name="icn_Shopping" horiz-adv-x="1045" d="M906.641 680.608c-0.311 4.169-3.799 7.392-7.974 7.392h-144v40c0 127.928-104.081 232-232 232-127.921 0-232-104.072-232-232v-40h-144.001c-4.176 0-7.664-3.223-7.976-7.392l-56-736c-0.168-2.217 0.592-4.407 2.112-6.039 1.512-1.641 3.64-2.569 5.864-2.569h864.001c2.223 0 4.352 0.928 5.862 2.56 1.513 1.632 2.281 3.823 2.112 6.039l-56 736.009zM354.667 728c0 92.632 75.36 168 168 168s168-75.368 168-168v-40h-336v40zM322.667 464c-44.122 0-80 35.889-80 80 0 31.927 16 60.695 48 73.321v-73.321c0-17.647 14.359-32 32-32 17.638 0 32 14.353 32 32v73.271c32-12.623 48-41.609 48-73.271 0-44.111-35.881-80-80-80zM722.667 464c-44.122 0-80 35.889-80 80 0 31.927 16 60.695 48 73.321v-73.321c0-17.647 14.359-32 32-32 17.638 0 32 14.353 32 32v73.271c32-12.623 48-41.609 48-73.271 0-44.111-35.881-80-80-80z" />
<glyph unicode="&#xe94d;" glyph-name="icn_skill_enhanc_ment" d="M37.778 27.477c0-20.025 16.020-36.045 36.045-36.045h112.139c16.020 4.005 32.040 20.025 32.040 36.045v88.11c0 20.025-16.020 36.045-36.045 36.045h-108.134c-20.025 0-36.045-16.020-36.045-36.045v-88.11zM442.272-4.562c20.025 0 36.045 16.020 36.045 36.045v208.259c0 20.025-16.020 36.045-36.045 36.045h-112.139c-20.025 0-36.045-16.020-36.045-36.045v-212.264c0-20.025 16.020-36.045 36.045-36.045h112.139v4.005zM590.445-4.562h112.139c20.025 0 36.045 16.020 36.045 36.045v324.403c0 20.025-16.020 36.045-36.045 36.045h-112.139c-20.025 0-36.045-16.020-36.045-36.045v-328.408c4.005-16.020 20.025-32.040 36.045-32.040zM998.985 552.129c0 20.025-16.020 36.045-36.045 36.045h-112.139c-20.025 0-36.045-16.020-36.045-36.045v-520.647c0-20.025 16.020-36.045 36.045-36.045h112.139c20.025 0 36.045 16.020 36.045 36.045v520.647zM842.777 716.334c8.010-8.010 16.020-8.010 24.030-8.010 4.005 0 12.015 0 16.020 4.005 16.020 4.005 28.035 20.025 28.035 36.045l8.010 108.134c0 16.020-8.010 28.035-16.020 36.045-12.015 8.010-28.035 12.015-40.050 4.005l-100.124-36.045c-16.020-4.005-24.030-20.025-28.035-36.045s4.005-32.040 16.020-40.050l16.020-12.015c-136.169-160.199-392.488-336.418-616.766-336.418-24.030 0-40.050-16.020-40.050-40.050s16.020-40.050 40.050-40.050c252.313 0 532.662 192.239 680.846 372.463l12.015-12.015z" />
<glyph unicode="&#xe94e;" glyph-name="icn_strategize" d="M425.79 664.047c2.339-33.712 40.858-52.171 68.699-33.020 24.487 16.86 57.92-0.7 57.92-30.454v-122.421h91.712c-16.29 66.507 36.443 131.302 106.59 126.458 61.717-4.276 107.487-63.704 92.074-126.458h92.636c77.517 117.198-0.551 286.76-151.602 294.517 17.079 90.196-52.468 173.337-143.609 173.337-32.923 0-63.339-10.944-87.801-29.38v-182.711c0-29.734-33.405-47.323-57.925-30.456-29.79 20.495-71.276-2.144-68.694-39.413zM236.309 478.147c29.74 0 47.325-33.413 30.452-57.928-20.399-29.641 1.998-71.254 39.426-68.672 33.789 2.344 52.155 40.891 33.028 68.68-16.866 24.501 0.708 57.92 30.457 57.92h124.388v89.796c-62.896-15.451-122.207 30.49-126.481 92.066-4.843 69.848 59.68 122.932 126.481 106.576v150.036c-104.719 78.92-254.737-11.193-231.757-142.025-151.953-8.074-228.851-178.004-150.665-296.45h124.671zM934.466 419.785h-124.286c-29.754 0-47.32 33.421-30.457 57.922 19.143 27.8 0.728 66.336-33.028 68.677-37.42 2.599-59.832-39.017-39.424-68.672 16.868-24.515-0.706-57.928-30.452-57.928h-124.388v-89.744c66.61 16.307 131.335-36.557 126.481-106.576-4.273-61.598-63.601-107.503-126.481-92.066v-152.039c104.719-78.92 254.738 11.195 231.756 142.026 148.303 7.882 230.735 174.26 150.279 298.399zM620.688 227.502c2.582 37.249-38.901 59.91-68.691 39.407-24.507-16.849-57.928 0.697-57.928 30.457v122.418h-91.761c15.886-64.645-33.355-126.716-99.436-126.716-66.705 0-114.877 62.854-99.229 126.716h-91.985c-78.143-118.433-1.395-288.641 151.003-296.467-17.080-90.198 52.466-173.338 143.61-173.338 32.923 0 63.339 10.946 87.801 29.38v184.66c0 29.732 33.407 47.325 57.917 30.457 27.786-19.121 66.355-0.756 68.699 33.025z" />
<glyph unicode="&#xe94f;" glyph-name="icn_taxi" d="M384 917.333c-23.563-0.002-42.665-19.104-42.667-42.667v-85.333h-70.833c-25.903 0.008-49.312-15.435-59.5-39.25l-66.167-154.499c-5.107-11.891-16.809-19.595-29.75-19.584h-72.417c-23.563-0.002-42.664-19.104-42.667-42.667v-42.667c-0.001-16.162 9.129-30.938 23.583-38.167l42.667-21.333c11.685-5.835 19.072-17.771 19.083-30.833v-336.333c0-46.537 38.797-85.333 85.333-85.333s85.333 38.797 85.333 85.333v21.333c0 11.782 9.551 21.333 21.333 21.333h469.333c11.782 0 21.333-9.551 21.333-21.333v-21.333c0-46.537 38.797-85.333 85.333-85.333s85.333 38.797 85.333 85.333v336.333c0.011 13.062 7.398 24.998 19.083 30.833l42.667 21.333c14.455 7.23 23.586 22.005 23.584 38.167v42.667c-0.002 23.563-19.104 42.665-42.667 42.667h-72.416c-12.941-0.011-24.644 7.693-29.751 19.584l-66.165 154.499c-10.189 23.815-33.598 39.258-59.501 39.25h-70.833v85.333c-0.002 23.563-19.104 42.664-42.667 42.667h-256zM305.25 704h413.25c12.941 0.011 24.642-7.693 29.749-19.584l74.583-174.165c3.951-9.271-2.839-19.567-12.917-19.584h-595.831c-10.078 0.017-16.868 10.313-12.918 19.584l74.584 174.165c5.071 11.808 16.649 19.494 29.5 19.584zM192 362.667h128c11.819 0 21.333-9.515 21.333-21.333v-42.667c0-11.819-9.515-21.333-21.333-21.333h-128c-11.819 0-21.333 9.515-21.333 21.333v42.667c0 11.819 9.515 21.333 21.333 21.333zM704 362.667h128c11.819 0 21.333-9.515 21.333-21.333v-42.667c0-11.819-9.515-21.333-21.333-21.333h-128c-11.819 0-21.333 9.515-21.333 21.333v42.667c0 11.819 9.515 21.333 21.333 21.333z" />
<glyph unicode="&#xe950;" glyph-name="icn_telegram" d="M984.269 858.978c-15.815 14.49-38.289 19.319-58.663 12.605l-864.362-284.93c-23.557-7.764-39.531-28.792-40.696-53.567-1.164-24.777 12.766-47.21 35.487-57.156l213.763-93.524c1.042-4.841 62.408-289.452 64.495-299.127 2.678-12.427 8.985-23.495 22.347-26.898 13.515-3.445 23.063 3.94 33.147 11.489 5.612 4.202 158.631 118.784 158.631 118.784l185.45-151.757c10.801-8.843 24.003-13.455 37.466-13.455 6.406 0.004 12.878 1.049 19.173 3.183 19.517 6.619 33.985 22.548 38.703 42.611l172.737 734.403c4.907 20.88-1.86 42.849-17.678 57.339zM403.605 328.81c-0.106-0.25-0.209-0.528-0.307-0.868l-35.758-124.932-39.905 185.082 274.4 152.457-191.848-200.598c-3.022-3.162-5.245-6.984-6.581-11.141zM414.954 158.843l31.776 111.022 55.661-45.548-87.437-65.475zM945.742 814.86l-172.732-734.403c-0.086-0.365-0.201-0.868-1.044-1.155-0.836-0.283-1.245 0.041-1.532 0.279l-202.928 166.056c-0.004 0.004-0.008 0.012-0.016 0.012l-94.020 76.939 302.060 315.837c9.867 10.316 10.711 26.292 1.991 37.591-8.729 11.301-24.4 14.529-36.872 7.594l-447.267-248.505-214.201 93.721c-0.652 0.287-1.012 0.446-0.96 1.548s0.424 1.225 1.1 1.45l864.362 284.927c0.418 0.136 0.889 0.294 1.585-0.34 0.692-0.638 0.578-1.121 0.475-1.552z" />
<glyph unicode="&#xe951;" glyph-name="icn_twitter" d="M998.942 746.827c-35.84-15.721-74.029-26.142-113.845-31.202 40.96 24.456 72.222 62.886 86.92 109.207-38.189-22.769-80.354-38.852-125.289-47.827-36.262 38.611-87.944 62.524-144.324 62.524-109.388 0-197.452-88.787-197.452-197.632 0-15.661 1.325-30.72 4.578-45.056-164.262 8.011-309.609 86.739-407.251 206.667-17.047-29.576-27.046-63.428-27.046-99.87 0-68.427 35.238-129.084 87.763-164.201-31.744 0.602-62.886 9.818-89.269 24.335 0-0.602 0-1.385 0-2.168 0-96.015 68.488-175.767 158.298-194.138-16.083-4.397-33.611-6.505-51.802-6.505-12.649 0-25.419 0.723-37.406 3.373 25.6-78.246 98.244-135.77 184.621-137.638-67.223-52.585-152.576-84.269-244.977-84.269-16.203 0-31.744 0.723-47.284 2.711 87.522-56.44 191.247-88.666 303.104-88.666 363.581 0 562.358 301.176 562.358 562.236 0 8.734-0.301 17.167-0.723 25.54 39.213 27.829 72.162 62.584 99.027 102.581z" />
<glyph unicode="&#xe952;" glyph-name="icn_web_develop" d="M1019.358 373.307v148.985l-101.726 12.415c-10.012 44.255-27.234 85.506-50.863 122.753l63.279 80.901-105.331 105.331-80.901-63.279c-37.046 23.429-78.498 40.851-122.753 50.863l-12.415 101.726h-74.493v-225.080c71.689 0 136.97-29.036 183.828-76.095 47.058-47.058 76.095-112.139 76.095-183.828s-29.036-136.97-76.095-183.828c-47.058-47.058-111.939-76.095-183.828-76.095v-225.080h74.493l12.415 101.726c44.255 10.012 85.506 27.234 122.753 50.863l80.901-63.279 105.331 105.331-63.279 80.901c23.429 37.046 40.851 78.498 50.863 122.753l101.726 12.015zM668.722 582.367c-34.443 34.443-82.102 55.869-134.567 55.869v-66.483c34.042 0 65.081-13.817 87.509-36.245 22.228-22.228 36.245-53.466 36.245-87.509s-13.817-65.081-36.245-87.509c-22.228-22.228-53.466-36.245-87.509-36.245v-66.683c52.665 0 100.124 21.226 134.567 55.869 34.443 34.443 55.869 82.102 55.869 134.567s-21.427 99.924-55.869 134.367zM480.286 892.752c-4.806 0.2-10.813 0.4-16.621 0.4h-2.603c-131.564-0.801-255.317-59.274-339.622-160.6-7.209-8.611-14.418-18.022-21.427-27.834-53.466-75.294-81.902-164.204-81.902-256.919s28.235-181.425 81.902-256.919c6.808-9.612 14.017-19.024 21.427-28.035 84.305-101.326 208.259-159.799 339.822-160.6h2.603c5.807 0 11.815 0.2 16.621 0.4l11.014 0.4v889.305l-11.214 0.4zM435.83 258.965v-197.646c-60.675 14.618-116.144 79.299-149.786 175.018 47.259 13.216 97.521 20.826 149.786 22.628zM253.003 405.747h182.827v-91.313c-57.672-2.002-113.341-10.613-165.606-25.632-9.011 37.447-14.818 76.695-17.221 116.945zM217.96 624.419c-13.417-51.664-20.826-106.332-21.627-163.203h-122.352c2.403 72.29 25.031 141.976 65.682 202.452 23.629-14.818 49.862-27.835 78.297-39.249zM233.979 218.715c17.422-48.060 40.25-90.713 66.683-124.955-48.060 22.228-91.914 54.868-127.759 94.918 18.623 11.014 39.049 21.226 61.076 30.037zM172.904 706.922c35.644 40.049 79.499 72.49 127.959 94.918-26.633-34.243-49.461-76.896-66.883-124.955-21.627 8.611-42.253 18.823-61.076 30.037zM197.334 405.747c2.603-46.257 9.412-91.514 20.626-134.567-28.636-11.414-54.868-24.631-78.297-39.449-34.843 52.265-56.67 112.139-63.479 174.016h121.151zM435.83 580.965v-119.549h-183.828c1.001 50.262 7.209 98.923 18.623 145.18 51.264-14.818 106.933-23.429 165.205-25.632zM435.83 834.28v-197.645c-52.866 2.002-103.128 9.612-149.786 22.628 33.842 95.719 89.311 160.399 149.786 175.017z" />
<glyph unicode="&#xe953;" glyph-name="icn_web_development" d="M691.375 647.82c-35.133 163.184-110.065 266.424-179.37 266.424s-144.237-103.24-179.37-266.424h358.74zM312.195 448c-0.007-44.551 2.962-89.056 8.891-133.212h381.855c5.929 44.157 8.899 88.661 8.891 133.212 0.007 44.554-2.962 89.058-8.891 133.212h-381.855c-5.929-44.154-8.899-88.658-8.891-133.212zM332.635 248.183c35.133-163.186 110.065-266.427 179.37-266.427s144.237 103.242 179.37 266.427h-358.74zM759.566 647.817h209.81c-31.527 71.744-79.425 135.101-139.856 184.989s-131.714 84.92-208.129 102.285c63.176-55.583 112.73-158.357 138.175-287.274zM993.335 581.212h-223.132c5.495-44.189 8.242-88.681 8.227-133.212 0.005-44.532-2.755-89.021-8.259-133.212h223.132c24.286 87.147 24.286 179.277 0 266.425h0.032zM621.391-39.092c76.428 17.356 147.723 52.384 208.167 102.273s108.352 113.249 139.883 185.002h-209.81c-25.51-128.917-75.064-231.691-138.24-287.274zM264.419 248.183h-209.81c31.531-71.752 79.441-135.113 139.884-185.002s131.74-84.917 208.168-102.273c-63.243 55.583-112.8 158.358-138.242 287.274zM402.612 935.091c-76.428-17.356-147.723-52.383-208.166-102.272s-108.353-113.25-139.884-185.002h209.811c25.51 128.918 75.064 231.691 138.24 287.274zM245.575 448c-0.004 44.534 2.754 89.023 8.26 133.212h-223.132c-24.287-87.147-24.287-179.277 0-266.425h223.132c-5.506 44.192-8.264 88.681-8.26 133.212z" />
<glyph unicode="&#xe954;" glyph-name="icn_webdevelopment" d="M415.491 628.547c0.041 0.591-0.036 1.183-0.228 1.743-0.189 0.563-0.489 1.080-0.881 1.526l-19.635 22.566c-0.781 0.899-1.887 1.452-3.077 1.539-1.188 0.084-2.363-0.305-3.264-1.083l-114.371-99.446c-0.481-0.425-0.868-0.947-1.134-1.533-0.264-0.584-0.402-1.219-0.402-1.861s0.138-1.277 0.402-1.864c0.266-0.584 0.653-1.106 1.134-1.531l114.391-99.459c0.443-0.389 0.96-0.689 1.521-0.878 0.558-0.189 1.149-0.266 1.738-0.225 0.591 0.041 1.165 0.2 1.692 0.466s0.998 0.635 1.382 1.083l19.645 22.579c0.781 0.901 1.183 2.063 1.108 3.259-0.077 1.193-0.643 2.301-1.554 3.072l-84.503 73.482 84.503 73.48c0.445 0.387 0.812 0.86 1.075 1.388 0.261 0.53 0.417 1.106 0.456 1.697zM635.584 654.838c-0.899 0.778-2.068 1.165-3.254 1.080-1.185-0.087-2.289-0.637-3.067-1.536l-19.666-22.579c-0.392-0.443-0.691-0.963-0.881-1.523-0.187-0.561-0.264-1.155-0.22-1.746 0.044-0.589 0.205-1.165 0.474-1.695 0.269-0.527 0.64-0.996 1.093-1.377l84.483-73.48-84.483-73.482c-0.448-0.384-0.814-0.855-1.080-1.382-0.264-0.527-0.422-1.101-0.463-1.69s0.033-1.18 0.223-1.741c0.189-0.558 0.486-1.075 0.876-1.518l19.645-22.579c0.76-0.901 1.892-1.467 3.075-1.531l0.294-0.020c1.085 0 2.117 0.389 2.941 1.106l114.371 99.448c0.998 0.858 1.551 2.084 1.551 3.389 0 1.303-0.553 2.529-1.551 3.387l-114.36 99.469zM561.236 643.489l-28.129 10.243c-0.553 0.202-1.142 0.292-1.731 0.266-0.589-0.028-1.167-0.169-1.702-0.42-0.532-0.251-1.011-0.604-1.408-1.039s-0.704-0.947-0.904-1.503l-67.259-184.786c-0.207-0.553-0.3-1.142-0.274-1.733 0.026-0.589 0.172-1.167 0.428-1.7 0.489-1.085 1.4-1.923 2.519-2.324l28.129-10.23c0.553-0.202 1.139-0.294 1.728-0.269 0.589 0.023 1.167 0.164 1.702 0.412s1.016 0.599 1.413 1.034c0.399 0.433 0.709 0.942 0.911 1.495l67.279 184.819c0.397 1.116 0.343 2.345-0.151 3.42-0.522 1.073-1.436 1.9-2.552 2.314zM1022.431 160.228l-114.304 143.877v440.602c-0.023 17.221-6.876 33.73-19.054 45.905s-28.69 19.022-45.911 19.039h-662.325c-17.218-0.020-33.725-6.869-45.901-19.044s-19.024-28.682-19.044-45.901v-440.602l-114.326-143.877c-0.781-0.988-1.292-2.161-1.482-3.407-0.19-1.244-0.054-2.519 0.396-3.694l12.066-31.094c0.509-1.298 1.38-2.427 2.509-3.246l43.343-31.094c1.227-0.868 2.693-1.357 4.203-1.357h898.774c1.508 0.008 2.975 0.481 4.204 1.357l43.333 31.094c1.142 0.809 2.017 1.94 2.519 3.246l12.065 31.094c0.466 1.172 0.612 2.447 0.425 3.694s-0.701 2.424-1.49 3.407zM701.338 151.398c-0.671-0.896-1.541-1.623-2.542-2.125s-2.107-0.763-3.226-0.763h-367.132c-1.119 0-2.225 0.259-3.226 0.76-1.004 0.499-1.874 1.226-2.547 2.122s-1.126 1.935-1.329 3.039c-0.2 1.101-0.141 2.235 0.174 3.31l15.8 54.682c0.44 1.5 1.352 2.821 2.604 3.761s2.772 1.449 4.337 1.452h335.529c3.203 0 6.026-2.117 6.94-5.212l15.8-54.682c0.3-1.078 0.348-2.209 0.143-3.308-0.205-1.101-0.66-2.138-1.326-3.036zM831.127 378.552c0-1.912-0.758-3.745-2.112-5.1-1.352-1.352-3.185-2.112-5.097-2.112h-623.837c-0.948 0-1.887 0.184-2.763 0.548-0.876 0.361-1.672 0.891-2.343 1.562s-1.203 1.464-1.566 2.34c-0.363 0.876-0.55 1.815-0.55 2.762v346.91c0 3.986 3.236 7.211 7.222 7.211h623.824c3.986 0 7.212-3.226 7.212-7.211v-346.91h0.010z" />
<glyph unicode="&#xe955;" glyph-name="icn_youtube" d="M979.083 679.823c-11.101 41.288-43.659 73.835-84.938 84.953-75.421 20.635-377.097 20.635-377.097 20.635s-301.665 0-377.083-19.853c-40.488-11.106-73.836-44.453-84.942-85.735-19.847-75.412-19.847-231.806-19.847-231.806s0-157.183 19.847-231.808c11.118-41.279 43.659-73.83 84.947-84.944 76.206-20.643 377.089-20.643 377.089-20.643s301.664 0 377.085 19.854c41.285 11.113 73.836 43.659 84.95 84.944 19.842 75.415 19.842 231.803 19.842 231.803s0.795 157.188-19.854 232.6zM421.001 303.532v288.968l250.858-144.483-250.858-144.485z" />
<glyph unicode="&#xe956;" glyph-name="iot_icn" d="M901.884 636.992c-4.774 177.805-150.938 323.008-329.884 323.008-124.836 0-237.86-71.992-293.961-182.117-81.68 3.195-150.938-60.321-155.774-140.829-72.773-34.43-122.266-107.812-122.266-189.054 0-115.78 96.219-212 212-212h89.999v-180h-65.523c-12.429 34.844-45.413 60-84.476 60-49.625 0-90-40.375-90-89.999 0-49.626 40.375-90.001 90-90.001 39.062 0 72.047 25.156 84.476 60h125.525v240h120v-125.523c-34.846-12.431-60.002-45.414-60.002-84.476 0-49.626 40.375-90.001 90.001-90.001s90.001 40.375 90.001 90.001c0 39.061-25.156 72.045-60.002 84.476v125.523h120v-240h125.525c12.429-34.844 45.412-60 84.476-60 49.626 0 90.001 40.375 90.001 90.001 0 49.623-35.040 89.999-90.001 89.999-39.063 0-72.047-25.156-84.476-60h-65.523v180h89.999c115.78 0 212 96.22 212 212 0 81.18-49.429 154.539-122.116 188.992zM537.719 344.437c-11.369 18.571-40.079 18.571-51.445 0l-51.149 31.343c33.163 54.204 120.587 54.204 153.749 0l-51.155-31.343zM640.055 407.070c-27.571 45.062-75.439 71.985-128.055 71.985s-100.484-26.923-128.055-71.985l-51.211 31.29c38.556 63.046 105.587 100.695 179.266 100.695 73.687 0 140.71-37.649 179.273-100.695l-51.217-31.29zM742.421 469.679c-49.515 81.009-135.648 129.376-230.421 129.376s-180.907-48.367-230.421-129.376l-51.211 31.29c60.531 98.993 165.796 158.086 281.632 158.086s221.101-59.093 281.632-158.086l-51.211-31.29z" />
<glyph unicode="&#xe957;" glyph-name="news_icn" d="M397.333 213.604c27.558-63.895 65.982-121.845 114.658-172.815 48.681 50.972 87.102 108.919 114.66 172.815h-229.318zM437.105 861.271c-52.149-9.404-102.142-28.6-147.362-56.864-50.345-31.468-93.271-73.13-126.201-122.007h168.96c25.12 65.215 60.162 125.119 104.604 178.871zM586.895 34.735c52.151 9.404 102.142 28.599 147.362 56.864 50.347 31.467 93.274 73.129 126.204 122.005h-168.96c-25.12-65.214-60.162-125.118-104.606-178.869zM860.461 682.402c-32.93 48.877-75.857 90.539-126.204 122.007-45.22 28.264-95.211 47.458-147.362 56.862 44.444-53.752 79.486-113.656 104.606-178.871l168.96 0.002zM626.654 682.404c-27.561 63.895-65.982 121.846-114.66 172.815-48.681-50.97-87.102-108.919-114.66-172.815h229.321zM163.542 213.602c32.93-48.877 75.857-90.539 126.201-122.005 45.22-28.265 95.213-47.458 147.362-56.862-44.442 53.751-79.484 113.655-104.604 178.869l-168.96-0.002zM0 622.396v-348.8h1024v348.8h-1024zM314.735 346.579h-43.422l-79.965 127.262v-129.954h-46.044v220.681l43.422-0.009 79.963-127.26v127.593h46.046v-218.313zM461.289 518.048h-73.050v-40.636h67.663v-46.044h-67.663v-40.636h73.050v-46.046h-119.095v219.407h119.095v-46.046zM678.249 345.38l-43.667-0.299-35.829 124.267-35.857-123.979-43.689-0.299-42.253 213.602 45.171 8.934 23.198-117.271 32.322 111.757 42.304-0.055 32.228-111.774 23.296 117.043 45.156-8.99-42.381-212.937zM877.801 400.783c-5.886-32.969-37.327-56.896-74.756-56.896-30.295 0-58.737 12.209-78.029 33.498l34.118 30.918c10.426-11.503 26.839-18.37 43.91-18.37 16.303 0 27.765 9.632 29.427 18.944 2.231 12.486-16.431 20.405-22.204 22.534-27.17 10.022-51.298 20.764-52.311 21.214l-1.666 0.745-1.527 0.996c-18.829 12.273-28.531 33.803-25.318 56.177 3.418 23.821 20.815 43.217 45.404 50.624 48.39 14.579 88.201-18.253 89.871-19.657l-29.628-35.249 0.141-0.115c-0.226 0.181-22.833 18.244-47.102 10.933-10.594-3.191-12.695-10.21-13.107-13.077-0.286-2.001-0.435-6.771 3.75-10.229 6.298-2.754 26.135-11.305 47.426-19.159 44.813-16.531 56.036-48.979 51.601-73.83z" />
</font>
</defs>
</svg>
