<?xml version="1.0" standalone="no"?>
<!DOCTYPE svg PUBLIC "-//W3C//DTD SVG 20010904//EN"
 "http://www.w3.org/TR/2001/REC-SVG-20010904/DTD/svg10.dtd">
<svg version="1.0" xmlns="http://www.w3.org/2000/svg"
 width="896.000000pt" height="896.000000pt" viewBox="0 0 896.000000 896.000000"
 preserveAspectRatio="xMidYMid meet">
<metadata>
Created by potrace 1.14, written by Peter Selinger 2001-2017
</metadata>
<g transform="translate(0.000000,896.000000) scale(0.100000,-0.100000)"
fill="#000000" stroke="none">
<path d="M5247 8804 c-1 -1 -20 -5 -41 -8 -68 -11 -89 -18 -168 -59 -45 -23
-99 -62 -128 -91 -54 -54 -110 -133 -110 -153 0 -7 -4 -13 -9 -13 -7 0 -24
-55 -19 -63 1 -1 -3 -11 -9 -22 -37 -69 -30 -241 14 -355 4 -8 7 -18 7 -21 2
-14 79 -130 103 -156 63 -67 186 -143 255 -157 13 -3 35 -7 49 -10 30 -7 124
-15 229 -21 41 -2 111 -6 155 -9 189 -13 254 -18 325 -22 99 -5 205 -11 315
-19 197 -13 244 -15 335 -20 52 -3 111 -7 130 -9 19 -2 92 -7 163 -10 266 -13
398 -64 538 -206 121 -123 182 -272 194 -470 3 -52 8 -133 10 -180 10 -171 15
-246 19 -305 3 -33 7 -105 11 -160 3 -55 8 -134 11 -175 2 -41 7 -113 9 -160
6 -107 13 -212 20 -320 10 -137 16 -241 20 -300 5 -86 17 -160 26 -166 5 -3 9
-13 9 -22 0 -20 23 -68 62 -127 26 -40 108 -132 108 -121 0 3 9 -3 20 -14 29
-29 132 -78 202 -96 81 -21 174 -21 273 0 108 23 243 115 316 216 31 43 79
142 79 162 0 8 3 18 7 21 17 18 20 154 9 387 -4 80 -9 186 -11 235 -8 182 -15
312 -20 400 -2 50 -7 140 -10 200 -3 61 -7 157 -10 215 -7 129 -15 293 -19
425 -2 55 -7 143 -10 195 -4 52 -9 149 -12 215 -12 262 -21 447 -28 590 -10
182 -68 321 -186 444 -55 57 -139 121 -159 121 -6 0 -11 5 -11 10 0 6 -3 9 -7
8 -5 -1 -24 5 -44 14 -54 24 -72 29 -152 43 -33 6 -165 14 -507 29 -63 3 -115
6 -115 6 0 1 -129 8 -295 15 -163 7 -326 14 -425 20 -267 14 -359 18 -447 19
-54 1 -98 3 -98 6 0 3 -30 6 -68 6 -64 2 -248 10 -417 19 -317 17 -483 23
-488 19z"/>
<path d="M3487 7244 c-1 -1 -42 -5 -92 -9 -49 -3 -103 -8 -120 -10 -16 -2 -52
-7 -80 -11 -89 -11 -100 -13 -125 -18 -14 -2 -38 -7 -55 -10 -16 -3 -48 -10
-69 -15 -22 -5 -42 -9 -45 -9 -3 0 -8 -1 -11 -2 -7 -2 -29 -7 -69 -15 -19 -3
-38 -8 -43 -11 -4 -3 -18 -7 -30 -9 -36 -7 -300 -96 -329 -111 -15 -7 -29 -10
-33 -7 -3 4 -6 1 -6 -5 0 -7 -3 -11 -7 -10 -5 1 -21 -4 -38 -11 -43 -17 -54
-21 -61 -20 -4 0 -10 -3 -13 -8 -3 -4 -44 -26 -91 -48 -47 -22 -116 -58 -155
-80 -38 -23 -77 -44 -85 -48 -41 -21 -220 -139 -240 -158 -8 -9 -19 -16 -23
-17 -4 0 -24 -13 -44 -29 -64 -50 -148 -117 -159 -128 -6 -5 -33 -28 -59 -50
-56 -48 -207 -196 -288 -285 -152 -166 -342 -428 -458 -633 -82 -146 -269
-560 -269 -597 0 -5 -5 -21 -12 -37 -6 -15 -12 -32 -14 -38 -1 -5 -15 -50 -29
-100 -15 -49 -29 -97 -31 -105 -29 -114 -71 -325 -79 -395 -2 -16 -6 -46 -9
-65 -27 -164 -38 -528 -22 -690 4 -36 9 -92 12 -125 8 -98 11 -118 19 -160 5
-22 9 -51 11 -65 1 -14 3 -26 4 -27 3 -4 5 -12 14 -66 9 -60 11 -67 31 -147 8
-36 18 -74 20 -84 3 -11 11 -40 19 -65 12 -39 27 -93 30 -111 1 -3 4 -9 7 -15
4 -5 16 -41 28 -80 21 -67 29 -87 51 -137 11 -26 33 -81 35 -88 9 -35 163
-344 194 -390 9 -14 23 -38 31 -55 8 -16 23 -38 32 -49 9 -10 22 -31 28 -47 7
-16 16 -29 21 -29 5 0 9 -4 9 -9 0 -10 71 -111 152 -218 95 -125 146 -181 303
-338 135 -135 166 -163 251 -232 119 -96 153 -123 159 -123 5 0 13 -5 48 -35
7 -6 48 -34 92 -62 44 -29 85 -55 91 -60 5 -4 26 -16 45 -27 19 -10 50 -27 69
-38 73 -42 299 -153 330 -163 3 -1 22 -9 44 -18 21 -9 41 -17 43 -17 3 0 19
-6 36 -13 56 -24 246 -87 310 -103 9 -2 25 -6 35 -9 61 -16 101 -26 132 -31
19 -3 43 -7 52 -10 10 -3 28 -7 40 -9 13 -2 37 -7 53 -10 17 -4 41 -8 55 -10
46 -6 105 -14 140 -19 19 -3 66 -8 105 -11 38 -4 73 -9 77 -11 4 -3 8 0 8 6 0
7 6 8 18 2 19 -10 358 -9 517 2 99 6 134 10 218 22 23 4 53 8 67 9 14 2 43 6
65 10 22 3 54 8 70 10 17 2 30 4 30 5 0 2 20 6 60 13 17 3 60 12 96 21 37 8
78 17 90 20 86 15 362 109 529 179 14 6 28 10 33 9 4 -1 7 2 7 8 0 5 5 10 11
10 28 0 390 193 397 211 2 5 8 9 13 9 6 0 44 24 86 53 42 28 83 57 91 62 9 6
27 20 41 33 14 12 29 22 33 22 3 0 13 6 20 13 7 6 29 25 48 40 19 16 50 40 67
55 40 33 204 193 219 213 44 59 84 159 98 244 14 80 2 231 -23 290 -5 11 -21
51 -36 88 -15 38 -33 74 -39 80 -6 7 -18 25 -26 41 -26 51 -133 150 -195 183
-101 52 -212 77 -350 77 -161 0 -223 -12 -358 -67 -50 -20 -107 -55 -159 -97
-102 -81 -185 -140 -197 -140 -5 0 -16 -6 -23 -13 -7 -6 -38 -23 -68 -37 -30
-14 -57 -27 -60 -30 -12 -12 -221 -85 -315 -110 -105 -28 -120 -31 -207 -45
-18 -3 -55 -10 -83 -15 -58 -12 -128 -18 -280 -25 -60 -3 -118 -7 -127 -9 -10
-2 -18 -1 -18 2 0 4 -39 8 -88 8 -48 1 -109 5 -137 8 -27 4 -63 8 -80 10 -16
2 -60 11 -96 20 -37 8 -78 17 -90 20 -36 7 -201 55 -224 65 -11 5 -36 15 -55
22 -85 31 -255 112 -335 161 -16 10 -37 21 -45 25 -25 11 -105 66 -108 75 -2
4 -8 8 -14 8 -16 0 -172 134 -243 209 -119 125 -154 166 -183 214 -9 15 -20
27 -24 27 -4 0 -8 4 -8 9 0 5 -18 39 -40 75 -22 36 -40 70 -40 76 0 5 -4 10
-9 10 -5 0 -12 10 -16 23 -9 28 -7 22 -39 92 -49 105 -116 311 -132 406 l-5
25 2278 0 c1253 1 2309 4 2346 7 38 4 99 16 136 26 71 20 197 76 219 98 7 7
17 13 21 13 5 0 39 31 77 69 90 90 148 198 170 316 2 11 8 42 13 69 9 48 7
242 -3 321 -3 22 -8 65 -12 95 -13 119 -18 144 -41 260 -8 41 -16 88 -19 104
-2 16 -8 34 -14 41 -5 6 -7 14 -4 17 3 3 0 26 -7 49 -7 24 -14 52 -16 61 -1 9
-28 90 -58 180 -30 90 -57 170 -59 179 -3 9 -9 25 -14 35 -5 11 -14 30 -20 44
-26 65 -49 114 -102 221 -70 139 -82 162 -95 171 -5 4 -7 8 -2 8 4 0 -10 26
-30 58 -117 180 -148 227 -153 232 -3 3 -25 32 -49 65 -25 33 -47 62 -51 65
-3 3 -13 15 -21 26 -70 103 -386 416 -518 514 -19 14 -39 30 -45 35 -6 6 -28
21 -48 35 -21 14 -38 28 -38 33 0 4 -6 7 -13 7 -8 0 -22 9 -32 20 -10 11 -23
20 -30 20 -7 0 -20 9 -30 20 -10 11 -24 20 -31 20 -7 0 -17 8 -23 18 -5 9 -13
16 -18 16 -4 -1 -37 15 -73 36 -36 21 -99 55 -140 76 -41 22 -76 42 -78 47 -2
4 -8 7 -14 7 -6 0 -36 12 -66 26 -160 76 -500 191 -642 218 -14 3 -36 8 -50
11 -24 5 -90 19 -155 31 -16 3 -41 7 -55 9 -14 1 -43 5 -65 8 -49 7 -118 15
-205 23 -64 6 -438 13 -443 8z m248 -1358 c81 -9 125 -15 210 -31 44 -9 92
-18 106 -20 14 -2 38 -9 52 -14 15 -6 27 -9 27 -6 0 2 19 -3 43 -11 23 -9 51
-17 61 -20 11 -2 42 -11 70 -21 28 -9 53 -18 56 -18 7 -2 39 -15 75 -30 17 -6
46 -18 65 -25 51 -20 302 -150 321 -166 8 -8 19 -14 23 -14 7 0 200 -134 222
-155 7 -5 31 -26 55 -45 76 -61 244 -232 314 -318 70 -89 167 -232 187 -279 7
-15 15 -30 18 -33 16 -14 101 -225 107 -265 l4 -30 -1993 1 c-1096 1 -2001 2
-2010 3 -14 1 -15 6 -7 34 6 17 12 41 14 52 6 28 44 146 54 170 39 90 115 241
124 247 7 4 9 8 5 8 -9 0 108 173 162 241 57 71 239 251 316 311 105 83 187
135 364 229 60 32 266 110 326 124 10 2 44 11 74 19 30 8 66 17 80 20 14 3 35
7 47 10 21 5 101 17 138 22 11 1 20 3 20 4 0 0 38 3 85 6 47 3 86 7 88 9 2 2
13 2 25 0 12 -2 45 -6 72 -9z"/>
</g>
</svg>
