<svg width="40" height="40" viewBox="0 0 40 40" fill="none" xmlns="http://www.w3.org/2000/svg">
<g clip-path="url(#clip0_833_3702)">
<path d="M26 8.00024C22.6916 8.00024 20 10.6918 20 14.0002C20 17.3086 22.6916 20.0002 26 20.0002C29.3084 20.0002 32 17.3086 32 14.0002C32 10.6918 29.3084 8.00024 26 8.00024ZM25 17.4144L22.2929 14.7073L23.7071 13.2931L25 14.586L28.2929 11.2932L29.7071 12.7074L25 17.4144Z" fill="white"/>
<path d="M25.8824 0.000244141C18.0979 0.000244141 11.7647 6.33342 11.7647 14.1179C11.7647 17.5875 13.0236 20.7682 15.1076 23.2289L12.3529 25.9835L10.5882 24.2188L1.07561 33.7315C0.381961 34.425 0 35.3472 0 36.3282C0 38.353 1.64729 40.0002 3.67208 40.0002C4.65294 40.0002 5.57514 39.6183 6.26863 38.9247L15.7814 29.412L14.0167 27.6473L16.7714 24.8926C19.2321 26.9766 22.4128 28.2355 25.8824 28.2355C33.6668 28.2355 40 21.9024 40 14.1179C40 6.33342 33.6668 0.000244141 25.8824 0.000244141ZM25.8824 23.5297C20.6927 23.5297 16.4706 19.3076 16.4706 14.1179C16.4706 8.92817 20.6927 4.70613 25.8824 4.70613C31.072 4.70613 35.2941 8.92817 35.2941 14.1179C35.2941 19.3076 31.072 23.5297 25.8824 23.5297Z" fill="white"/>
</g>
<defs>
<clipPath id="clip0_833_3702">
<rect width="40" height="40" fill="white" transform="translate(0 0.000244141)"/>
</clipPath>
</defs>
</svg>
