<svg width="40" height="40" viewBox="0 0 40 40" fill="none" xmlns="http://www.w3.org/2000/svg">
<path d="M32.5007 6.25024H7.50069C6.67993 6.25024 5.86721 6.41191 5.10892 6.726C4.35064 7.04009 3.66164 7.50046 3.08128 8.08083C1.90917 9.25293 1.25069 10.8426 1.25069 12.5002V25.9877C1.23168 27.2863 1.60433 28.5604 2.32006 29.644C3.0358 30.7277 4.06141 31.5705 5.26319 32.0627C6.39639 32.5208 7.64229 32.6227 8.83484 32.3547C10.0274 32.0867 11.1099 31.4616 11.9382 30.5627L17.2257 25.0002H22.7757L28.0632 30.5627C28.8904 31.4631 29.973 32.0893 31.166 32.3573C32.3589 32.6254 33.6053 32.5226 34.7382 32.0627C35.94 31.5705 36.9656 30.7277 37.6813 29.644C38.3971 28.5604 38.7697 27.2863 38.7507 25.9877V12.5002C38.7507 10.8426 38.0922 9.25293 36.9201 8.08083C35.748 6.90872 34.1583 6.25024 32.5007 6.25024ZM15.0007 17.5002H12.5007V20.0002C12.5007 20.3318 12.369 20.6497 12.1346 20.8841C11.9002 21.1185 11.5822 21.2502 11.2507 21.2502C10.9192 21.2502 10.6012 21.1185 10.3668 20.8841C10.1324 20.6497 10.0007 20.3318 10.0007 20.0002V17.5002H7.50069C7.16917 17.5002 6.85123 17.3685 6.61681 17.1341C6.38239 16.8997 6.25069 16.5818 6.25069 16.2502C6.25069 15.9187 6.38239 15.6008 6.61681 15.3664C6.85123 15.1319 7.16917 15.0002 7.50069 15.0002H10.0007V12.5002C10.0007 12.1687 10.1324 11.8508 10.3668 11.6164C10.6012 11.3819 10.9192 11.2502 11.2507 11.2502C11.5822 11.2502 11.9002 11.3819 12.1346 11.6164C12.369 11.8508 12.5007 12.1687 12.5007 12.5002V15.0002H15.0007C15.3322 15.0002 15.6502 15.1319 15.8846 15.3664C16.119 15.6008 16.2507 15.9187 16.2507 16.2502C16.2507 16.5818 16.119 16.8997 15.8846 17.1341C15.6502 17.3685 15.3322 17.5002 15.0007 17.5002ZM28.7507 21.2502C27.7618 21.2502 26.7951 20.957 25.9728 20.4076C25.1506 19.8582 24.5097 19.0773 24.1313 18.1637C23.7529 17.25 23.6538 16.2447 23.8468 15.2748C24.0397 14.3049 24.5159 13.414 25.2152 12.7147C25.9144 12.0154 26.8053 11.5392 27.7752 11.3463C28.7451 11.1534 29.7505 11.2524 30.6641 11.6308C31.5777 12.0093 32.3586 12.6501 32.908 13.4724C33.4574 14.2946 33.7507 15.2613 33.7507 16.2502C33.7507 17.5763 33.2239 18.8481 32.2862 19.7858C31.3485 20.7235 30.0768 21.2502 28.7507 21.2502ZM31.2507 16.2502C31.2507 16.7447 31.1041 17.228 30.8294 17.6392C30.5547 18.0503 30.1642 18.3707 29.7074 18.5599C29.2506 18.7492 28.7479 18.7987 28.263 18.7022C27.778 18.6057 27.3326 18.3676 26.9829 18.018C26.6333 17.6684 26.3952 17.2229 26.2987 16.738C26.2023 16.253 26.2518 15.7504 26.441 15.2935C26.6302 14.8367 26.9506 14.4463 27.3618 14.1716C27.7729 13.8969 28.2562 13.7502 28.7507 13.7502C29.4137 13.7502 30.0496 14.0136 30.5185 14.4825C30.9873 14.9513 31.2507 15.5872 31.2507 16.2502Z" fill="white"/>
</svg>
