<svg width="45" height="45" viewBox="0 0 45 45" fill="none" xmlns="http://www.w3.org/2000/svg">
<g clip-path="url(#clip0_481_2071)">
<path d="M22.7793 8.66455C24.9151 8.66455 26.6465 6.93315 26.6465 4.79736C26.6465 2.66157 24.9151 0.930176 22.7793 0.930176C20.6435 0.930176 18.9121 2.66157 18.9121 4.79736C18.9121 6.93315 20.6435 8.66455 22.7793 8.66455Z" fill="#283653"/>
<path d="M36.6152 41.063H8.94336C8.23145 41.063 7.6543 41.6401 7.6543 42.3521V43.6411C7.6543 44.353 8.23145 44.9302 8.94336 44.9302H36.6152C37.3271 44.9302 37.9043 44.353 37.9043 43.6411V42.3521C37.9043 41.6401 37.3271 41.063 36.6152 41.063Z" fill="#283653"/>
<path d="M34.4668 35.9067C34.4668 35.1948 33.8896 34.6177 33.1777 34.6177H12.3809C11.669 34.6177 11.0918 35.1948 11.0918 35.9067V38.4849H34.4668V35.9067Z" fill="#283653"/>
<path d="M18.0527 20.4933V25.5942H27.5059V20.4933C28.9616 20.2842 30.084 19.0288 30.084 17.5161V14.2505C30.084 12.1651 29.0877 10.309 27.5469 9.13007C26.3672 10.4272 24.6667 11.2427 22.7793 11.2427C20.8919 11.2427 19.1914 10.4272 18.0117 9.13007C16.4709 10.309 15.4746 12.1651 15.4746 14.2505V17.5161C15.4746 19.0288 16.597 20.2842 18.0527 20.4933Z" fill="#283653"/>
<path d="M31.0293 29.4614C31.0293 28.7495 30.4521 28.1724 29.7402 28.1724H15.8184C15.1065 28.1724 14.5293 28.7495 14.5293 29.4614V32.0396H31.0293V29.4614Z" fill="#283653"/>
</g>
<defs>
<clipPath id="clip0_481_2071">
<rect width="44" height="44" fill="white" transform="translate(0.779297 0.930176)"/>
</clipPath>
</defs>
</svg>
