<svg width="40" height="40" viewBox="0 0 40 40" fill="none" xmlns="http://www.w3.org/2000/svg">
<path d="M16.2301 12.9474C16.2317 12.9243 16.2287 12.9012 16.2212 12.8793C16.2138 12.8573 16.2021 12.8371 16.1868 12.8197L15.4198 11.9382C15.3893 11.9031 15.3461 11.8815 15.2996 11.8781C15.2532 11.8748 15.2073 11.89 15.1721 11.9204L10.7045 15.805C10.6857 15.8216 10.6706 15.842 10.6602 15.8649C10.6499 15.8877 10.6445 15.9125 10.6445 15.9376C10.6445 15.9627 10.6499 15.9875 10.6602 16.0104C10.6706 16.0332 10.6857 16.0536 10.7045 16.0702L15.1729 19.9553C15.1902 19.9705 15.2104 19.9822 15.2323 19.9896C15.2541 19.997 15.2772 20 15.3002 19.9984C15.3233 19.9968 15.3457 19.9906 15.3663 19.9802C15.3869 19.9698 15.4053 19.9554 15.4203 19.9379L16.1877 19.0559C16.2182 19.0207 16.2339 18.9753 16.231 18.9286C16.228 18.882 16.2059 18.8387 16.1703 18.8086L12.8694 15.9382L16.1703 13.0679C16.1877 13.0528 16.202 13.0343 16.2123 13.0137C16.2225 12.993 16.2286 12.9705 16.2301 12.9474ZM24.8275 11.9204C24.7924 11.89 24.7467 11.8749 24.7004 11.8782C24.6541 11.8816 24.611 11.9031 24.5806 11.9382L23.8124 12.8202C23.7971 12.8375 23.7854 12.8578 23.778 12.8797C23.7707 12.9016 23.7677 12.9248 23.7694 12.9479C23.7711 12.9709 23.7774 12.9934 23.7879 13.0141C23.7984 13.0347 23.8129 13.053 23.8306 13.0679L27.1307 15.9382L23.8306 18.8086C23.8131 18.8236 23.7988 18.842 23.7884 18.8626C23.7781 18.8832 23.7719 18.9056 23.7703 18.9286C23.7687 18.9516 23.7716 18.9747 23.779 18.9966C23.7864 19.0184 23.798 19.0386 23.8132 19.0559L24.5806 19.9379C24.6103 19.9731 24.6545 19.9952 24.7007 19.9977L24.7122 19.9985C24.7546 19.9985 24.7949 19.9833 24.8271 19.9553L29.2947 16.0706C29.3337 16.0371 29.3553 15.9892 29.3553 15.9382C29.3553 15.8873 29.3337 15.8394 29.2947 15.8059L24.8275 11.9204ZM21.9233 12.3637L20.8245 11.9636C20.8029 11.9557 20.7799 11.9522 20.7569 11.9532C20.7339 11.9543 20.7113 11.9598 20.6904 11.9696C20.6696 11.9794 20.6509 11.9932 20.6354 12.0102C20.6199 12.0272 20.6079 12.0472 20.6001 12.0689L17.9728 19.2871C17.9647 19.3087 17.9611 19.3317 17.9621 19.3548C17.9631 19.3778 17.9688 19.4004 17.9788 19.4212C17.9979 19.4636 18.0335 19.4963 18.0772 19.512L19.176 19.9116C19.1976 19.9195 19.2205 19.9231 19.2435 19.9221C19.2665 19.9212 19.2891 19.9157 19.31 19.906C19.3309 19.8963 19.3497 19.8826 19.3652 19.8656C19.3808 19.8487 19.3929 19.8288 19.4008 19.8072L22.0289 12.5877C22.0444 12.5441 22.0423 12.4961 22.023 12.4541C22.0026 12.4122 21.9669 12.3799 21.9233 12.3637Z" fill="white"/>
<path d="M39.9387 31.2411L35.4737 25.6209V8.40988C35.4728 7.73718 35.2051 7.09231 34.7294 6.61672C34.2537 6.14113 33.6087 5.87366 32.936 5.87299H7.06393C6.39134 5.87377 5.74653 6.1413 5.27094 6.61689C4.79535 7.09248 4.52782 7.73729 4.52703 8.40988V25.6209L0.0611695 31.2411C0.0306538 31.2797 0.0106981 31.3255 0.00326074 31.3742C-0.00417663 31.4228 0.00115992 31.4726 0.0187466 31.5185L0.490066 32.7331C0.509949 32.7838 0.543955 32.8279 0.588063 32.8599L2.28116 34.0745C2.3291 34.1084 2.38637 34.1275 2.44534 34.1275H37.5537C37.6126 34.1272 37.6699 34.1087 37.7179 34.0745L39.4106 32.8599C39.4552 32.8283 39.4894 32.7841 39.509 32.7331L39.9803 31.5185C39.9985 31.4727 40.0042 31.4229 39.9969 31.3742C39.9896 31.3255 39.9695 31.2795 39.9387 31.2411ZM27.396 31.586C27.3698 31.621 27.3358 31.6494 27.2967 31.669C27.2576 31.6886 27.2144 31.6988 27.1707 31.6988H12.8296C12.7859 31.6988 12.7427 31.6887 12.7036 31.6691C12.6644 31.6496 12.6304 31.6212 12.6041 31.5862C12.5778 31.5512 12.5601 31.5106 12.5522 31.4675C12.5444 31.4245 12.5467 31.3802 12.559 31.3382L13.1762 29.2022C13.1934 29.1436 13.229 29.092 13.2779 29.0553C13.3268 29.0186 13.3862 28.9987 13.4473 28.9986H26.5539C26.679 28.9986 26.7893 29.0813 26.825 29.2022L27.4422 31.3382C27.4539 31.3803 27.4558 31.4245 27.4478 31.4674C27.4398 31.5104 27.422 31.5509 27.396 31.586ZM32.4659 22.7128C32.4659 22.7875 32.4363 22.8591 32.3834 22.912C32.3306 22.9648 32.259 22.9945 32.1843 22.9945H7.81566C7.77863 22.9945 7.74196 22.9873 7.70773 22.9731C7.67351 22.959 7.64241 22.9383 7.6162 22.9121C7.59 22.8859 7.56921 22.8549 7.55503 22.8207C7.54085 22.7865 7.53355 22.7498 7.53355 22.7128V9.16161C7.53355 9.00592 7.65997 8.87992 7.81566 8.87992H32.1838C32.3395 8.87992 32.4655 9.00592 32.4655 9.16161V22.7128H32.4659Z" fill="white"/>
</svg>
