<svg width="16" height="17" viewBox="0 0 16 17" fill="none" xmlns="http://www.w3.org/2000/svg">
<g clip-path="url(#clip0_1577_12336)">
<path d="M8.00061 0.430176C6.44489 0.430176 4.95289 1.04818 3.85283 2.14824C2.75277 3.2483 2.13477 4.7403 2.13477 6.29602C2.13477 9.39425 7.3607 15.948 7.58467 16.2306C7.63463 16.2929 7.69795 16.3432 7.76994 16.3777C7.84193 16.4122 7.92076 16.4302 8.00061 16.4302C8.08045 16.4302 8.15928 16.4122 8.23127 16.3777C8.30327 16.3432 8.36658 16.2929 8.41655 16.2306C8.64052 15.948 13.8664 9.39425 13.8664 6.29602C13.8664 4.7403 13.2484 3.2483 12.1484 2.14824C11.0483 1.04818 9.55632 0.430176 8.00061 0.430176ZM8.00061 7.89579C7.57873 7.89579 7.16633 7.77069 6.81556 7.53631C6.46478 7.30193 6.19139 6.9688 6.02994 6.57904C5.8685 6.18927 5.82626 5.76039 5.90856 5.34662C5.99086 4.93286 6.19401 4.55279 6.49232 4.25448C6.79063 3.95617 7.17071 3.75302 7.58447 3.67071C7.99824 3.58841 8.42712 3.63065 8.81688 3.79209C9.20664 3.95354 9.53978 4.22693 9.77416 4.57771C10.0085 4.92848 10.1336 5.34088 10.1336 5.76276C10.1336 6.32847 9.90891 6.87102 9.50889 7.27104C9.10887 7.67106 8.56632 7.89579 8.00061 7.89579Z" fill="#283653"/>
</g>
<defs>
<clipPath id="clip0_1577_12336">
<rect width="16" height="16" fill="white" transform="translate(0 0.430176)"/>
</clipPath>
</defs>
</svg>
