<svg width="40" height="41" viewBox="0 0 40 41" fill="none" xmlns="http://www.w3.org/2000/svg">
<g clip-path="url(#clip0_481_2108)">
<path d="M5.25151 30.3617C5.23048 30.3759 5.20254 30.3759 5.18386 30.3617C2.22404 28.1797 0.626366 31.6442 1.92786 33.6572C2.96809 35.2662 4.88533 36.908 5.17916 37.1523C5.20254 37.171 5.23048 37.171 5.25379 37.1523C5.53372 36.8939 7.36463 35.1792 8.52612 33.6572C9.6154 32.2314 8.52384 27.9777 5.25151 30.3617ZM25.8737 17.8944C26.914 19.5033 28.8312 21.1451 29.125 21.3894C29.1484 21.4082 29.1763 21.4082 29.1997 21.3894C29.4796 21.1311 31.3105 19.4164 32.472 17.8944C33.5613 16.4686 32.4697 12.2149 29.1974 14.599C29.1763 14.6131 29.1484 14.6131 29.1297 14.599C26.1699 12.4169 24.5722 15.8814 25.8737 17.8944ZM32.3697 10.9328C32.4008 10.9578 32.4381 10.9578 32.4692 10.9328C32.8424 10.5882 35.2836 8.30203 36.8323 6.2727C38.2847 4.37167 36.8292 -1.29992 32.4661 1.87879C32.4381 1.8976 32.4008 1.8976 32.3759 1.87879C28.4296 -1.03063 26.2994 3.58875 28.0346 6.2727C29.4216 8.41793 31.9779 10.6071 32.3697 10.9328ZM23.8165 10.1546C23.9586 10.0075 23.8765 9.75983 23.6753 9.72879L21.524 9.39697C21.4416 9.3842 21.3709 9.33091 21.3354 9.25468L20.3823 7.20464C20.2923 7.01105 20.0197 7.01105 19.9296 7.20464L18.9765 9.25468C18.9411 9.33091 18.8703 9.3842 18.7879 9.39697L16.6366 9.72879C16.4355 9.75983 16.3534 10.0075 16.4955 10.1546L18.0677 11.7814C18.1232 11.8387 18.1483 11.9192 18.1355 11.9983L17.7665 14.2819C17.733 14.4898 17.9516 14.6454 18.1342 14.5434L20.035 13.4826C20.1103 13.4406 20.2017 13.4406 20.2769 13.4826L22.1777 14.5434C22.3603 14.6454 22.579 14.4898 22.5454 14.2819L22.1764 11.9983C22.1637 11.9192 22.1888 11.8387 22.2442 11.7814L23.8165 10.1546ZM22.1061 26.4393C22.2482 26.2922 22.166 26.0446 21.9648 26.0135L19.8136 25.6817C19.7312 25.669 19.6605 25.6157 19.625 25.5394L18.6719 23.4894C18.5819 23.2958 18.3092 23.2958 18.2192 23.4894L17.2661 25.5394C17.2307 25.6157 17.1599 25.669 17.0775 25.6817L14.9262 26.0135C14.7251 26.0446 14.6429 26.2922 14.7851 26.4393L16.3573 28.0661C16.4127 28.1235 16.4379 28.204 16.4251 28.283L16.0561 30.5666C16.0226 30.7745 16.2412 30.9301 16.4238 30.8281L18.3246 29.7674C18.3999 29.7254 18.4912 29.7254 18.5665 29.7674L20.4672 30.8281C20.6499 30.9301 20.8686 30.7745 20.835 30.5666L20.466 28.283C20.4533 28.204 20.4784 28.1235 20.5338 28.0661L22.1061 26.4393ZM11.8697 9.11851C12.3734 9.59365 13.1603 9.56295 13.6275 9.05979C15.3798 7.17467 15.3318 4.26685 13.5181 2.44044C11.6753 0.584674 8.6766 0.584674 6.83256 2.44044C6.34664 2.92916 6.34664 3.72247 6.83256 4.2118C7.31726 4.70113 8.10565 4.70113 8.59157 4.2118C9.46378 3.33346 10.8845 3.33224 11.7591 4.2118C12.6186 5.07729 12.6411 6.45475 11.8114 7.34838C11.3418 7.85299 11.368 8.64631 11.8697 9.11851ZM15.9103 32.8603C15.4066 32.3851 14.6197 32.4158 14.1525 32.919C12.4001 34.8041 12.4481 37.7119 14.2618 39.5383C16.1046 41.3941 19.1033 41.3941 20.9474 39.5383C21.4333 39.0496 21.4333 38.2563 20.9474 37.767C20.4627 37.2777 19.6743 37.2777 19.1884 37.767C18.3162 38.6453 16.8955 38.6466 16.0208 37.767C15.1614 36.9015 15.1389 35.524 15.9686 34.6304C16.4381 34.1258 16.412 33.3325 15.9103 32.8603ZM0.426154 28.7142L19.4856 21.1201C19.6937 21.0373 19.7494 20.7668 19.5912 20.6075L8.07278 9.00826C7.91455 8.84892 7.64601 8.90497 7.56371 9.11446L0.0226169 28.3077C-0.0776029 28.5627 0.172947 28.8151 0.426154 28.7142ZM32.4363 21.1193C32.354 20.9097 32.0855 20.8537 31.9272 21.013L20.4089 32.6123C20.2506 32.7716 20.3063 33.042 20.5144 33.1249L39.5738 40.7189C39.8271 40.8198 40.0776 40.5675 39.9774 40.3126L32.4363 21.1193Z" fill="#283653"/>
</g>
<defs>
<clipPath id="clip0_481_2108">
<rect width="40" height="40" fill="white" transform="translate(0 0.930176)"/>
</clipPath>
</defs>
</svg>
