<svg width="45" height="45" viewBox="0 0 45 45" fill="none" xmlns="http://www.w3.org/2000/svg">
<g clip-path="url(#clip0_481_1822)">
<path d="M15.5642 27.1542V24.7782C15.5642 24.0742 16.2682 23.3702 16.9722 23.3702H19.1722C19.8762 23.3702 20.5802 22.8422 20.5802 22.0502V18.1782C20.5802 17.8262 20.8442 17.5622 21.1962 17.5622H22.2522C22.8682 17.5622 23.4842 17.0342 23.4842 16.3302C23.4842 16.0662 23.3962 15.8902 23.2202 15.6262L21.4602 12.9862C21.2842 12.8102 21.1962 12.5462 21.1962 12.2822L21.1082 10.9622C20.9322 8.32223 19.7882 6.03423 18.0282 4.36223C16.2682 2.69023 13.8922 1.72223 11.3402 1.72223C5.97216 1.81023 1.66016 6.21023 1.66016 11.6662C1.66016 12.8102 1.92416 13.9542 2.36416 15.0102L3.86016 18.1782C5.00416 20.7302 5.62016 23.4582 5.62016 26.2742V27.1542H15.5642ZM5.53216 11.4022V10.9622C5.53216 10.5222 5.88416 10.1702 6.32416 10.0822C6.67616 9.99423 6.94016 9.73023 7.02816 9.46623C7.02816 9.37823 7.11616 9.29023 7.11616 9.29023C7.20416 9.20223 7.20416 9.02623 7.20416 8.93823C7.20416 8.76223 7.11616 8.58623 7.02816 8.41023C6.76416 7.97023 6.76416 7.53023 7.11616 7.17823L7.46816 6.82623C7.64416 6.65023 7.82016 6.65023 8.08416 6.65023C8.26016 6.65023 8.43616 6.73823 8.61216 6.82623C8.87616 7.00223 9.22816 7.09023 9.49216 6.91423C9.58016 6.91423 9.66816 6.82623 9.66816 6.82623C9.93216 6.73823 10.1962 6.47423 10.1962 6.12223C10.2842 5.68223 10.6362 5.33023 11.0762 5.33023H11.5162C11.9562 5.33023 12.3082 5.68223 12.3962 6.12223C12.4842 6.47423 12.6602 6.73823 12.9242 6.82623C13.0122 6.82623 13.1002 6.91423 13.1002 6.91423C13.1882 7.00223 13.3642 7.00223 13.4522 7.00223C13.6282 7.00223 13.8042 6.91423 13.9802 6.82623C14.3322 6.56223 14.8602 6.56223 15.1242 6.91423L15.4762 7.26623C15.6522 7.44223 15.7402 7.70623 15.7402 7.88223C15.7402 8.05823 15.6522 8.23423 15.5642 8.41023C15.3882 8.67423 15.3002 9.02623 15.4762 9.29023C15.4762 9.37823 15.5642 9.46623 15.5642 9.46623C15.6522 9.73023 15.9162 9.99423 16.2682 9.99423C16.7082 10.0822 17.0602 10.4342 17.0602 10.8742V11.3142C17.0602 11.7542 16.7082 12.1062 16.2682 12.1942C15.9162 12.2822 15.6522 12.4582 15.5642 12.7222C15.5642 12.8102 15.4762 12.8982 15.4762 12.8982C15.3882 12.9862 15.3882 13.1622 15.3882 13.2502C15.3882 13.4262 15.4762 13.6022 15.5642 13.7782C15.8282 14.1302 15.8282 14.6582 15.4762 14.9222L15.1242 15.2742C14.9482 15.4502 14.6842 15.5382 14.5082 15.5382C14.3322 15.5382 14.1562 15.4502 13.9802 15.3622C13.7162 15.1862 13.3642 15.0982 13.1002 15.2742C13.0122 15.2742 12.9242 15.3622 12.9242 15.3622C12.6602 15.4502 12.3962 15.7142 12.3962 16.0662C12.3082 16.5062 11.9562 16.8582 11.5162 16.8582H11.0762C10.6362 16.8582 10.2842 16.5062 10.1962 16.0662C10.1082 15.7142 9.93216 15.4502 9.66816 15.3622C9.58016 15.3622 9.49216 15.2742 9.49216 15.2742C9.40416 15.1862 9.22816 15.1862 9.14016 15.1862C8.96416 15.1862 8.78816 15.2742 8.61216 15.3622C8.26016 15.6262 7.73216 15.6262 7.46816 15.2742L7.11616 14.9222C6.94016 14.7462 6.85216 14.4822 6.85216 14.3062C6.85216 14.1302 6.94016 13.9542 7.02816 13.7782C7.20416 13.5142 7.29216 13.1622 7.11616 12.8982C7.11616 12.8102 7.02816 12.7222 7.02816 12.7222C6.94016 12.4582 6.67616 12.1942 6.32416 12.1942C5.88416 12.1942 5.53216 11.8422 5.53216 11.4022Z" fill="#283653"/>
<path d="M33.7793 38.1542C33.7793 38.3302 33.9553 38.5062 34.1313 38.5062C34.3073 38.5062 34.5713 38.3302 34.5713 38.1542V36.8342H33.7793V38.1542Z" fill="#283653"/>
<path d="M34.6603 25.1302C34.4843 25.1302 34.3083 25.1302 34.1323 25.1302C31.7563 25.1302 29.8203 27.0663 29.8203 29.4423C29.8203 30.6743 30.3483 31.9062 31.3163 32.6982C32.0203 33.3142 32.4603 34.2822 32.4603 35.2502C32.4603 35.3382 32.5483 35.4262 32.6363 35.4262H33.4283V31.8182H32.9883C32.6363 31.8182 32.2843 31.4662 32.2843 31.1142C32.2843 30.7622 32.5483 30.4102 32.9883 30.4102H35.2763C35.6283 30.4102 35.9803 30.6742 35.9803 31.1142C35.9803 31.4662 35.7163 31.8182 35.2763 31.8182H34.8363V35.4262H35.7163C35.8043 35.4262 35.8923 35.3382 35.8923 35.2502C35.8923 34.2822 36.3323 33.3142 37.0363 32.6102C38.0923 31.6422 38.6203 30.1462 38.4443 28.6502C38.1803 26.8022 36.5963 25.3062 34.6603 25.1302Z" fill="#283653"/>
<path d="M34.2201 18.7062C29.1161 18.7062 24.8041 22.7542 24.5401 27.9462L24.4521 29.2662C24.4521 29.5302 24.3641 29.7062 24.1881 29.9702L22.4281 32.6102C22.2521 32.7862 22.1641 33.0502 22.1641 33.3142C22.1641 33.9302 22.7801 34.5462 23.3961 34.5462H24.4521C24.8041 34.5462 25.0681 34.8102 25.0681 35.1622V39.0342C25.0681 39.7382 25.6841 40.3542 26.4761 40.3542H28.6761C29.3801 40.3542 30.0841 41.0582 30.0841 41.7622V44.0502H40.0281V43.1702C40.0281 40.3542 40.6441 37.6262 41.7881 35.0742L43.2841 31.9062C43.7241 30.8502 43.9881 29.7062 43.9881 28.5622C43.9001 23.1062 39.5881 18.7062 34.2201 18.7062ZM38.0041 33.6662C37.5641 34.1062 37.3001 34.6342 37.3001 35.2502C37.3001 36.0422 36.6841 36.6582 35.9801 36.8342V38.2422C35.9801 39.2102 35.1881 40.0022 34.2201 40.0022C33.2521 40.0022 32.4601 39.2102 32.4601 38.2422V36.8342C31.7561 36.7462 31.1401 36.0422 31.1401 35.3382C31.1401 34.7222 30.8761 34.1062 30.5241 33.7542C29.2921 32.6982 28.5881 31.1142 28.5881 29.4422C28.5881 26.0982 31.4921 23.3702 34.9241 23.8102C37.3881 24.0742 39.5001 26.0982 39.9401 28.5622C40.1161 30.4102 39.4121 32.3462 38.0041 33.6662Z" fill="#283653"/>
<path d="M22.8681 4.97825H34.4841C36.3321 4.97825 37.8281 6.47425 37.8281 8.32225V13.9543L37.1241 13.2502C36.8601 12.9862 36.4201 12.9862 36.1561 13.2502C35.8921 13.5142 35.8921 13.9543 36.1561 14.2183L38.0041 16.0663C38.0921 16.1543 38.1801 16.1542 38.2681 16.2422C38.3561 16.2422 38.4441 16.3302 38.5321 16.3302C38.6201 16.3302 38.7081 16.3302 38.7961 16.2422C38.8841 16.2422 38.9721 16.1543 39.0601 16.0663L40.9081 14.2183C41.1721 13.9543 41.1721 13.5142 40.9081 13.2502C40.6441 12.9862 40.2041 12.9862 39.9401 13.2502L39.2361 13.9543V8.32225C39.2361 5.68225 37.1241 3.57025 34.4841 3.57025H22.8681C22.5161 3.57025 22.1641 3.83425 22.1641 4.27425C22.1641 4.62625 22.5161 4.97825 22.8681 4.97825Z" fill="#283653"/>
<path d="M21.4606 40.6182H13.0126C11.1646 40.6182 9.66863 39.1222 9.66863 37.2742V32.3463L10.3726 33.0502C10.5486 33.2262 10.6366 33.2262 10.8126 33.2262C10.9886 33.2262 11.1646 33.1382 11.2526 33.0502C11.5166 32.7862 11.5166 32.3463 11.2526 32.0823L9.40462 30.2342C9.31662 30.1462 9.22862 30.1462 9.14062 30.0582C9.05262 29.9702 8.87662 29.9702 8.70062 30.0582C8.61262 30.0582 8.52462 30.1462 8.43662 30.2342L6.58862 32.0823C6.32463 32.3463 6.32463 32.7862 6.58862 33.0502C6.85262 33.3142 7.29262 33.3142 7.55662 33.0502L8.26062 32.3463V37.2742C8.26062 39.9142 10.3726 42.0262 13.0126 42.0262H21.4606C21.8126 42.0262 22.1646 41.7622 22.1646 41.3222C22.1646 40.8822 21.8126 40.6182 21.4606 40.6182Z" fill="#283653"/>
<path d="M11.34 12.8102C12.22 12.8102 13.012 12.1062 13.012 11.1382C13.012 10.2582 12.308 9.46625 11.34 9.46625C10.46 9.46625 9.66797 10.1702 9.66797 11.1382C9.66797 12.0182 10.46 12.8102 11.34 12.8102Z" fill="#283653"/>
</g>
<defs>
<clipPath id="clip0_481_1822">
<rect width="44" height="44" fill="white" transform="translate(0.779297 0.930237)"/>
</clipPath>
</defs>
</svg>
