<svg width="40" height="40" viewBox="0 0 40 40" fill="none" xmlns="http://www.w3.org/2000/svg">
<g clip-path="url(#clip0_833_3710)">
<path d="M37.6113 20.202C37.2746 14.1798 33.7701 8.84945 28.7334 5.9375H33.1846C33.67 7.29859 34.9586 8.28125 36.4844 8.28125C38.423 8.28125 40 6.70422 40 4.76562C40 2.82703 38.423 1.25 36.4844 1.25C34.9586 1.25 33.67 2.23266 33.1846 3.59375H23.5156V1.25H16.4844V3.59375H6.81539C6.33 2.23266 5.04141 1.25 3.51562 1.25C1.57703 1.25 0 2.82703 0 4.76562C0 6.70422 1.57703 8.28125 3.51562 8.28125C5.04141 8.28125 6.33 7.29859 6.81539 5.93672H11.2667C6.22992 8.84953 2.72555 14.1777 2.38867 20.202C1.00453 20.6746 0 21.9734 0 23.5156C0 25.4542 1.57703 27.0312 3.51562 27.0312C5.45422 27.0312 7.03125 25.4542 7.03125 23.5156C7.03125 22.0215 6.09039 20.7507 4.77336 20.2426C5.18977 13.5788 10.0312 7.95195 16.4844 6.41156V8.28125H23.5156V6.41156C29.9688 7.95195 34.8102 13.5788 35.2266 20.2426C33.9096 20.7507 32.9688 22.0215 32.9688 23.5156C32.9688 25.4542 34.5458 27.0312 36.4844 27.0312C38.423 27.0312 40 25.4542 40 23.5156C40 21.9734 38.9955 20.6746 37.6113 20.202Z" fill="white"/>
<path d="M11.7969 34.0625H28.2031V38.75H11.7969V34.0625Z" fill="white"/>
<path d="M11.6328 23.4641L15.7595 31.7187H24.2398L28.3664 23.4641L21.1715 11.4725V24.6875H18.8277V11.4725L11.6328 23.4641Z" fill="white"/>
</g>
<defs>
<clipPath id="clip0_833_3710">
<rect width="40" height="40" fill="white"/>
</clipPath>
</defs>
</svg>
