<svg width="45" height="44" viewBox="0 0 45 44" fill="none" xmlns="http://www.w3.org/2000/svg">
<path d="M1.66016 40.48C1.66016 41.36 2.36416 42.064 3.24416 42.064H8.17216C8.87616 41.888 9.58016 41.184 9.58016 40.48V36.608C9.58016 35.728 8.87616 35.024 7.99616 35.024H3.24416C2.36416 35.024 1.66016 35.728 1.66016 36.608V40.48Z" fill="#283653"/>
<path d="M19.4358 41.888C20.3158 41.888 21.0198 41.184 21.0198 40.304V31.152C21.0198 30.272 20.3158 29.568 19.4358 29.568H14.5078C13.6278 29.568 12.9238 30.272 12.9238 31.152V40.48C12.9238 41.36 13.6278 42.064 14.5078 42.064H19.4358V41.888Z" fill="#283653"/>
<path d="M25.9473 41.888H30.8753C31.7553 41.888 32.4593 41.184 32.4593 40.304V26.048C32.4593 25.168 31.7553 24.464 30.8753 24.464H25.9473C25.0673 24.464 24.3633 25.168 24.3633 26.048V40.48C24.5393 41.184 25.2433 41.888 25.9473 41.888Z" fill="#283653"/>
<path d="M43.9007 17.424C43.9007 16.544 43.1967 15.84 42.3167 15.84H37.3887C36.5087 15.84 35.8047 16.544 35.8047 17.424V40.304C35.8047 41.184 36.5087 41.888 37.3887 41.888H42.3167C43.1967 41.888 43.9007 41.184 43.9007 40.304V17.424Z" fill="#283653"/>
<path d="M37.0361 10.208C37.3881 10.56 37.7401 10.56 38.0921 10.56C38.2681 10.56 38.6201 10.56 38.7961 10.384C39.5001 10.208 40.0281 9.504 40.0281 8.8L40.3801 4.048C40.3801 3.344 40.0281 2.816 39.6761 2.464C39.1481 2.112 38.4441 1.936 37.9161 2.288L33.5161 3.872C32.8121 4.048 32.4601 4.752 32.2841 5.456C32.1081 6.16 32.4601 6.864 32.9881 7.216L33.6921 7.744C27.7081 14.784 16.4441 22.528 6.58812 22.528C5.53212 22.528 4.82812 23.232 4.82812 24.288C4.82812 25.344 5.53212 26.048 6.58812 26.048C17.6761 26.048 29.9961 17.6 36.5081 9.68L37.0361 10.208Z" fill="#283653"/>
</svg>
