<svg width="40" height="40" viewBox="0 0 40 40" fill="none" xmlns="http://www.w3.org/2000/svg">
<path d="M22.4971 12.5817C22.4971 11.2051 21.3771 10.0851 20.0005 10.0851C18.6239 10.0851 17.5039 11.2051 17.5039 12.5817C17.5039 13.9584 18.6239 15.0784 20.0005 15.0784C21.3771 15.0784 22.4971 13.9584 22.4971 12.5817Z" fill="white"/>
<path d="M31.0561 28.988V5.66261C31.0561 3.49934 29.2962 1.73938 27.1329 1.73938H12.8666C10.7033 1.73938 8.94336 3.49934 8.94336 5.66261V28.988H31.0561ZM22.853 24.7081H17.1465C16.5556 24.7081 16.0765 24.2291 16.0765 23.6382C16.0765 23.0472 16.5556 22.5682 17.1465 22.5682H22.853C23.4439 22.5682 23.923 23.0472 23.923 23.6382C23.923 24.2291 23.4439 24.7081 22.853 24.7081ZM14.2932 11.5118H15.4892C15.605 11.0236 15.7975 10.5649 16.0545 10.1497L15.2081 9.30323C14.7902 8.88537 14.7902 8.20794 15.2081 7.79008C15.6258 7.37222 16.3033 7.37222 16.7212 7.79008L17.5676 8.6365C17.9828 8.37956 18.4416 8.18704 18.9298 8.07119V6.87525C18.9298 6.28434 19.4088 5.80528 19.9997 5.80528C20.5907 5.80528 21.0697 6.28434 21.0697 6.87525V8.07119C21.5579 8.18704 22.0166 8.37956 22.4319 8.6365L23.2783 7.79008C23.6961 7.37222 24.3736 7.37222 24.7914 7.79008C25.2093 8.20794 25.2093 8.88537 24.7914 9.30323L23.945 10.1497C24.202 10.5649 24.3945 11.0236 24.5103 11.5118H25.7063C26.2972 11.5118 26.7762 11.9909 26.7762 12.5818C26.7762 13.1727 26.2972 13.6517 25.7063 13.6517H24.5103C24.3945 14.1399 24.202 14.5987 23.945 15.0139L24.7914 15.8603C25.2093 16.2782 25.2093 16.9556 24.7914 17.3735C24.5825 17.5824 24.3087 17.6869 24.0349 17.6869C23.7611 17.6869 23.4872 17.5825 23.2784 17.3735L22.4319 16.527C22.0167 16.784 21.558 16.9765 21.0698 17.0923V18.2883C21.0698 18.8792 20.5907 19.3583 19.9998 19.3583C19.4089 19.3583 18.9298 18.8792 18.9298 18.2883V17.0923C18.4417 16.9765 17.9829 16.784 17.5677 16.527L16.7213 17.3735C16.5123 17.5824 16.2385 17.6869 15.9647 17.6869C15.691 17.6869 15.4171 17.5825 15.2082 17.3735C14.7903 16.9556 14.7903 16.2782 15.2082 15.8603L16.0546 15.0139C15.7977 14.5987 15.6052 14.1399 15.4893 13.6517H14.2932C13.7023 13.6517 13.2233 13.1727 13.2233 12.5818C13.2233 11.9909 13.7023 11.5118 14.2932 11.5118Z" fill="white"/>
<path d="M8.94336 31.128V34.3379C8.94336 36.5012 10.7033 38.2611 12.8666 38.2611H27.1329C29.2962 38.2611 31.0561 36.5012 31.0561 34.3379V31.128H8.94336ZM21.4264 35.7645H18.5731C17.9822 35.7645 17.5031 35.2855 17.5031 34.6946C17.5031 34.1037 17.9822 33.6246 18.5731 33.6246H21.4264C22.0173 33.6246 22.4963 34.1037 22.4963 34.6946C22.4963 35.2855 22.0173 35.7645 21.4264 35.7645Z" fill="white"/>
</svg>
