<svg width="24" height="24" viewBox="0 0 24 24" fill="none" xmlns="http://www.w3.org/2000/svg">
<path d="M6.82435 24C7.05092 24.0013 7.27553 23.9579 7.48528 23.8722C7.69504 23.7865 7.88582 23.6603 8.04669 23.5007L18.3763 13.1711C18.697 12.8485 18.877 12.4122 18.877 11.9573C18.877 11.5025 18.697 11.0662 18.3763 10.7436L8.04669 0.413972C7.71734 0.131928 7.2937 -0.0154521 6.86041 0.00128394C6.42712 0.0180199 6.01611 0.197638 5.7095 0.504247C5.40289 0.810856 5.22327 1.22187 5.20654 1.65516C5.1898 2.08844 5.33718 2.51209 5.61923 2.84144L14.7265 11.9487L5.61923 21.056C5.37747 21.2958 5.21225 21.6019 5.14444 21.9355C5.07664 22.2692 5.1093 22.6155 5.23829 22.9306C5.36728 23.2457 5.58681 23.5155 5.86913 23.7058C6.15145 23.8962 6.48386 23.9985 6.82435 24Z" fill="#283653"/>
</svg>
