<svg width="45" height="45" viewBox="0 0 45 45" fill="none" xmlns="http://www.w3.org/2000/svg">
<path d="M22.3785 6.9969C23.9785 6.9969 25.2452 5.66357 25.2452 4.13023C25.2452 2.5969 23.9785 1.1969 22.3785 1.1969C20.7785 1.1969 19.5118 2.46357 19.5118 4.06357C19.5118 5.66357 20.7785 6.9969 22.3785 6.9969ZM31.7118 26.4636H13.0452C12.7785 26.4636 12.5118 26.6636 12.5118 26.9969V29.3302C12.5118 29.5969 12.7118 29.8636 13.0452 29.8636H31.7118C31.9785 29.8636 32.2452 29.6636 32.2452 29.3302V26.9969C32.2452 26.6636 31.9785 26.4636 31.7118 26.4636ZM33.5785 13.6636C33.2452 12.9969 32.5118 12.5969 31.6452 12.5969H13.0452C12.2452 12.5969 11.5118 12.9969 11.1118 13.6636C10.4452 14.8636 11.5785 16.5302 13.1118 16.5969H31.5118C33.1785 16.5302 34.2452 14.8636 33.5785 13.6636ZM31.5785 17.5969H13.2452L13.5118 25.4636H31.2452L31.5785 17.5969ZM15.5785 7.5969C16.5118 7.5969 17.3118 6.7969 17.3118 5.86357C17.3118 4.93023 16.5118 4.13023 15.5785 4.13023C14.6452 4.13023 13.8452 4.93023 13.8452 5.86357C13.8452 6.86357 14.5785 7.5969 15.5785 7.5969ZM29.1785 7.5969C30.1118 7.5969 30.9118 6.7969 30.9118 5.86357C30.9118 4.93023 30.1118 4.13023 29.1785 4.13023C28.2452 4.13023 27.4452 4.93023 27.4452 5.86357C27.5118 6.86357 28.2452 7.5969 29.1785 7.5969ZM13.7118 7.86357C13.4452 7.66357 13.2452 7.33023 13.1118 7.06357C11.3118 8.66357 11.9785 10.7302 11.8452 11.8636C12.1785 11.7302 12.5118 11.6636 12.8452 11.6636C12.9118 10.5969 12.4452 9.06357 13.7118 7.86357ZM17.0452 11.6636H27.7118V11.1969C27.7118 9.26357 26.1118 7.66357 24.1785 7.66357H20.6452C18.7118 7.66357 17.1118 9.26357 17.1118 11.1969V11.6636H17.0452ZM31.9118 11.6636C32.2452 11.6636 32.5785 11.7969 32.9118 11.8636C32.7785 10.7302 33.3785 8.66357 31.6452 7.06357C31.5118 7.3969 31.3118 7.66357 31.0452 7.86357C32.3118 9.13023 31.7785 10.5302 31.9118 11.6636ZM28.0452 41.2636V43.3302C28.0452 43.5969 27.8452 43.8636 27.5118 43.8636H17.1785C16.9118 43.8636 16.6452 43.6636 16.6452 43.3302V41.2636C16.6452 39.1969 18.3785 37.4636 20.4452 37.4636H24.2452C26.3785 37.4636 28.0452 39.1969 28.0452 41.2636ZM13.3785 41.2636V43.3302C13.3785 43.5969 13.1785 43.8636 12.8452 43.8636H2.51185C2.24518 43.8636 1.97852 43.6636 1.97852 43.3302V41.2636C1.97852 39.1969 3.64518 37.4636 5.77852 37.4636H9.57852C11.6452 37.4636 13.3785 39.1969 13.3785 41.2636ZM34.0452 33.5969C34.0452 31.9302 35.4452 30.5302 37.1118 30.5302C38.7785 30.5302 40.1785 31.9302 40.1785 33.5969C40.1785 35.3302 38.7785 36.6636 37.1118 36.6636C35.3785 36.6636 34.0452 35.2636 34.0452 33.5969ZM19.3118 33.5969C19.3118 31.9302 20.7118 30.5302 22.3785 30.5302C24.0452 30.5302 25.4452 31.9302 25.4452 33.5969C25.4452 35.3302 24.0452 36.6636 22.3785 36.6636C20.7118 36.6636 19.3118 35.2636 19.3118 33.5969ZM4.64518 33.5969C4.64518 31.9302 6.04518 30.5302 7.71185 30.5302C9.37852 30.5302 10.7785 31.9302 10.7785 33.5969C10.7785 35.3302 9.37852 36.6636 7.71185 36.6636C5.97852 36.6636 4.64518 35.2636 4.64518 33.5969ZM42.7785 41.2636V43.3302C42.7785 43.5969 42.5785 43.8636 42.2452 43.8636H31.9118C31.6452 43.8636 31.3785 43.6636 31.3785 43.3302V41.2636C31.3785 39.1969 33.0452 37.4636 35.1785 37.4636H38.9785C41.0452 37.4636 42.7785 39.1969 42.7785 41.2636Z" fill="#283653"/>
</svg>
