<svg width="41" height="41" viewBox="0 0 41 41" fill="none" xmlns="http://www.w3.org/2000/svg">
<g clip-path="url(#clip0_481_2102)">
<path d="M34.3194 8.72797C36.4934 12.4768 37.0152 16.9457 35.7716 21.085C34.9803 20.1284 33.8846 19.4684 32.6672 19.2162C33.1281 17.1118 33.0324 14.9378 32.3802 12.9116C32.1454 12.129 31.8158 11.3637 31.4062 10.642L34.3194 8.72797Z" fill="#283653"/>
<path d="M30.7193 13.3977C31.3115 15.2413 31.3811 17.224 30.9019 19.1284C30.7637 19.1467 30.6245 19.1632 30.4854 19.198C29.0071 19.4762 27.7027 20.3545 26.8844 21.6242C26.58 21.0598 26.1983 20.5459 25.7539 20.0937C27.0148 18.3023 27.2235 15.9805 26.2931 13.9978L29.9541 11.5968C30.2671 12.1803 30.5193 12.7803 30.7193 13.3977Z" fill="#283653"/>
<path d="M33.3707 7.2758L22.0137 14.7283L24.5529 1.38861C28.0922 2.26691 31.2053 4.35395 33.3707 7.2758Z" fill="#283653"/>
<path d="M21.867 6.20612L21.0496 10.5011C16.1025 10.275 12.9371 16.0239 15.8068 20.0928C15.3624 20.545 14.9807 21.058 14.6763 21.6233C13.8589 20.3536 12.5545 19.4754 11.0753 19.1971C10.9362 19.1623 10.797 19.1449 10.6588 19.1275C8.96304 12.3707 14.4841 5.80611 21.3288 6.16178C21.5018 6.17134 21.6844 6.18873 21.867 6.20612Z" fill="#283653"/>
<path d="M22.8511 1.0668L22.1989 4.49302C21.9293 4.46781 21.6597 4.44085 21.3902 4.43302C13.5725 4.03301 7.17134 11.4246 8.89401 19.2162C7.67657 19.4684 6.58088 20.1293 5.78954 21.085C4.18078 15.7283 5.60693 9.78019 9.48534 5.74525C12.9116 2.17119 17.9379 0.405903 22.8511 1.0668Z" fill="#283653"/>
<path d="M14.4755 27.894C14.6929 28.3636 14.9625 28.8166 15.2842 29.2245C11.8241 30.181 7.67523 32.2594 6.81519 36.0856C6.78041 36.2082 6.75432 36.3291 6.73606 36.4604C5.07599 36.3126 3.42288 36.0604 1.79673 35.6856C1.2054 35.5552 0.779297 35.0247 0.779297 34.416V34.1203C0.787993 31.1637 4.58815 29.668 6.95346 29.1897C8.05002 29.9288 9.32747 30.2245 10.5623 30.1028C12.0667 29.9636 13.5102 29.2071 14.4755 27.894Z" fill="#283653"/>
<path d="M10.7797 20.9111C12.4928 21.2668 13.8146 22.8147 13.8146 24.6156C13.8146 26.5374 12.3015 28.1723 10.4145 28.3714C10.2841 28.381 10.1623 28.3897 10.0319 28.3897C7.98049 28.3897 6.25781 26.6679 6.25781 24.6156C6.25781 22.5546 7.97962 20.832 10.0319 20.832C10.2928 20.8328 10.5362 20.8589 10.7797 20.9111Z" fill="#283653"/>
<path d="M31.5269 20.8328C33.5783 20.8328 35.301 22.5546 35.301 24.6165C35.301 26.6678 33.5792 28.3905 31.5269 28.3905C31.3965 28.3905 31.2747 28.3818 31.1443 28.3723C29.2572 28.1731 27.7441 26.5383 27.7441 24.6165C27.7441 22.8164 29.0668 21.2676 30.779 20.912C31.0225 20.8589 31.266 20.8328 31.5269 20.8328Z" fill="#283653"/>
<path d="M20.7801 19.7371C23.6237 19.7371 25.9977 22.1111 25.9977 24.9547C25.9977 27.7992 23.6237 30.1723 20.7801 30.1723C17.9365 30.1723 15.5625 27.7992 15.5625 24.9547C15.5625 22.1111 17.9365 19.7371 20.7801 19.7371Z" fill="#283653"/>
<path d="M33.1636 37.4074V37.9813C33.1636 38.7901 32.6061 39.4936 31.8157 39.6762C29.5886 40.1901 27.3285 40.5458 25.0502 40.7458C19.9196 41.1893 14.7541 40.8328 9.74436 39.6762C8.9539 39.4936 8.39648 38.7892 8.39648 37.9813V37.4074C8.39648 37.0161 8.43996 36.6508 8.52692 36.3021C9.34348 32.9629 13.8393 31.2672 16.7968 30.6593C19.1882 32.3289 22.371 32.3289 24.7624 30.6593C27.8233 31.2854 32.5279 33.0855 33.1018 36.6508C33.1462 36.8943 33.1636 37.1465 33.1636 37.4074Z" fill="#283653"/>
<path d="M40.7803 34.1203V34.416C40.7803 35.0247 40.3542 35.556 39.7629 35.6856C38.1367 36.0604 36.4836 36.3126 34.8236 36.4604C34.1618 32.3898 29.8408 30.208 26.2754 29.2253C26.5971 28.8166 26.8667 28.3644 27.0841 27.8948C28.0494 29.2079 29.4929 29.9645 30.9973 30.1036C32.2322 30.2262 33.5105 29.9297 34.6062 29.1905C36.9715 29.6679 40.7716 31.1637 40.7803 34.1203Z" fill="#283653"/>
</g>
<defs>
<clipPath id="clip0_481_2102">
<rect width="40" height="40" fill="white" transform="translate(0.779297 0.930176)"/>
</clipPath>
</defs>
</svg>
