<svg width="16" height="17" viewBox="0 0 16 17" fill="none" xmlns="http://www.w3.org/2000/svg">
<g clip-path="url(#clip0_534_1804)">
<path d="M1.49111 14.585C2.48366 15.5775 3.78699 16.0738 5.09075 16.0736C6.39428 16.0735 7.69814 15.5773 8.6905 14.585L14.9367 8.33877C16.3545 6.92097 16.3544 4.61413 14.9366 3.19638C14.2499 2.50956 13.3368 2.13134 12.3655 2.13134C11.3942 2.13134 10.4811 2.50956 9.79427 3.19638L4.06223 8.92832C3.21159 9.77897 3.21159 11.1631 4.06223 12.0138C4.91297 12.8644 6.29712 12.8644 7.14776 12.0137L10.9222 8.23928C11.2062 7.95526 11.2062 7.49482 10.9222 7.2108C10.6382 6.92679 10.1777 6.92679 9.89371 7.2108L6.11928 10.9852C5.83575 11.2689 5.37433 11.2688 5.09071 10.9853C4.80718 10.7017 4.80718 10.2403 5.09071 9.95675L10.8228 4.22486C11.2349 3.81279 11.7827 3.58584 12.3655 3.58584C12.9483 3.58584 13.4961 3.81279 13.9081 4.22486C14.7588 5.07554 14.7589 6.45965 13.9082 7.31034L7.66202 13.5565C6.24417 14.9742 3.93729 14.9742 2.51958 13.5565C1.83277 12.8697 1.4545 11.9565 1.4545 10.9853C1.4545 10.014 1.83277 9.10083 2.51958 8.41401L8.7657 2.1678C9.04966 1.88379 9.04966 1.42329 8.7657 1.13932C8.48173 0.855357 8.02124 0.855308 7.73722 1.13932L1.49111 7.38554C0.529584 8.34706 0 9.62547 0 10.9853C0 12.3451 0.529584 13.6235 1.49111 14.585Z" fill="#F7F7FA"/>
</g>
<defs>
<clipPath id="clip0_534_1804">
<rect width="16" height="16" fill="white" transform="translate(0 0.5)"/>
</clipPath>
</defs>
</svg>
