<svg width="40" height="40" viewBox="0 0 40 40" fill="none" xmlns="http://www.w3.org/2000/svg">
<g clip-path="url(#clip0_833_3721)">
<path d="M12.7536 33.4771H25.7051C27.7839 33.4771 29.7718 32.6165 31.196 31.0953L39.3597 22.3741C40.2263 21.4468 40.2142 20.0044 39.3294 19.0953C38.4263 18.168 36.9293 18.1377 35.99 19.0286L29.7293 24.968C29.5718 26.5013 28.2869 27.7014 26.7172 27.7014H20.0081C19.6687 27.7014 19.402 27.4286 19.402 27.0953C19.402 26.762 19.6687 26.4892 20.0081 26.4892H27.3475C28.7596 26.471 28.9839 24.368 27.6263 24.0104C27.4263 23.962 27.2202 23.9316 27.0021 23.9316H20.9717C20.3717 23.9195 19.8142 23.768 19.3657 23.4832C16.5233 21.7074 13.7354 21.1316 11.0808 21.7801C7.50506 22.6529 5.26263 25.4771 4.5293 26.5377L12.4202 33.1317C12.5475 33.2347 12.6566 33.3498 12.7536 33.4771Z" fill="white"/>
<path d="M8.67939 37.6106C9.14606 38.0046 9.83697 37.9379 10.2249 37.4712L11.7824 35.6106C12.1703 35.1439 12.1097 34.453 11.643 34.0652L3.35817 27.1439C2.89757 26.7561 2.2006 26.8167 1.81272 27.2833L0.255138 29.1439C-0.132742 29.6106 -0.0721354 30.3015 0.394532 30.6955L8.67939 37.6106Z" fill="white"/>
<path d="M15.5092 12.2832C15.7395 12.2832 15.9637 12.259 16.1759 12.2045V16.2166C16.1759 16.5499 16.4486 16.8226 16.7819 16.8226H20.794C20.7395 17.0348 20.7153 17.259 20.7153 17.4833C20.7153 19.0348 21.9759 20.2954 23.5213 20.2954C25.0728 20.2954 26.3335 19.0348 26.3335 17.4833C26.3335 17.259 26.3031 17.0348 26.2547 16.8226H30.2607C30.5941 16.8226 30.8668 16.5499 30.8668 16.2166V12.2045C31.085 12.259 31.3092 12.2832 31.5335 12.2832C33.085 12.2832 34.3456 11.0226 34.3456 9.47718C34.3456 7.92566 33.085 6.66505 31.5335 6.66505C31.3092 6.66505 31.085 6.69536 30.8668 6.74384V2.73778C30.8668 2.39838 30.5941 2.13171 30.2607 2.13171H25.4122C25.1941 2.13171 24.988 2.24687 24.885 2.43474C24.7759 2.62868 24.7759 2.85899 24.891 3.04687C25.0425 3.29535 25.1213 3.5802 25.1213 3.86505C25.1213 4.7499 24.4062 5.46505 23.5213 5.46505C22.6425 5.46505 21.9274 4.7499 21.9274 3.86505C21.9274 3.5802 22.0062 3.29535 22.1516 3.04687C22.2668 2.85899 22.2728 2.62868 22.1637 2.43474C22.0547 2.24687 21.8547 2.13171 21.6365 2.13171H16.7819C16.4486 2.13171 16.1759 2.39838 16.1759 2.73778V6.74384C15.9637 6.69536 15.7395 6.66505 15.5092 6.66505C13.9637 6.66505 12.7031 7.92566 12.7031 9.47718C12.7031 11.0226 13.9637 12.2832 15.5092 12.2832Z" fill="white"/>
</g>
<defs>
<clipPath id="clip0_833_3721">
<rect width="40" height="40" fill="white"/>
</clipPath>
</defs>
</svg>
