<svg width="25" height="24" viewBox="0 0 25 24" fill="none" xmlns="http://www.w3.org/2000/svg">
<g clip-path="url(#clip0_263_1068)">
<path d="M21.7715 3.1875H3.39648C1.84567 3.1875 0.583984 4.44919 0.583984 6V18C0.583984 19.5508 1.84567 20.8125 3.39648 20.8125H21.7715C23.3223 20.8125 24.584 19.5508 24.584 18V6C24.584 4.44919 23.3223 3.1875 21.7715 3.1875ZM22.709 18C22.709 18.5169 22.2884 18.9375 21.7715 18.9375H3.39648C2.87955 18.9375 2.45898 18.5169 2.45898 18V6C2.45898 5.48306 2.87955 5.0625 3.39648 5.0625H21.7715C22.2884 5.0625 22.709 5.48306 22.709 6V18Z" fill="#B0AFCC"/>
<path d="M22.5497 4.35645L12.5839 11.7691L2.61812 4.35645L1.49902 5.8609L12.5839 14.1059L23.6688 5.8609L22.5497 4.35645Z" fill="#B0AFCC"/>
</g>
<defs>
<clipPath id="clip0_263_1068">
<rect width="24" height="24" fill="white" transform="translate(0.583984)"/>
</clipPath>
</defs>
</svg>
