<svg width="44" height="45" viewBox="0 0 44 45" fill="none" xmlns="http://www.w3.org/2000/svg">
<g clip-path="url(#clip0_838_3853)">
<path d="M27.7396 34.4084V42.0606C27.7396 43.1127 26.8788 43.9736 25.8266 43.9736H22.0005V36.3214H6.69616V43.9736H2.87007C1.8179 43.9736 0.957031 43.1127 0.957031 42.0606V15.278C0.957031 22.6719 6.95442 28.6693 14.3483 28.6693C21.7422 28.6693 27.7396 22.6719 27.7396 15.278V34.4084Z" fill="#283653"/>
<path d="M39.2174 10.4954C36.5803 10.4954 34.4348 12.6409 34.4348 15.278C34.4348 17.587 36.081 19.5192 38.2609 19.964V30.5823C38.2609 32.1644 36.9734 33.4519 35.3913 33.4519H28.6957V15.278C28.6957 7.36661 22.2592 0.930176 14.3478 0.930176C6.43643 0.930176 0 7.36661 0 15.278V42.0606C0 43.6427 1.28748 44.9302 2.86957 44.9302H25.8261C27.4082 44.9302 28.6957 43.6427 28.6957 42.0606V35.365H35.3913C38.0284 35.365 40.1739 33.2195 40.1739 30.5823V19.964C42.3538 19.5192 44 17.588 44 15.278C44 12.6409 41.8545 10.4954 39.2174 10.4954ZM14.3478 2.84322C21.2042 2.84322 26.7826 8.42165 26.7826 15.278C26.7826 22.1343 21.2042 27.7128 14.3478 27.7128C7.49148 27.7128 1.91304 22.1343 1.91304 15.278C1.91304 8.42165 7.49148 2.84322 14.3478 2.84322ZM21.0435 43.0171H7.65217V37.278H21.0435V43.0171ZM26.7826 42.0606C26.7826 42.5886 26.3531 43.0171 25.8261 43.0171H22.9565V36.3215C22.9565 35.7925 22.528 35.365 22 35.365H6.69565C6.16765 35.365 5.73913 35.7925 5.73913 36.3215V43.0171H2.86957C2.34252 43.0171 1.91304 42.5886 1.91304 42.0606V22.406C4.39139 26.7132 9.03148 29.6258 14.3478 29.6258C19.6642 29.6258 24.3043 26.7132 26.7826 22.406V42.0606ZM39.2174 18.1476C37.6353 18.1476 36.3478 16.8601 36.3478 15.278C36.3478 13.6959 37.6353 12.4084 39.2174 12.4084C40.7995 12.4084 42.087 13.6959 42.087 15.278C42.087 16.8601 40.7995 18.1476 39.2174 18.1476Z" fill="#283653"/>
<path d="M14.347 23.8867C19.0932 23.8867 22.9557 20.0252 22.9557 15.278C22.9557 10.5308 19.0932 6.66931 14.347 6.66931C9.60072 6.66931 5.73828 10.5308 5.73828 15.278C5.73828 20.0252 9.60072 23.8867 14.347 23.8867ZM14.347 8.58236C18.0392 8.58236 21.0426 11.5868 21.0426 15.278C21.0426 18.9692 18.0392 21.9737 14.347 21.9737C10.6548 21.9737 7.65132 18.9692 7.65132 15.278C7.65132 11.5868 10.6548 8.58236 14.347 8.58236Z" fill="#283653"/>
</g>
<defs>
<clipPath id="clip0_838_3853">
<rect width="44" height="44" fill="white" transform="translate(0 0.930176)"/>
</clipPath>
</defs>
</svg>
