<svg width="45" height="45" viewBox="0 0 45 45" fill="none" xmlns="http://www.w3.org/2000/svg">
<g clip-path="url(#clip0_838_3838)">
<path d="M38.0833 3.79976V36.3215H11.3007C9.18678 36.3215 7.47461 38.0337 7.47461 40.1476V3.79976C7.47461 2.74759 8.33548 1.88672 9.38765 1.88672H36.1703C37.2224 1.88672 38.0833 2.74759 38.0833 3.79976ZM32.3442 30.5824V24.8432H13.2137V30.5824H32.3442ZM28.5181 13.365C28.5181 10.1989 25.945 7.62585 22.779 7.62585C19.6129 7.62585 17.0398 10.1989 17.0398 13.365C17.0398 16.5311 19.6129 19.1041 22.779 19.1041C25.945 19.1041 28.5181 16.5311 28.5181 13.365Z" fill="#283653"/>
<path d="M38.0828 37.278C38.6108 37.278 39.0393 36.8495 39.0393 36.3215V3.79974C39.0393 2.21765 37.7518 0.930176 36.1698 0.930176H9.38714C7.80506 0.930176 6.51758 2.21765 6.51758 3.79974V40.1476C6.51758 42.7847 8.66306 44.9302 11.3002 44.9302H38.0828C38.6108 44.9302 39.0393 44.5017 39.0393 43.9737C39.0393 43.4457 38.6108 43.0171 38.0828 43.0171C36.5007 43.0171 35.2132 41.7297 35.2132 40.1476C35.2132 38.5655 36.5007 37.278 38.0828 37.278ZM34.2586 43.0171H11.3002C9.7181 43.0171 8.43062 41.7297 8.43062 40.1476C8.43062 38.5655 9.7181 37.278 11.3002 37.278H34.2586C33.6579 38.0777 33.3002 39.0715 33.3002 40.1476C33.3002 41.2237 33.6579 42.2175 34.2586 43.0171ZM11.3002 35.365C10.2193 35.365 9.23219 35.739 8.43062 36.3464V3.79974C8.43062 3.2727 8.8601 2.84322 9.38714 2.84322H36.1698C36.6968 2.84322 37.1263 3.2727 37.1263 3.79974V35.365H11.3002Z" fill="#283653"/>
<path d="M22.7777 20.0606C26.4699 20.0606 29.4733 17.0571 29.4733 13.365C29.4733 9.67279 26.4699 6.66931 22.7777 6.66931C19.0855 6.66931 16.082 9.67279 16.082 13.365C16.082 17.0571 19.0855 20.0606 22.7777 20.0606ZM22.7777 8.58235C25.4148 8.58235 27.5603 10.7278 27.5603 13.365C27.5603 16.0021 25.4148 18.1476 22.7777 18.1476C20.1406 18.1476 17.9951 16.0021 17.9951 13.365C17.9951 10.7278 20.1406 8.58235 22.7777 8.58235Z" fill="#283653"/>
<path d="M32.3428 23.8867H13.2124C12.6844 23.8867 12.2559 24.3152 12.2559 24.8432V30.5824C12.2559 31.1104 12.6844 31.5389 13.2124 31.5389H32.3428C32.8708 31.5389 33.2993 31.1104 33.2993 30.5824V24.8432C33.2993 24.3152 32.8708 23.8867 32.3428 23.8867ZM31.3863 29.6258H14.1689V25.7998H31.3863V29.6258Z" fill="#283653"/>
</g>
<defs>
<clipPath id="clip0_838_3838">
<rect width="44" height="44" fill="white" transform="translate(0.779297 0.930176)"/>
</clipPath>
</defs>
</svg>
