<svg width="45" height="45" viewBox="0 0 45 45" fill="none" xmlns="http://www.w3.org/2000/svg">
<g clip-path="url(#clip0_838_3868)">
<path d="M22.7799 30.5824V43.9737L5.5625 28.6693V7.62585H22.7799V15.278C18.5521 15.278 15.1277 18.7024 15.1277 22.9302C15.1277 27.158 18.5521 30.5824 22.7799 30.5824Z" fill="#283653"/>
<path d="M22.1433 44.6891C22.1911 44.7312 22.2476 44.7532 22.3011 44.7838C22.3432 44.8087 22.3796 44.8403 22.4264 44.8594C22.5403 44.9044 22.6589 44.9302 22.7794 44.9302C22.8999 44.9302 23.0185 44.9044 23.1323 44.8584C23.1783 44.8403 23.2146 44.8087 23.2576 44.7829C23.3103 44.7513 23.3676 44.7303 23.4155 44.6882L40.6329 29.3838C40.8366 29.203 40.9533 28.9429 40.9533 28.6693V3.79974C40.9533 2.21765 39.6658 0.930176 38.0837 0.930176H7.47503C5.89295 0.930176 4.60547 2.21765 4.60547 3.79974V28.6693C4.60547 28.9429 4.72216 29.203 4.9259 29.3848L22.1433 44.6891ZM6.51851 8.58235H21.8229V14.3779C17.5252 14.8562 14.1707 18.5072 14.1707 22.9302C14.1707 27.3531 17.5252 31.0042 21.8229 31.4824V41.8435L6.51851 28.2398V8.58235ZM20.0705 22.5045L21.9836 25.3741C22.1615 25.64 22.4599 25.7997 22.7794 25.7997C23.0989 25.7997 23.3973 25.64 23.5752 25.3741L27.9934 18.7473C28.9394 19.9277 29.475 21.3988 29.475 22.9302C29.475 26.6224 26.4716 29.6258 22.7794 29.6258C19.0872 29.6258 16.0837 26.6224 16.0837 22.9302C16.0837 19.238 19.0872 16.2345 22.7794 16.2345C24.1453 16.2345 25.4643 16.6554 26.5758 17.4254L22.7794 23.1196L21.6622 21.4437C21.3685 21.0037 20.7755 20.8842 20.3355 21.1788C19.8964 21.4705 19.7778 22.0645 20.0705 22.5045ZM23.7359 41.8435V31.4824C28.0336 31.0042 31.3881 27.3531 31.3881 22.9302C31.3881 20.7579 30.5588 18.6737 29.0963 17.0916L31.2274 13.8939C31.5201 13.4539 31.4005 12.8599 30.9605 12.5682C30.5215 12.2764 29.9265 12.395 29.6348 12.835L27.6356 15.8347C26.4744 15.0379 25.1382 14.5377 23.7359 14.3808V8.58235H39.0403V28.2398L23.7359 41.8435ZM7.47503 2.84322H38.0837C38.6108 2.84322 39.0403 3.2727 39.0403 3.79974V6.66931H6.51851V3.79974C6.51851 3.2727 6.94799 2.84322 7.47503 2.84322Z" fill="#283653"/>
</g>
<defs>
<clipPath id="clip0_838_3868">
<rect width="44" height="44" fill="white" transform="translate(0.779297 0.930176)"/>
</clipPath>
</defs>
</svg>
