<svg width="44" height="44" viewBox="0 0 44 44" fill="none" xmlns="http://www.w3.org/2000/svg">
<path d="M22 18.1739V16.2609C22 14.147 23.7122 12.4348 25.8261 12.4348H35.3913V19.1305C35.3913 22.8322 32.3974 25.8261 28.6957 25.8261H22V18.1739Z" fill="#283653"/>
<path d="M35.3915 11.4783H25.8263C24.7454 11.4783 23.7583 11.8523 22.9567 12.4597V4.78261C22.9567 2.14548 20.8112 0 18.1741 0H8.60887C8.08087 0 7.65234 0.428522 7.65234 0.956522V7.65217C7.65234 11.8714 11.0853 15.3043 15.3045 15.3043H21.0436V22.0249C20.2421 21.4175 19.255 21.0435 18.1741 21.0435H8.60887C8.08087 21.0435 7.65234 21.472 7.65234 22V28.6957C7.65234 32.9149 11.0853 36.3478 15.3045 36.3478H21.0436V42.087H8.60887C8.08087 42.087 7.65234 42.5155 7.65234 43.0435C7.65234 43.5715 8.08087 44 8.60887 44H35.3915C35.9195 44 36.348 43.5715 36.348 43.0435C36.348 42.5155 35.9195 42.087 35.3915 42.087H22.9567V26.7826H28.6958C32.915 26.7826 36.348 23.3497 36.348 19.1304V12.4348C36.348 11.9068 35.9195 11.4783 35.3915 11.4783ZM9.56539 7.65217V1.91304H18.1741C19.7562 1.91304 21.0436 3.20052 21.0436 4.78261V5.73913H14.348C13.82 5.73913 13.3915 6.16765 13.3915 6.69565C13.3915 7.22365 13.82 7.65217 14.348 7.65217H21.0436V13.3913H15.3045C12.1394 13.3913 9.56539 10.8173 9.56539 7.65217ZM15.3045 34.4348C12.1394 34.4348 9.56539 31.8608 9.56539 28.6957V22.9565H18.1741C19.7562 22.9565 21.0436 24.244 21.0436 25.8261V26.7826H14.348C13.82 26.7826 13.3915 27.2111 13.3915 27.7391C13.3915 28.2671 13.82 28.6957 14.348 28.6957H21.0436V34.4348H15.3045ZM34.435 19.1304C34.435 22.2956 31.861 24.8696 28.6958 24.8696H22.9567V19.1304H29.6523C30.1803 19.1304 30.6089 18.7019 30.6089 18.1739C30.6089 17.6459 30.1803 17.2174 29.6523 17.2174H22.9567V16.2609C22.9567 14.6788 24.2442 13.3913 25.8263 13.3913H34.435V19.1304Z" fill="#283653"/>
</svg>
