<svg width="44" height="44" viewBox="0 0 44 44" fill="none" xmlns="http://www.w3.org/2000/svg">
<g clip-path="url(#clip0_838_3824)">
<path d="M29.652 22C29.652 24.1139 28.7911 26.0269 27.4137 27.4139C26.0268 28.7913 24.1137 29.6521 21.9998 29.6521C19.8859 29.6521 17.9729 28.7913 16.5859 27.4139C15.2085 26.0269 14.3477 24.1139 14.3477 22C14.3477 19.886 15.2085 17.973 16.5859 16.586C17.9729 15.2086 19.8859 14.3478 21.9998 14.3478C26.2277 14.3478 29.652 17.7721 29.652 22ZM23.9129 20.5652C23.9129 20.2973 23.7024 20.0869 23.4346 20.0869C23.1668 20.0869 22.9564 20.2973 22.9564 20.5652C22.9564 20.833 23.1668 21.0434 23.4346 21.0434C23.7024 21.0434 23.9129 20.833 23.9129 20.5652Z" fill="#283653"/>
<path d="M37.3043 30.6087C35.8342 30.6087 34.4463 31.0831 33.2994 31.9469L28.7243 27.3718C29.9439 25.8462 30.6087 23.9723 30.6087 22C30.6087 17.2537 26.7472 13.3913 22 13.3913C20.0296 13.3913 18.1567 14.0561 16.6282 15.2757L12.0531 10.7006C12.9169 9.55374 13.3913 8.16583 13.3913 6.69565C13.3913 3.00348 10.3878 0 6.69565 0C3.00348 0 0 3.00348 0 6.69565C0 10.3878 3.00348 13.3913 6.69565 13.3913C8.16583 13.3913 9.55374 12.9169 10.7006 12.0531L15.2757 16.6282C14.0561 18.1538 13.3913 20.0277 13.3913 22C13.3913 23.9704 14.0561 25.8433 15.2757 27.3718L10.7006 31.9469C9.55374 31.0831 8.16583 30.6087 6.69565 30.6087C3.00348 30.6087 0 33.6122 0 37.3043C0 40.9965 3.00348 44 6.69565 44C10.3878 44 13.3913 40.9965 13.3913 37.3043C13.3913 35.8332 12.9159 34.4424 12.0531 33.2994L16.6272 28.7253C18.1538 29.9439 20.0277 30.6087 22 30.6087C23.9723 30.6087 25.8462 29.9439 27.3728 28.7253L31.9478 33.3003C31.0822 34.4463 30.6087 35.8342 30.6087 37.3043C30.6087 40.9965 33.6131 44 37.3043 44C40.9956 44 44 40.9965 44 37.3043C44 33.6122 40.9956 30.6087 37.3043 30.6087ZM1.91304 6.69565C1.91304 4.05852 4.05852 1.91304 6.69565 1.91304C9.33278 1.91304 11.4783 4.05852 11.4783 6.69565C11.4783 7.97835 10.9809 9.17783 10.0779 10.0722C10.076 10.0741 10.0741 10.076 10.0722 10.0779C9.17783 10.9809 7.97835 11.4783 6.69565 11.4783C4.05852 11.4783 1.91304 9.33278 1.91304 6.69565ZM6.69565 42.087C4.05852 42.087 1.91304 39.9415 1.91304 37.3043C1.91304 34.6672 4.05852 32.5217 6.69565 32.5217C7.97835 32.5217 9.17783 33.0191 10.0779 33.9278C10.9809 34.8222 11.4783 36.0217 11.4783 37.3043C11.4783 39.9415 9.33278 42.087 6.69565 42.087ZM17.2643 26.7405C16.0007 25.4674 15.3043 23.7839 15.3043 22C15.3043 20.2161 16.0007 18.5326 17.2595 17.2643C18.5326 16.0007 20.2161 15.3043 22 15.3043C25.6912 15.3043 28.6957 18.3078 28.6957 22C28.6957 23.782 28.0003 25.4645 26.7377 26.7377C25.4645 28.0003 23.782 28.6957 22 28.6957C20.2161 28.6957 18.5326 27.9993 17.2643 26.7405ZM37.3043 42.087C34.6672 42.087 32.5217 39.9415 32.5217 37.3043C32.5217 36.0217 33.0191 34.8222 33.9221 33.9278C33.924 33.9259 33.9259 33.924 33.9278 33.9221C34.8222 33.0191 36.0217 32.5217 37.3043 32.5217C39.9415 32.5217 42.087 34.6672 42.087 37.3043C42.087 39.9415 39.9415 42.087 37.3043 42.087Z" fill="#283653"/>
<path d="M23.4348 19.1305C22.6437 19.1305 22 19.7742 22 20.5653C22 21.3563 22.6437 22.0001 23.4348 22.0001C24.2258 22.0001 24.8696 21.3563 24.8696 20.5653C24.8696 19.7742 24.2258 19.1305 23.4348 19.1305Z" fill="white"/>
</g>
<defs>
<clipPath id="clip0_838_3824">
<rect width="44" height="44" fill="white"/>
</clipPath>
</defs>
</svg>
