<svg width="45" height="45" viewBox="0 0 45 45" fill="none" xmlns="http://www.w3.org/2000/svg">
<g clip-path="url(#clip0_838_3880)">
<path d="M22.7801 28.6693C25.9498 28.6693 28.5193 26.0998 28.5193 22.9302C28.5193 19.7605 25.9498 17.191 22.7801 17.191C19.6105 17.191 17.041 19.7605 17.041 22.9302C17.041 26.0998 19.6105 28.6693 22.7801 28.6693Z" fill="#283653"/>
<path d="M43.8228 16.2345H22.7793C19.0871 16.2345 16.0836 19.238 16.0836 22.9301C16.0836 24.803 16.8584 26.4961 18.1019 27.7128H1.73582C1.20782 27.7128 0.779297 28.1413 0.779297 28.6693C0.779297 29.1973 1.20782 29.6258 1.73582 29.6258H22.7793C26.4705 29.6258 29.4749 26.6223 29.4749 22.9301C29.4749 21.0573 28.7002 19.3642 27.4557 18.1475H43.8228C44.3517 18.1475 44.7793 17.719 44.7793 17.191C44.7793 16.663 44.3517 16.2345 43.8228 16.2345ZM27.5619 22.9301C27.5619 25.5673 25.4164 27.7128 22.7793 27.7128C20.1422 27.7128 17.9967 25.5673 17.9967 22.9301C17.9967 20.293 20.1422 18.1475 22.7793 18.1475C25.4164 18.1475 27.5619 20.293 27.5619 22.9301Z" fill="#283653"/>
<path d="M22.7788 35.3649C29.6351 35.3649 35.2136 29.7865 35.2136 22.9302C35.2136 22.4022 34.786 21.9736 34.257 21.9736C33.7281 21.9736 33.3005 22.4022 33.3005 22.9302C33.3005 28.7315 28.5801 33.4519 22.7788 33.4519C22.2508 33.4519 21.8223 33.8804 21.8223 34.4084C21.8223 34.9364 22.2508 35.3649 22.7788 35.3649Z" fill="#283653"/>
<path d="M22.7785 10.4954C15.9222 10.4954 10.3438 16.0738 10.3438 22.9301C10.3438 23.4581 10.7723 23.8867 11.3003 23.8867C11.8283 23.8867 12.2568 23.4581 12.2568 22.9301C12.2568 17.1288 16.9772 12.4084 22.7785 12.4084C23.3065 12.4084 23.7351 11.9799 23.7351 11.4519C23.7351 10.9239 23.3065 10.4954 22.7785 10.4954Z" fill="#283653"/>
<path d="M22.7788 41.1041C32.8003 41.1041 40.9527 32.9516 40.9527 22.9302C40.9527 22.4022 40.5251 21.9736 39.9962 21.9736C39.4672 21.9736 39.0397 22.4022 39.0397 22.9302C39.0397 31.8966 31.7452 39.191 22.7788 39.191C22.2508 39.191 21.8223 39.6195 21.8223 40.1475C21.8223 40.6755 22.2508 41.1041 22.7788 41.1041Z" fill="#283653"/>
<path d="M5.56199 23.8867C6.08999 23.8867 6.51851 23.4581 6.51851 22.9301C6.51851 13.9637 13.8129 6.66927 22.7794 6.66927C23.3074 6.66927 23.7359 6.24075 23.7359 5.71275C23.7359 5.18475 23.3074 4.75623 22.7794 4.75623C12.7579 4.75623 4.60547 12.9087 4.60547 22.9301C4.60547 23.4581 5.03399 23.8867 5.56199 23.8867Z" fill="#283653"/>
<path d="M43.8234 4.75623H28.519C27.9901 4.75623 27.5625 5.18475 27.5625 5.71275C27.5625 6.24075 27.9901 6.66927 28.519 6.66927H43.8234C44.3523 6.66927 44.7799 6.24075 44.7799 5.71275C44.7799 5.18475 44.3523 4.75623 43.8234 4.75623Z" fill="#283653"/>
<path d="M43.8234 10.4954H28.519C27.9901 10.4954 27.5625 10.9239 27.5625 11.4519C27.5625 11.9799 27.9901 12.4084 28.519 12.4084H43.8234C44.3523 12.4084 44.7799 11.9799 44.7799 11.4519C44.7799 10.9239 44.3523 10.4954 43.8234 10.4954Z" fill="#283653"/>
<path d="M1.73582 35.3649H17.0402C17.5682 35.3649 17.9967 34.9364 17.9967 34.4084C17.9967 33.8804 17.5682 33.4519 17.0402 33.4519H1.73582C1.20782 33.4519 0.779297 33.8804 0.779297 34.4084C0.779297 34.9364 1.20782 35.3649 1.73582 35.3649Z" fill="#283653"/>
<path d="M1.73582 41.1041H17.0402C17.5682 41.1041 17.9967 40.6756 17.9967 40.1476C17.9967 39.6196 17.5682 39.191 17.0402 39.191H1.73582C1.20782 39.191 0.779297 39.6196 0.779297 40.1476C0.779297 40.6756 1.20782 41.1041 1.73582 41.1041Z" fill="#283653"/>
</g>
<defs>
<clipPath id="clip0_838_3880">
<rect width="44" height="44" fill="white" transform="translate(0.779297 0.930176)"/>
</clipPath>
</defs>
</svg>
