<svg width="45" height="45" viewBox="0 0 45 45" fill="none" xmlns="http://www.w3.org/2000/svg">
<g clip-path="url(#clip0_838_3914)">
<path d="M22.779 38.2346C14.3233 38.2346 7.47461 31.3859 7.47461 22.9302C7.47461 14.4746 14.3233 7.62585 22.779 7.62585C31.2346 7.62585 38.0833 14.4746 38.0833 22.9302C38.0833 31.3859 31.2346 38.2346 22.779 38.2346ZM22.779 32.4954C28.059 32.4954 32.3442 28.2102 32.3442 22.9302C32.3442 17.6502 28.059 13.365 22.779 13.365C17.499 13.365 13.2137 17.6502 13.2137 22.9302C13.2137 28.2102 17.499 32.4954 22.779 32.4954Z" fill="#283653"/>
<path d="M43.8235 31.5388C43.2945 31.5388 42.8669 31.9664 42.8669 32.4953V40.1475C42.8669 41.7296 41.5795 43.0171 39.9974 43.0171H32.3452C31.8162 43.0171 31.3887 43.4446 31.3887 43.9736C31.3887 44.5026 31.8162 44.9301 32.3452 44.9301H39.9974C42.6345 44.9301 44.78 42.7846 44.78 40.1475V32.4953C44.78 31.9664 44.3524 31.5388 43.8235 31.5388Z" fill="#283653"/>
<path d="M39.9974 0.930176H32.3452C31.8162 0.930176 31.3887 1.35774 31.3887 1.8867C31.3887 2.41565 31.8162 2.84322 32.3452 2.84322H39.9974C41.5795 2.84322 42.8669 4.1307 42.8669 5.71278V13.365C42.8669 13.8939 43.2945 14.3215 43.8235 14.3215C44.3524 14.3215 44.78 13.8939 44.78 13.365V5.71278C44.78 3.07565 42.6345 0.930176 39.9974 0.930176Z" fill="#283653"/>
<path d="M1.73582 14.3215C2.26478 14.3215 2.69234 13.8939 2.69234 13.365V5.71278C2.69234 4.1307 3.97982 2.84322 5.56191 2.84322H13.2141C13.743 2.84322 14.1706 2.41565 14.1706 1.8867C14.1706 1.35774 13.743 0.930176 13.2141 0.930176H5.56191C2.92478 0.930176 0.779297 3.07565 0.779297 5.71278V13.365C0.779297 13.8939 1.20686 14.3215 1.73582 14.3215Z" fill="#283653"/>
<path d="M5.56191 44.9301H13.2141C13.743 44.9301 14.1706 44.5026 14.1706 43.9736C14.1706 43.4446 13.743 43.0171 13.2141 43.0171H5.56191C3.97982 43.0171 2.69234 41.7296 2.69234 40.1475V32.4953C2.69234 31.9664 2.26478 31.5388 1.73582 31.5388C1.20686 31.5388 0.779297 31.9664 0.779297 32.4953V40.1475C0.779297 42.7846 2.92478 44.9301 5.56191 44.9301Z" fill="#283653"/>
<path d="M22.7784 44.9302C23.3074 44.9302 23.735 44.5026 23.735 43.9737V39.1423C32.2557 38.643 39.0393 31.5733 39.0393 22.9302C39.0393 13.9637 31.7449 6.66931 22.7784 6.66931C13.812 6.66931 6.51758 13.9637 6.51758 22.9302C6.51758 31.5733 13.3012 38.643 21.8219 39.1423V43.9737C21.8219 44.5026 22.2495 44.9302 22.7784 44.9302ZM22.7784 25.7997C21.1964 25.7997 19.9089 24.5123 19.9089 22.9302C19.9089 21.3481 21.1964 20.0606 22.7784 20.0606C24.3605 20.0606 25.648 21.3481 25.648 22.9302C25.648 24.5123 24.3605 25.7997 22.7784 25.7997ZM23.735 27.6162C25.9149 27.1714 27.5611 25.2402 27.5611 22.9302C27.5611 20.293 25.4156 18.1476 22.7784 18.1476C20.1413 18.1476 17.9958 20.293 17.9958 22.9302C17.9958 25.2392 19.642 27.1714 21.8219 27.6162V31.4824C17.5243 31.0051 14.1698 27.3541 14.1698 22.9302C14.1698 18.183 18.0312 14.3215 22.7784 14.3215C27.5257 14.3215 31.3871 18.183 31.3871 22.9302C31.3871 27.3541 28.0326 31.0051 23.735 31.4824V27.6162ZM8.43062 22.9302C8.43062 15.0188 14.8671 8.58235 22.7784 8.58235C30.6898 8.58235 37.1263 15.0188 37.1263 22.9302C37.1263 30.5192 31.2006 36.7337 23.735 37.2292V33.4031C29.0896 32.9182 33.3002 28.4091 33.3002 22.9302C33.3002 17.1289 28.5798 12.4084 22.7784 12.4084C16.9771 12.4084 12.2567 17.1289 12.2567 22.9302C12.2567 28.4091 16.4673 32.9182 21.8219 33.4031V37.2292C14.3563 36.7337 8.43062 30.5192 8.43062 22.9302Z" fill="#283653"/>
</g>
<defs>
<clipPath id="clip0_838_3914">
<rect width="44" height="44" fill="white" transform="translate(0.779297 0.930176)"/>
</clipPath>
</defs>
</svg>
